<svg version="1.1" id="Layer_1" xmlns="http://www.w3.org/2000/svg" xmlns:xlink="http://www.w3.org/1999/xlink" x="0px" y="0px" viewBox="0 0 500 500" style="width: 188px;" xml:space="preserve" data-imageid="conference-1-39" imageName="Conference 1" class="illustrations_image">
<style type="text/css">
	.st0_conference-1-39{fill:#8383EA;}
	.st1_conference-1-39{fill:url(#SVGID_1_);}
	.st2_conference-1-39{fill:url(#SVGID_00000008114789832583076630000015391450726746774962_);}
	.st3_conference-1-39{fill:url(#SVGID_00000058546824319432840110000018323151648681466242_);}
	.st4_conference-1-39{fill:url(#SVGID_00000057109942558696499950000017851811142488965789_);}
	.st5_conference-1-39{fill:url(#SVGID_00000078750135089716029800000006594530866171580599_);}
	.st6_conference-1-39{fill:url(#SVGID_00000060029585409243317960000002239676092816106650_);}
	.st7_conference-1-39{fill:url(#SVGID_00000121274972026667185710000004298548840593604773_);}
	.st8_conference-1-39{fill:url(#SVGID_00000015315890217068748840000002051417631656341123_);}
	.st9_conference-1-39{fill:url(#SVGID_00000083798993052752860940000012022826085282814647_);}
	.st10_conference-1-39{fill:url(#SVGID_00000100342619132620458120000013157986044003795387_);}
	.st11_conference-1-39{fill:#4C4C4C;}
	.st12_conference-1-39{fill:#42210B;}
	.st13_conference-1-39{fill:#755454;}
	.st14_conference-1-39{fill:#68E1FD;}
	.st15_conference-1-39{fill:#39B54A;}
	.st16_conference-1-39{fill:#F7BD89;}
	.st17_conference-1-39{fill:#0071BC;}
	.st18_conference-1-39{fill:#EFEFEF;}
	.st19_conference-1-39{fill:#DD6F31;}
	.st20_conference-1-39{opacity:0.5;fill:#4C4C4C;enable-background:new    ;}
	.st21_conference-1-39{opacity:0.5;fill:#0071BC;enable-background:new    ;}
	.st22_conference-1-39{opacity:0.1;fill:#4C4C4C;enable-background:new    ;}
</style>
<g id="background_conference-1-39">
	<path class="st0_conference-1-39" d="M243.1,404.6L20.5,273c-7.1-4-13.2-10.5-6.3-14.8l223.4-128.7c3.4-2.1,8.4-3.4,11.9-1.4l233.7,135.6&#10;&#9;&#9;c7.1,4.1,8.4,15.6,1.3,19.7l-212,121C263.4,409.6,252.3,409.7,243.1,404.6z"/>
	
		<linearGradient id="SVGID_1_-conference-1-39" gradientUnits="userSpaceOnUse" x1="-1541.9714" y1="292.1416" x2="-1511.8815" y2="320.0216" gradientTransform="matrix(-1 0 0 -1 -1306.1599 502)">
		<stop offset="1.000000e-02" style="stop-color:#8383EA"/>
		<stop offset="1" style="stop-color:#4C4C4C;stop-opacity:0.3"/>
	</linearGradient>
	<polygon class="st1_conference-1-39" points="184.4,215.9 219.2,235.1 280.7,197.8 259.1,183 199.2,176.3 &#9;"/>
	
		<linearGradient id="SVGID_00000145039833579687863610000003777889881145606293_-conference-1-39" gradientUnits="userSpaceOnUse" x1="-1405.9023" y1="221.5225" x2="-1387.1123" y2="238.9325" gradientTransform="matrix(-1 0 0 -1 -1306.1599 502)">
		<stop offset="1.000000e-02" style="stop-color:#8383EA"/>
		<stop offset="1" style="stop-color:#4C4C4C;stop-opacity:0.3"/>
	</linearGradient>
	<polyline style="fill:url(#SVGID_00000145039833579687863610000003777889881145606293_);" points="66.1,271.1 100.9,290.3 &#10;&#9;&#9;121.9,279.2 91.7,266.4 &#9;"/>
	
		<linearGradient id="SVGID_00000178179104175637765860000003615680740440769415_-conference-1-39" gradientUnits="userSpaceOnUse" x1="-1478.4445" y1="221.1949" x2="-1460.3745" y2="237.9349" gradientTransform="matrix(-1 0 0 -1 -1306.1599 502)">
		<stop offset="1.000000e-02" style="stop-color:#8383EA"/>
		<stop offset="1" style="stop-color:#4C4C4C;stop-opacity:0.3"/>
	</linearGradient>
	<polyline style="fill:url(#SVGID_00000178179104175637765860000003615680740440769415_);" points="139.6,272.2 172.9,290.3 &#10;&#9;&#9;194,279.2 157.7,263.1 &#9;"/>
	
		<linearGradient id="SVGID_00000097479862471170292350000016315859041892284331_-conference-1-39" gradientUnits="userSpaceOnUse" x1="-1680.2689" y1="241.5888" x2="-1661.4789" y2="258.9888" gradientTransform="matrix(-1 0 0 -1 -1306.1599 502)">
		<stop offset="1.000000e-02" style="stop-color:#8383EA"/>
		<stop offset="1" style="stop-color:#4C4C4C;stop-opacity:0.3"/>
	</linearGradient>
	<polyline style="fill:url(#SVGID_00000097479862471170292350000016315859041892284331_);" points="340.5,251.1 375.2,270.2 &#10;&#9;&#9;396.3,259.2 364.5,239.5 &#9;"/>
	
		<linearGradient id="SVGID_00000165937271656898908800000014766503272742082723_-conference-1-39" gradientUnits="userSpaceOnUse" x1="-1558.0189" y1="178.3188" x2="-1539.2289" y2="195.7188" gradientTransform="matrix(-1 0 0 -1 -1306.1599 502)">
		<stop offset="1.000000e-02" style="stop-color:#8383EA"/>
		<stop offset="1" style="stop-color:#4C4C4C;stop-opacity:0.3"/>
	</linearGradient>
	<polyline style="fill:url(#SVGID_00000165937271656898908800000014766503272742082723_);" points="218.2,314.4 253,333.5 &#10;&#9;&#9;274.1,322.4 234.1,304.8 &#9;"/>
	
		<linearGradient id="SVGID_00000008860274926392623890000010736275665971397052_-conference-1-39" gradientUnits="userSpaceOnUse" x1="-1506.1224" y1="144.2526" x2="-1485.3524" y2="163.4926" gradientTransform="matrix(-1 0 0 -1 -1306.1599 502)">
		<stop offset="1.000000e-02" style="stop-color:#8383EA"/>
		<stop offset="1" style="stop-color:#4C4C4C;stop-opacity:0.3"/>
	</linearGradient>
	<polyline style="fill:url(#SVGID_00000008860274926392623890000010736275665971397052_);" points="164,346.1 202.2,368.8 &#10;&#9;&#9;223.3,357.7 180.1,338.5 &#9;"/>
	
		<linearGradient id="SVGID_00000137825154713164417430000008729977634207300519_-conference-1-39" gradientUnits="userSpaceOnUse" x1="-1558.6034" y1="115.4137" x2="-1539.2034" y2="133.3937" gradientTransform="matrix(-1 0 0 -1 -1306.1599 502)">
		<stop offset="1.000000e-02" style="stop-color:#8383EA"/>
		<stop offset="1" style="stop-color:#4C4C4C;stop-opacity:0.3"/>
	</linearGradient>
	<polyline style="fill:url(#SVGID_00000137825154713164417430000008729977634207300519_);" points="217.4,377.3 254.6,396 &#10;&#9;&#9;275.7,384.9 232.9,364.1 &#9;"/>
	
		<linearGradient id="SVGID_00000008119931402833476550000016895923405205984922_-conference-1-39" gradientUnits="userSpaceOnUse" x1="-1613.4998" y1="147.0598" x2="-1594.7197" y2="164.4598" gradientTransform="matrix(-1 0 0 -1 -1306.1599 502)">
		<stop offset="1.000000e-02" style="stop-color:#8383EA"/>
		<stop offset="1" style="stop-color:#4C4C4C;stop-opacity:0.3"/>
	</linearGradient>
	<polyline style="fill:url(#SVGID_00000008119931402833476550000016895923405205984922_);" points="273.7,345.6 306.5,365.8 &#10;&#9;&#9;329.6,353.7 289.1,336.8 &#9;"/>
	
		<linearGradient id="SVGID_00000154389411294799825880000002131694503439419040_-conference-1-39" gradientUnits="userSpaceOnUse" x1="-1669.5048" y1="177.7652" x2="-1650.7247" y2="195.1651" gradientTransform="matrix(-1 0 0 -1 -1306.1599 502)">
		<stop offset="1.000000e-02" style="stop-color:#8383EA"/>
		<stop offset="1" style="stop-color:#4C4C4C;stop-opacity:0.3"/>
	</linearGradient>
	<polyline style="fill:url(#SVGID_00000154389411294799825880000002131694503439419040_);" points="329.7,314.9 364.5,334.1 &#10;&#9;&#9;385.6,323 352.4,310.1 &#9;"/>
	
		<linearGradient id="SVGID_00000044157795745348116630000006805803902897695406_-conference-1-39" gradientUnits="userSpaceOnUse" x1="425.944" y1="210.4751" x2="406.334" y2="225.7751" gradientTransform="matrix(1 0 0 -1 0 502)">
		<stop offset="1.000000e-02" style="stop-color:#8383EA"/>
		<stop offset="1" style="stop-color:#4C4C4C;stop-opacity:0.3"/>
	</linearGradient>
	<polyline style="fill:url(#SVGID_00000044157795745348116630000006805803902897695406_);" points="388.6,278.7 423.5,299.3 &#10;&#9;&#9;443.2,288.6 401.2,266.3 &#9;"/>
</g>
<g id="plant_conference-1-39">
	<path class="st11_conference-1-39" d="M77.2,235.6L77.2,235.6c0.8,0.2,1.3,1.1,1.1,1.9l-8.2,32.1c-0.2,0.8-1.1,1.3-1.9,1.1h0&#10;&#9;&#9;c-0.8-0.2-1.3-1.1-1.1-1.9l8.2-32.1C75.5,235.9,76.3,235.4,77.2,235.6z"/>
	<path class="st11_conference-1-39" d="M80.5,239.7L80.5,239.7c0.9,0,1.6,0.7,1.6,1.6v33.1c0,0.9-0.7,1.6-1.6,1.6h0c-0.9,0-1.6-0.7-1.6-1.6v-33.1&#10;&#9;&#9;C79,240.4,79.7,239.7,80.5,239.7z"/>
	<path class="st11_conference-1-39" d="M85.1,236.8L85.1,236.8c0.8-0.2,1.7,0.3,1.9,1.2l7.3,32.4c0.2,0.8-0.3,1.7-1.2,1.9l0,0&#10;&#9;&#9;c-0.8,0.2-1.7-0.3-1.9-1.2l-7.3-32.4C83.7,237.8,84.3,237,85.1,236.8z"/>
	<ellipse class="st12_conference-1-39" cx="80.7" cy="243.8" rx="13.3" ry="7.5"/>
	<polyline class="st12_conference-1-39" points="67.4,243.8 67.4,240.3 94,240.3 94,243.8 &#9;"/>
	<ellipse class="st13_conference-1-39" cx="80.7" cy="240.3" rx="13.3" ry="7.5"/>
	<path class="st14_conference-1-39 targetColor" d="M76.2,221.1c-0.4,0.2-0.6,0.9-0.7,1.3c-0.2,0.6-0.5,1.3-0.7,1.9c-1.9,4.5-3.4,9.1-4.5,13.9&#10;&#9;&#9;c-0.2,1.1-0.5,2,0.4,2.8c1.6,1.5,4.2,2.1,6.3,2.4c4.3,0.8,8.6,0.2,12.6-1.6c1.3-0.6,2-2.2,1.6-3.6c-1.8-5.2-5.9-17.4-6.6-17.5&#10;&#9;&#9;C83.6,220.6,80.6,219,76.2,221.1z" style="fill: rgb(176, 176, 176);"/>
	<ellipse class="st12_conference-1-39" cx="80.4" cy="221.5" rx="4.7" ry="1.7"/>
	<path class="st15_conference-1-39" d="M78.3,221.1c-0.5-1.3-1-2.5-1.7-3.7h0.1c1.1-0.4,0.8-2.3,0.6-3.2c0-0.2-0.2-0.3-0.4-0.3&#10;&#9;&#9;c-0.1,0-0.2,0.1-0.2,0.2c-0.4,0.6-0.6,1.3-0.8,2c-0.1-0.2-0.3-0.4-0.4-0.6l0,0c0.1-0.3,0.2-0.6,0.3-0.9s0.1-0.3,0.1-0.4&#10;&#9;&#9;c0.2-0.8,0.3-1.6,0.3-2.4c0-0.1,0-0.1,0-0.2c-0.1-0.2-0.3-0.2-0.4-0.2c-0.5,0.1-0.8,0.8-0.9,1.3c-0.1,0.5-0.2,1-0.2,1.5&#10;&#9;&#9;c-0.3-0.4-0.7-0.9-1-1.3l0,0c0.3-1,0.9-2.6,0.1-3.5c-0.1-0.1-0.2-0.1-0.3-0.1c-0.5,0.1-0.6,0.6-0.6,1.1c0,0.6,0,1.1,0.1,1.7&#10;&#9;&#9;c-0.5-0.6-1-1.2-1.6-1.7c-0.3-0.3-0.8,0.2-0.5,0.5s0.6,0.6,0.8,0.9c-0.8-0.2-1.5-0.2-1.7,0.4c-0.5,1.4,2.3,1.2,3.1,1.1l0.6,0.8&#10;&#9;&#9;c-0.3,0-0.5,0-0.7,0.1c-0.4,0.2-0.6,0.6-0.4,1c0.1,0.1,0.1,0.2,0.3,0.3c0.3,0.2,0.7,0.2,1,0.2h1.1c0.2,0.3,0.4,0.6,0.6,0.9&#10;&#9;&#9;c-0.5-0.2-1-0.1-1.4,0.1c-0.4,0.2-0.5,0.7-0.3,1c0,0.1,0.1,0.1,0.2,0.2c0.5,0.4,1.6,0.2,2.2,0.1h0.1c0.6,1.1,1.1,2.2,1.5,3.4&#10;&#9;&#9;C77.8,221.8,78.5,221.6,78.3,221.1z"/>
	<path class="st15_conference-1-39" d="M71.6,210.9c0,0-0.3-3.7-3.3-3.7C68.3,207.2,67.4,210.7,71.6,210.9z"/>
	<path class="st15_conference-1-39" d="M82,221c0.5-1.4,1.1-2.7,1.8-4h-0.1c-1.2-0.4-0.9-2.5-0.7-3.4c0.1-0.2,0.3-0.3,0.5-0.2c0.1,0,0.2,0.1,0.2,0.2&#10;&#9;&#9;c0.4,0.7,0.7,1.4,0.8,2.1L85,215l0,0c-0.1-0.3-0.2-0.6-0.3-0.9c0-0.1-0.1-0.3-0.1-0.4c-0.2-0.8-0.4-1.7-0.3-2.6&#10;&#9;&#9;c0-0.1,0-0.1,0.1-0.2c0.1-0.2,0.3-0.3,0.4-0.2c0.6,0.1,0.8,0.9,0.9,1.4c0.1,0.5,0.2,1.1,0.2,1.6c0.3-0.5,0.7-0.9,1.1-1.4v-0.1&#10;&#9;&#9;c-0.3-1.1-0.9-2.7-0.2-3.7c0.1-0.1,0.2-0.1,0.4-0.1c0.5,0.1,0.6,0.7,0.7,1.1c0,0.6,0,1.2-0.1,1.8c0.5-0.6,1.1-1.2,1.7-1.8&#10;&#9;&#9;c0.3-0.3,0.9,0.2,0.5,0.5s-0.6,0.6-0.9,0.9c0.8-0.2,1.6-0.2,1.8,0.5c0.6,1.5-2.5,1.3-3.3,1.2c-0.2,0.3-0.4,0.5-0.6,0.8&#10;&#9;&#9;c0.3,0,0.5,0,0.8,0.2c0.4,0.2,0.6,0.6,0.5,1c-0.1,0.1-0.2,0.3-0.3,0.4c-0.3,0.2-0.7,0.2-1,0.2h-1.3l-0.6,0.9c0.5-0.2,1-0.1,1.5,0.1&#10;&#9;&#9;c0.4,0.2,0.5,0.7,0.3,1.1c0,0.1-0.1,0.2-0.2,0.2c-0.6,0.5-1.7,0.2-2.3,0.2h-0.2c-0.6,1.2-1.1,2.4-1.6,3.6&#10;&#9;&#9;C82.5,221.7,81.8,221.5,82,221z"/>
	<path class="st15_conference-1-39" d="M89.1,210.2c0,0,0.3-3.9,3.5-4C92.6,206.2,93.5,209.9,89.1,210.2z"/>
	<path class="st15_conference-1-39" d="M80,220.7c0.3-1.7,0.5-3.4,0.6-5.1h0.1c1.4,0.3,2.4-2,2.7-3.1c0.1-0.2-0.1-0.5-0.3-0.5c-0.1,0-0.2,0-0.3,0&#10;&#9;&#9;c-0.8,0.5-1.5,1-2.1,1.7c0-0.3,0-0.6,0-0.9l0,0c0.3-0.2,0.6-0.5,0.8-0.7c0.1-0.1,0.3-0.2,0.4-0.4c0.8-0.7,1.4-1.6,1.9-2.5&#10;&#9;&#9;c0-0.1,0-0.1,0-0.2c0-0.2-0.1-0.4-0.3-0.5c-0.6-0.2-1.4,0.4-1.8,0.8c-0.5,0.4-0.9,0.9-1.2,1.5c-0.1-0.7-0.1-1.4-0.2-2.1l0,0&#10;&#9;&#9;c1-0.9,2.6-2.2,2.4-3.7c0-0.2-0.2-0.3-0.3-0.3c-0.6-0.2-1,0.3-1.3,0.8c-0.4,0.6-0.7,1.2-1,1.9c-0.2-1-0.4-1.9-0.7-2.9&#10;&#9;&#9;c-0.1-0.2-0.3-0.4-0.6-0.3c-0.2,0.1-0.4,0.3-0.3,0.5c0.1,0.5,0.3,1,0.4,1.5c-0.7-0.7-1.5-1.2-2.2-0.6c-1.5,1.2,1.7,2.8,2.7,3.2&#10;&#9;&#9;c0.1,0.4,0.1,0.8,0.2,1.2c-0.3-0.2-0.6-0.3-0.9-0.3c-0.7,0-1.4,0.6-1,1.3c0.2,0.4,0.6,0.6,1,0.8l1.2,0.7c0,0.4,0,0.9,0,1.3&#10;&#9;&#9;c-0.4-0.5-1-0.8-1.6-0.8c-0.6,0-1,0.5-0.9,1.1c0,0.1,0,0.2,0,0.2c0.3,0.8,1.6,1.2,2.3,1.6h0.2c-0.1,1.6-0.2,3.1-0.5,4.7&#10;&#9;&#9;C79.1,221,79.9,221.3,80,220.7z"/>
	<path class="st15_conference-1-39" d="M79.2,205.3c0,0,2-4.2-1.2-6.2C78,199.1,74.8,202.4,79.2,205.3z"/>
</g>
<g id="audiences_conference-1-39">
	<path class="st11_conference-1-39" d="M166.7,332.5c0,0.4,0.3,5.5-0.2,6s-2,3.4-3.9,3.6s-3.5-0.2-3.9,1.7s10.4,2.6,10.4,2.6s1.1-4.5,1.6-4.4&#10;&#9;&#9;s0.5,5,0.5,5l2,0.4l2-1.3l-0.8-8.6l-1.3-7.3"/>
	<path class="st16_conference-1-39" d="M372.3,184.7l5.9-2.4l0.6,5.6l-6.2,1.1C372.4,187.6,372.3,186.1,372.3,184.7z"/>
	<path class="st12_conference-1-39" d="M285.1,276.1c0.5,0,2-0.1,2.6-0.1c1.8,1.2,3.9,1.9,6,2c2.6,0.4,5.3-0.2,7.4-1.7c0.2,2.2,0.5,4,0.5,4&#10;&#9;&#9;c0.2,3.1-3.8,2.5-5.3,2.4c-3-0.2-5.9-0.6-8.8-1.3c-1.1-0.3-4.8-0.9-5-2.7S283,276.4,285.1,276.1z"/>
	<path class="st16_conference-1-39" d="M292.1,265.1c0,0,2.3,10.8,1.2,10.8s-8.2,0.2-8.2,0.2c1.3,2.7,3.9,4.6,6.9,4.9c5.3,0.8,9.1-4.6,9.1-4.6&#10;&#9;&#9;l-2.1-13.5"/>
	<path class="st17_conference-1-39" d="M302.1,260.1l1.6,8.6c0,0-2.5,2.5-10.8,2.2s0-15.2,0-15.2"/>
	<path class="st15_conference-1-39" d="M306.9,239.3c0,0-9.3-7.4-15.5-8.3s-9.4,5.8-9,10.3s15.2,6.9,15.2,6.9"/>
	<path class="st12_conference-1-39" d="M276.5,282.5c0.5-0.1,2-0.1,2.6-0.1c1.8,1.2,3.9,1.9,6,2c2.6,0.4,5.3-0.2,7.4-1.7c0.3,2.2,0.5,4,0.5,4&#10;&#9;&#9;c0.3,3.1-3.8,2.5-5.3,2.4c-3-0.2-5.9-0.6-8.8-1.3c-1.1-0.3-4.8-0.9-5-2.7S274.3,282.8,276.5,282.5z"/>
	<path class="st16_conference-1-39" d="M283.4,271.5c0,0,2.3,10.8,1.2,10.8s-8.2,0.2-8.2,0.2c1.3,2.7,3.9,4.5,6.9,4.9c5.3,0.8,9.1-4.6,9.1-4.6&#10;&#9;&#9;l-2.1-13.5"/>
	<path class="st15_conference-1-39" d="M306.3,239.6c0,0-9.3-7.4-15.5-8.3s-9.4,5.8-9,10.3s15.2,6.9,15.2,6.9"/>
	<path class="st17_conference-1-39" d="M301.4,242.1c-1.2-1.1-17-8.5-22.5-5.1s-5.2,5.9-4.5,9.9s6.1,26.1,6.1,26.1c4,1.5,8.5,1.8,12.6,0.6l-1.6-16.4&#10;&#9;&#9;l21-11.5"/>
	<polygon class="st12_conference-1-39" points="301.3,240.4 296.3,244.2 275,233.2 289.2,223.1 309.1,234.4 &#9;"/>
	<path class="st12_conference-1-39" d="M353.8,236.5l1.2,5.8c-1.6-0.3-3.3-0.5-5-0.5c-1.3,0.2-2.9,2.5-1.3,4s4.4,1.4,7.1,2s3.2,0.8,4.9,0.3&#10;&#9;&#9;s2-2.9,2-2.9l-1.4-10"/>
	<path class="st18_conference-1-39" d="M362.9,230.9l1.6,8.6c0,0-2.5,2.5-10.8,2.2s-6.3-17.3-6.3-17.3"/>
	<ellipse class="st13_conference-1-39" cx="373.7" cy="250.9" rx="11.9" ry="4.4"/>
	<polyline class="st13_conference-1-39" points="375.7,231.2 375.2,249 371.7,249 371.7,231.2 &#9;"/>
	<path class="st12_conference-1-39" d="M344.1,241.2l1.2,5.7c-1.6-0.3-3.3-0.5-5-0.5c-1.3,0.2-2.9,2.5-1.3,4s4.4,1.4,7.1,2s3.2,0.8,4.9,0.3&#10;&#9;&#9;s2-2.9,2-2.9l-1.4-10"/>
	<path class="st18_conference-1-39" d="M367.8,210.1c0,0-9.3-7.5-15.5-8.3s-9.4,5.8-8.9,10.3s15.2,6.9,15.2,6.9"/>
	<path class="st18_conference-1-39" d="M370.2,213.6c-1.2-1.1-21.8-7.3-27.3-3.9s-5.9,5.7-5.2,9.8s4.2,24.1,4.2,24.1s2.7,2.4,10,0.5l-3.9-22.5&#10;&#9;&#9;l23.7,5.6"/>
	<path class="st17_conference-1-39" d="M374.4,186.5c-1.2,0.2-2.5,0.5-3.7,0.9c-2.1,0.6-4.9,1.5-5.9,3.7c-1.5,3.3-3.8,20.4-3.8,20.4&#10;&#9;&#9;s4.3,6.4,11.8,4.1c2.2-0.7,13.7-21.7,14-23.9c0.4-2.7-2.5-3.9-4.6-4.5c-1.3-0.4-2.6-0.6-4-0.7C376.9,186.3,375.6,186.3,374.4,186.5&#10;&#9;&#9;z"/>
	<path class="st14_conference-1-39 targetColor" d="M388.5,223.2c0.4-0.9,0.7-1.8,0.9-2.7c1.8-6.9,2.9-32.9-8.8-31.8c-12.8,1.2-8.5,33.2-21.5,32.2&#10;&#9;&#9;s-18.3,2.4-13,7.4C356.8,238.4,382,238.6,388.5,223.2z" style="fill: rgb(176, 176, 176);"/>
	<path class="st16_conference-1-39" d="M368.4,175.7c-0.1,0.5,0.3,8.2,2.4,9.8s7.4-1.4,7.5-3.2s-0.1-7.2-2.1-8.1S369,172.2,368.4,175.7z"/>
	<path class="st12_conference-1-39" d="M367.3,172c0.7-1.2,2.2-1.8,3.5-1.4c0.1,0,0.1,0,0.2,0.1c0.4-0.9,1-1.6,1.9-1.9c1-0.4,2.1-0.2,2.9,0.6&#10;&#9;&#9;c0.8-0.7,1.9-1,3-0.7c1,0.3,1.7,1.2,1.8,2.3c1,0,1.9,0.4,2.4,1.2c0.4,0.7,0.5,1.5,0.3,2.3c0.8,0.6,1.3,1.4,1.4,2.4&#10;&#9;&#9;c0.2,1-0.2,2-1,2.7c0.2,0.8,0,1.7-0.5,2.4c-0.4,0.5-0.9,0.8-1.5,1c-0.2,0.5-0.5,0.9-0.9,1.1c-0.4,0.3-0.9,0.4-1.4,0.3&#10;&#9;&#9;c-0.4,0.6-1,1-1.7,1.2c-1.7,0.3-4,0.4-4.2,0.1s1.1-4.5-0.1-4.8s-3.7-0.9-3.7-3.8c-1,0-1.9-0.5-2.4-1.3&#10;&#9;&#9;C366.5,174.6,366.5,173.1,367.3,172z"/>
	<path class="st16_conference-1-39" d="M337.7,201.9c0-0.3,0.3-0.5,0.6-0.5c0,0,0.1,0,0.1,0l0.8,0.3c-0.2-0.1-0.3-0.3-0.3-0.5c0-0.2,0-0.5,0.2-0.7&#10;&#9;&#9;c0.1-0.2,0.4-0.3,0.6-0.2l3.3,1.1c-0.6-0.4-1.7-1.1-0.8-1.8c0.7-0.6,1.9,0.4,2.5,0.7c1.3,0.6,2.5,1.3,3.6,2.1&#10;&#9;&#9;c0.1,0.1,0.2,0.2,0.2,0.3h0.4h0.7c-0.1,0.8-0.2,1.6-0.2,2.3c0,0.1,0,0.3-0.1,0.4c-0.1,0.3-0.4,0.8,0,0.2c-0.3,0.5-0.4,1-0.3,1.6&#10;&#9;&#9;c-1.6,0.2-3.2,0.1-4.6-0.4c-1-0.3-3.3-0.1-3.3-1.6c-0.8-0.2-1.4-0.7-1.9-1.4c0-0.1-0.1-0.1-0.1-0.2c-0.7-0.3-1.4-0.7-1.5-1.4&#10;&#9;&#9;C337.7,202.1,337.7,202,337.7,201.9z"/>
	<path class="st12_conference-1-39" d="M339.8,200.7c-0.2-0.1-0.1-0.4,0.1-0.4c1.4,0.5,2.8,1,4.2,1.6c0.2,0.1,0.1,0.4-0.1,0.4&#10;&#9;&#9;C342.5,201.7,341.1,201.2,339.8,200.7z"/>
	<path class="st12_conference-1-39" d="M338.3,201.8c-0.1,0-0.1-0.2-0.1-0.3c0-0.1,0.1-0.1,0.2-0.1l5.7,1.8c0.1,0,0.1,0.2,0.1,0.3&#10;&#9;&#9;c0,0.1-0.1,0.1-0.2,0.1L338.3,201.8z"/>
	<path class="st12_conference-1-39" d="M339.5,203.4l4.4,1.2c0.1,0,0.1,0.2,0.1,0.3c0,0.1-0.1,0.1-0.2,0.1l-4.4-1.2&#10;&#9;&#9;C339.1,203.7,339.2,203.4,339.5,203.4z"/>
	<path class="st12_conference-1-39" d="M341.2,205.1c1.1,0.3,2.2,0.5,3.3,0.7c0.2,0,0.1,0.4-0.1,0.4c-1.1-0.2-2.2-0.4-3.3-0.7&#10;&#9;&#9;C340.9,205.4,341,205.1,341.2,205.1z"/>
	<path class="st19_conference-1-39" d="M322.5,228.2c0,0,0.3-12.5-5.4-12.7s-13.1,3.9-13.6,10.5s-1.5,19-1.5,21.3s4.2,10.9,4.2,10.9"/>
	<path class="st11_conference-1-39" d="M230.1,295.3c0,0.4,0.3,5.5-0.2,6s-2,3.4-3.9,3.6s-3.5-0.2-3.9,1.7s10.4,2.6,10.4,2.6s1.1-4.5,1.6-4.4&#10;&#9;&#9;s0.5,5,0.5,5l2,0.4l2-1.3l-0.8-8.6l-1.3-7.3"/>
	<path class="st11_conference-1-39" d="M222.1,302.5c0.3,3,0.1,7.1-2.8,9c-1.6,1-4.9,0.1-5.3,2.3c-0.4,2,10.3,2.7,10.3,2.7s1.2-4.5,1.6-4.3&#10;&#9;&#9;s0.4,4.9,0.4,4.9l2,0.4l2-1.3l-0.8-8.6l-1.2-7.3"/>
	<path class="st16_conference-1-39" d="M226.8,247.3l-1.4-1.9c-0.3-0.5-0.2-1.2,0.3-1.5c0.2-0.1,0.5-0.2,0.7-0.2c-0.3-0.5-0.5-1.1-0.7-1.6&#10;&#9;&#9;c-0.1-0.6,0.3-1.1,0.9-1.2c0.3,0,0.7,0.1,0.9,0.3l2.4,3.1l-1.2-2.1c-0.7-1.2,1.2-2.1,1.9-0.9l2,3.5c0-0.3,0-0.7,0-1&#10;&#9;&#9;c0-0.9,0.2-2.1,1.4-2.1c0.6-0.1,1.1,0.3,1.2,0.9c0.2,0.8,0.2,1.6-0.1,2.4c-0.2,0.8-0.7,2-0.2,2.8c0.8,1.2,1.6,2.5,2.4,3.7&#10;&#9;&#9;c0.4,0.5,0.3,1.1-0.2,1.5c-0.1,0.1-0.3,0.2-0.5,0.2c-0.1,0.6-0.6,1-1.2,1c-0.1,0-0.2,0-0.2-0.1c-0.2,0.1-0.5,0.2-0.7,0.1&#10;&#9;&#9;c-0.3,0.4-0.8,0.5-1.2,0.3c-0.2,0.5-0.7,0.8-1.2,0.7c-0.2-0.1-0.4-0.2-0.5-0.4c-1.7-2-3.9-3.5-5.5-5.7c-0.3-0.5-0.2-1.2,0.3-1.6&#10;&#9;&#9;C226.4,247.4,226.6,247.3,226.8,247.3z"/>
	<path class="st17_conference-1-39" d="M249.6,261.2c-0.8,2.4-2.9,4-5.4,4.2c-4.3,0.2-12.4-8.8-12.4-8.8s-0.2-8.1,3.3-9.4c0,0,5.9,5.1,6.7,5.1&#10;&#9;&#9;s5.6-4.4,5.6-4.4"/>
	<path class="st16_conference-1-39" d="M224.9,248c-0.4-0.7-0.7-1.4-1.1-2.1c-0.3-0.5,0-1.2,0.5-1.5c0.3-0.1,0.5-0.1,0.8-0.1&#10;&#9;&#9;c-0.2-0.6-0.3-1.1-0.4-1.7c0-0.6,0.4-1.1,1-1.1c0.4,0,0.8,0.2,1,0.6c0.6,1.2,1.2,2.3,1.8,3.5l-0.8-2.2c-0.5-1.3,1.6-1.8,2-0.6&#10;&#9;&#9;s0.9,2.5,1.4,3.8c0.1-0.3,0.1-0.7,0.2-1c0.2-0.9,0.5-2,1.7-1.9c0.5,0.1,0.9,0.5,1,1c0,0.8-0.1,1.6-0.4,2.3&#10;&#9;&#9;c-0.3,0.8-1.1,1.8-0.7,2.7l1.7,4.1c0.3,0.5,0.2,1.1-0.3,1.4c-0.2,0.1-0.5,0.2-0.7,0.2c-0.2,0.6-0.8,0.9-1.3,0.7&#10;&#9;&#9;c-0.1,0-0.2-0.1-0.2-0.1c-0.2,0.1-0.5,0.1-0.7,0c-0.3,0.3-0.9,0.3-1.2,0.1c-0.2,0.5-0.8,0.7-1.3,0.4c-0.2-0.1-0.4-0.3-0.4-0.4&#10;&#9;&#9;c-1.3-2.3-3.3-4.2-4.4-6.6c-0.2-0.6,0.1-1.2,0.7-1.4C224.6,248,224.7,248,224.9,248z"/>
	<path class="st18_conference-1-39" d="M239.6,291.4l1.6,8.6c0,0-2.5,2.5-10.8,2.2s0-15.2,0-15.2"/>
	<ellipse class="st13_conference-1-39" cx="250.4" cy="311.4" rx="11.9" ry="4.4"/>
	<polyline class="st13_conference-1-39" points="252.4,291.7 251.9,309.4 248.4,309.4 248.4,291.7 &#9;"/>
	<path class="st18_conference-1-39" d="M244.5,270.6c0,0-9.3-7.5-15.4-8.3s-9.4,5.8-9,10.3s15.2,6.9,15.2,6.9"/>
	<path class="st18_conference-1-39" d="M239.5,273.1c-1.2-1.1-17-8.5-22.5-5.1s-5.2,5.8-4.5,9.9s6.1,26.1,6.1,26.1c4,1.6,8.5,1.8,12.6,0.6l-1.6-16.4&#10;&#9;&#9;l21-11.5"/>
	<path class="st17_conference-1-39" d="M251,246.7c-0.8,0.6-8,1.5-9.5,4.8s-3.8,20.4-3.8,20.4s4.3,6.4,11.8,4.1c2.2-0.7,13.7-21.7,14-23.9&#10;&#9;&#9;C264.3,246.5,251,246.7,251,246.7z"/>
	<path class="st14_conference-1-39 targetColor" d="M265.2,283.7c0.4-0.9,0.7-1.8,0.9-2.7c1.8-6.9,2.9-32.9-8.8-31.8c-12.8,1.2-8.5,33.2-21.5,32.3&#10;&#9;&#9;s-18.3,2.4-13,7.4C233.5,298.9,258.7,299.1,265.2,283.7z" style="fill: rgb(176, 176, 176);"/>
	<path class="st16_conference-1-39" d="M246.4,237.8c-0.1,0.5-1,8,1.2,9.6s7.1-2.3,7.3-4.2s1.8-6.1-0.3-7.1S247,234.1,246.4,237.8z"/>
	<path class="st17_conference-1-39" d="M244.5,266.1c-1.2,2.2-3.6,3.4-6.1,3c-4.2-0.6-10.5-11-10.5-11s1.3-7.9,5.1-8.6c0,0,4.8,6.1,5.6,6.3&#10;&#9;&#9;s2.9-4.3,2.9-4.3"/>
	<path class="st12_conference-1-39" d="M246.9,250.1c1-0.6,2.3-1.1,2-2.5c-0.2-1.1-1.4-1.9-1.4-3.1c0-1.1,0.4-2.2,1.2-3.1c0.5-0.5,1.1-0.8,0.8-1.6&#10;&#9;&#9;c-0.3-0.5-0.7-1-1.2-1.2l-2.4,0.1c-0.9-2.6,0.2-5.5,2.7-6.7c2.8-1.6,7.5-1.2,9.8,1.1c0.6,0.7,1.2,1.4,1.6,2.2c0.5,1,1.2,2,2.1,2.7&#10;&#9;&#9;c1,0.6,1.6,1.6,1.8,2.7c0.1,1.1-0.2,2.1-0.8,3c-0.6,1.2,0.4,2,1.1,2.8c0.9,0.8,1.4,1.8,1.6,3c0.1,2.5-2.3,3.6-4.4,4s-3.9,0.7-5.9,1&#10;&#9;&#9;c-2.5,0.4-4.9,1.3-7.4,0.6c-0.7-0.2-1.3-0.5-1.8-0.9c-1-1.1-1-2.8,0-3.8c0.1-0.1,0.1-0.1,0.2-0.2&#10;&#9;&#9;C246.7,250.3,246.8,250.2,246.9,250.1z"/>
	<path class="st16_conference-1-39" d="M285.5,228.5l-0.1-0.1c-0.9-0.6-0.1-2,0.8-1.4l0.2,0.1c0-0.5,0.4-0.8,0.8-0.8c0.1,0,0.3,0,0.4,0.1&#10;&#9;&#9;c0.9,0.5,1.9,0.9,2.8,1.4l-0.4-0.4c-0.5-0.7,0.1-1.8,1-1.3c1.1,0.7,2.2,1.4,3.3,2.2c0.4,0.3,0.5,0.8,0.2,1.2c0,0,0,0,0,0l0.2,0.1&#10;&#9;&#9;c0.3,0.3,0.4,0.7,0.2,1.1c0.1,0.3,0,0.5-0.1,0.8c0.5,0.4,0.2,1.1-0.3,1.3c0,0,0,0.1-0.1,0.1l1,0.3c1,0.3,0.6,1.9-0.4,1.6l-5-1.7&#10;&#9;&#9;c-1.3-0.3-2.5-1-3.5-1.9c-0.2-0.2-0.3-0.6-0.1-0.9c-0.4-0.2-0.7-0.4-1-0.7c-0.3-0.3-0.4-0.7-0.1-1&#10;&#9;&#9;C285.4,228.6,285.4,228.5,285.5,228.5z"/>
	<path class="st19_conference-1-39" d="M305.8,231.6c0,0-8.9-3.6-11.6-4.4c0,0-2.8,1.9-2,7c0,0,8,8.2,13,10.7"/>
	<path class="st14_conference-1-39 targetColor" d="M312.7,213.7c-0.2-0.3-0.2-0.8,0.1-1.1c0.4-0.5,0.8-0.9,1.4-1.1c0.7-0.2,1.3,0.2,1.5,0.8c0,0,0,0.1,0,0.1&#10;&#9;&#9;c0.1,1.1-0.7,2.2-1.8,2.3c-0.2,0-0.4,0-0.7,0C312.8,214.6,312.6,214.2,312.7,213.7L312.7,213.7z" style="fill: rgb(176, 176, 176);"/>
	<ellipse class="st13_conference-1-39" cx="311.4" cy="283.7" rx="11.9" ry="4.4"/>
	<polyline class="st13_conference-1-39" points="313.4,264 312.9,281.7 309.4,281.7 309.4,264 &#9;"/>
	<path class="st14_conference-1-39 targetColor" d="M327.6,254c0.4-0.9,0.7-1.8,0.9-2.7c1.8-6.9,2.9-32.9-8.8-31.8c-12.8,1.2-8.5,33.2-21.5,32.2&#10;&#9;&#9;s-18.3,2.4-13,7.4C295.9,269.2,321.1,269.5,327.6,254z" style="fill: rgb(176, 176, 176);"/>
	<path class="st16_conference-1-39" d="M310.8,204.4c0,0-4.3,9-1.5,11.6c2,1.9,5.9,1.7,8-1.7S314.7,202.8,310.8,204.4z"/>
	<path class="st12_conference-1-39" d="M315,213c-2.3-2.1-3.7-4.9-4.2-7.9c-0.5-4.8,10.1-3.1,11.9,1.6s-0.8,11.4-8,10.5L315,213z"/>
	<path class="st12_conference-1-39" d="M319.9,213.6c0.7,0.6,19.3,19.6,9.7,26c-8,5.3-11.1-22.5-11.1-24.6"/>
	<path class="st17_conference-1-39" d="M364.8,191c0,0-5.8,12.4-7.5,12.8s-8.7-3.1-9.9-2.1s-3.2,4.8-1.9,6.6s13.8,5.8,17.4,4.3s9.2-14.1,8.9-17&#10;&#9;&#9;S367.6,188.1,364.8,191z"/>
	<path class="st13_conference-1-39" d="M335.9,305.9c0.5,0,2-0.1,2.6-0.1c1.8,1.2,3.9,1.9,6,2c2.6,0.4,5.3-0.2,7.4-1.7c0.2,2.2,0.5,4,0.5,4&#10;&#9;&#9;c0.2,3.1-3.8,2.5-5.3,2.4c-3-0.2-5.9-0.6-8.8-1.3c-1.1-0.3-4.8-0.9-5-2.7S333.7,306.2,335.9,305.9z"/>
	<path class="st16_conference-1-39" d="M342.9,294.9c0,0,2.3,10.8,1.2,10.8s-8.2,0.2-8.2,0.2c1.3,2.7,3.9,4.6,6.9,4.9c5.3,0.8,9.1-4.6,9.1-4.6&#10;&#9;&#9;l-2.1-13.5"/>
	<path class="st17_conference-1-39" d="M352.8,289.9l1.6,8.6c0,0-2.5,2.5-10.8,2.2s0-15.2,0-15.2"/>
	<path class="st15_conference-1-39" d="M357.7,269.1c0,0-9.3-7.5-15.5-8.3s-9.4,5.8-9,10.3s15.2,6.9,15.2,6.9"/>
	<path class="st13_conference-1-39" d="M327.3,309.6c0.5-0.1,2-0.1,2.6-0.1c1.8,1.2,3.9,1.9,6,2c2.6,0.4,5.3-0.2,7.4-1.7c0.2,2.2,0.5,4,0.5,4&#10;&#9;&#9;c0.2,3.1-3.8,2.5-5.3,2.4c-3-0.2-5.9-0.6-8.8-1.3c-1.1-0.3-4.8-0.9-5-2.7S325.1,309.9,327.3,309.6z"/>
	<path class="st16_conference-1-39" d="M334.2,298.6c0,0,2.3,10.8,1.2,10.8s-8.2,0.2-8.2,0.2c1.3,2.7,3.9,4.5,6.9,4.9c5.3,0.8,9.1-4.6,9.1-4.6&#10;&#9;&#9;l-2.1-13.5"/>
	<path class="st15_conference-1-39" d="M357.1,269.5c0,0-9.3-7.5-15.5-8.3s-9.4,5.8-8.9,10.3s15.2,6.9,15.2,6.9"/>
	<path class="st17_conference-1-39" d="M352.1,271.9c-1.2-1.1-17-8.5-22.5-5.1s-5.2,5.9-4.5,9.9s6.1,26.1,6.1,26.1c4,1.5,8.5,1.8,12.6,0.6l-1.6-16.4&#10;&#9;&#9;l21-11.5"/>
	<polygon class="st12_conference-1-39" points="352,270.2 347,274 325.8,263 340,252.9 359.9,264.2 &#9;"/>
	<path class="st15_conference-1-39" d="M373.2,258.1c0,0,0.3-12.5-5.4-12.7s-13.1,3.9-13.6,10.5s-1.5,19-1.5,21.3s4.2,10.9,4.2,10.9"/>
	<path class="st19_conference-1-39" d="M281,325.2c0,0.4,0.3,5.5-0.2,6s-2,3.4-3.9,3.6s-3.5-0.2-3.9,1.7s10.4,2.6,10.4,2.6s1.1-4.5,1.6-4.4&#10;&#9;&#9;s0.5,5,0.5,5l2,0.4l2-1.3l-0.8-8.6l-1.3-7.3"/>
	<path class="st19_conference-1-39" d="M273,332.5c0.3,3,0.1,7.1-2.8,9c-1.6,1-4.9,0.1-5.3,2.3c-0.4,2,10.4,2.7,10.4,2.7s1.2-4.5,1.6-4.3&#10;&#9;&#9;s0.4,4.9,0.4,4.9l2,0.4l2-1.3l-0.8-8.6l-1.2-7.3"/>
	<path class="st16_conference-1-39" d="M277.7,277.2l-1.4-1.9c-0.3-0.5-0.2-1.2,0.3-1.5c0.2-0.1,0.5-0.2,0.7-0.2c-0.3-0.5-0.5-1.1-0.7-1.6&#10;&#9;&#9;c-0.1-0.6,0.3-1.1,0.9-1.2c0.3,0,0.7,0.1,0.9,0.3c0.8,1,1.6,2.1,2.4,3.1l-1.2-2.1c-0.7-1.2,1.2-2.1,1.9-0.9l2,3.5c0-0.3,0-0.7,0-1&#10;&#9;&#9;c0-0.9,0.2-2.1,1.4-2.1c0.6-0.1,1.1,0.3,1.2,0.9c0.2,0.8,0.2,1.6,0,2.4c-0.2,0.8-0.7,2-0.2,2.8c0.8,1.2,1.6,2.5,2.4,3.7&#10;&#9;&#9;c0.4,0.5,0.3,1.1-0.2,1.5c-0.1,0.1-0.3,0.2-0.5,0.2c-0.1,0.6-0.6,1-1.2,1c-0.1,0-0.2,0-0.2-0.1c-0.6,0.1-1.3,0.3-1.9,0.4&#10;&#9;&#9;c-0.2,0.5-0.8,0.8-1.4,0.6c-0.2-0.1-0.3-0.2-0.4-0.3c-1.7-2-3.9-3.5-5.5-5.7c-0.3-0.5-0.2-1.2,0.3-1.6&#10;&#9;&#9;C277.3,277.3,277.5,277.3,277.7,277.2z"/>
	<path class="st15_conference-1-39" d="M300.4,291.2c-0.8,2.4-2.9,4-5.4,4.2c-4.3,0.2-12.4-8.8-12.4-8.8s-0.2-8,3.3-9.4c0,0,5.9,5.1,6.7,5.1&#10;&#9;&#9;s5.6-4.4,5.6-4.4"/>
	<path class="st20_conference-1-39" d="M300.4,291.2c-0.8,2.4-2.9,4-5.4,4.2c-4.3,0.2-12.4-8.8-12.4-8.8s-0.2-8,3.3-9.4c0,0,5.9,5.1,6.7,5.1&#10;&#9;&#9;s5.6-4.4,5.6-4.4"/>
	<path class="st16_conference-1-39" d="M275.7,278l-1.1-2.1c-0.3-0.6,0-1.2,0.5-1.5c0.2-0.1,0.5-0.1,0.8-0.1c-0.2-0.6-0.3-1.1-0.4-1.7&#10;&#9;&#9;c0-0.6,0.5-1,1.1-1c0.4,0,0.7,0.2,0.9,0.5c0.6,1.2,1.2,2.3,1.8,3.5l-0.8-2.2c-0.5-1.3,1.6-1.8,2-0.6s0.9,2.5,1.4,3.8l0.2-1&#10;&#9;&#9;c0.2-0.9,0.5-2,1.7-1.9c0.6,0,1,0.4,1,1c0,0.8-0.1,1.6-0.5,2.3c-0.3,0.8-1,1.8-0.7,2.7l1.7,4c0.3,0.5,0.2,1.1-0.3,1.4&#10;&#9;&#9;c-0.2,0.1-0.5,0.2-0.7,0.2c-0.2,0.6-0.8,0.9-1.3,0.7c-0.1,0-0.2-0.1-0.2-0.1c-0.2,0.1-0.5,0.1-0.7,0c-0.3,0.3-0.9,0.3-1.2,0.1&#10;&#9;&#9;c-0.2,0.5-0.8,0.7-1.3,0.4c-0.2-0.1-0.4-0.3-0.4-0.4c-1.3-2.3-3.3-4.2-4.4-6.6c-0.2-0.6,0.1-1.2,0.7-1.5&#10;&#9;&#9;C275.5,278,275.6,278,275.7,278z"/>
	<path class="st13_conference-1-39" d="M290.5,321.4l1.6,8.6c0,0-2.5,2.5-10.8,2.2s0-15.2,0-15.2"/>
	<path class="st20_conference-1-39" d="M290.5,321.4l1.6,8.6c0,0-2.5,2.5-10.8,2.2s0-15.2,0-15.2"/>
	<path class="st20_conference-1-39" d="M290.5,321.4l1.6,8.6c0,0-2.5,2.5-10.8,2.2s0-15.2,0-15.2"/>
	<path class="st13_conference-1-39" d="M295.3,300.6c0,0-9.3-7.5-15.5-8.3s-9.4,5.8-8.9,10.3s15.2,6.9,15.2,6.9"/>
	<path class="st20_conference-1-39" d="M295.3,300.6c0,0-9.3-7.5-15.5-8.3s-9.4,5.8-8.9,10.3s15.2,6.9,15.2,6.9"/>
	<path class="st13_conference-1-39" d="M290.4,303c-1.2-1.1-17-8.5-22.5-5.1s-5.2,5.9-4.5,9.9s6.1,26.2,6.1,26.2c4,1.6,8.4,1.8,12.6,0.6l-1.5-16.4&#10;&#9;&#9;l21-11.5"/>
	<path class="st15_conference-1-39" d="M301.9,276.7c-0.8,0.6-8,1.5-9.5,4.8s-3.8,20.4-3.8,20.4s4.3,6.4,11.8,4.1c2.2-0.7,13.7-21.7,14-23.9&#10;&#9;&#9;C315.2,276.5,301.9,276.7,301.9,276.7z"/>
	<path class="st16_conference-1-39" d="M297.3,267.8c-0.1,0.5-1,8,1.2,9.6s7.1-2.3,7.3-4.2s1.8-6.1-0.3-7.1S297.9,264.1,297.3,267.8z"/>
	<path class="st15_conference-1-39" d="M295.3,296.1c-1.2,2.2-3.7,3.3-6.1,3c-4.2-0.6-10.5-11-10.5-11s1.3-7.9,5.1-8.6c0,0,4.8,6.1,5.6,6.3&#10;&#9;&#9;s2.9-4.3,2.9-4.3"/>
	<path class="st13_conference-1-39" d="M300.6,325.6c0.4,11.7,0.8,23.4,1.2,35.1c0,1.3-2,1.3-2.1,0c-0.4-11.7-0.8-23.4-1.2-35.1&#10;&#9;&#9;C298.5,324.2,300.5,324.2,300.6,325.6z"/>
	<path class="st13_conference-1-39" d="M274.9,344.3c6.3-6.1,12.2-12.5,17.9-19.2c0.9-1,2.3,0.5,1.5,1.5c-5.7,6.7-11.7,13.1-17.9,19.2&#10;&#9;&#9;C275.4,346.7,273.9,345.3,274.9,344.3z"/>
	<path class="st13_conference-1-39" d="M307.8,322.3c4.9,9.2,9.4,18.5,13.7,27.9c0.5,1.2-1.2,2.2-1.8,1c-4.3-9.4-8.9-18.7-13.7-27.9&#10;&#9;&#9;C305.4,322.2,307.1,321.1,307.8,322.3z"/>
	<path class="st14_conference-1-39 targetColor" d="M316.1,313.7c0.4-0.9,0.7-1.8,0.9-2.7c1.8-6.9,2.9-32.9-8.8-31.8c-12.8,1.2-8.5,33.2-21.5,32.2&#10;&#9;&#9;s-18.3,2.4-13,7.4C284.4,328.9,309.6,329.1,316.1,313.7z" style="fill: rgb(176, 176, 176);"/>
	<path class="st12_conference-1-39" d="M298.9,267.2c-2.5,0-2.9-2.8-2.5-4.6c0.7-3.4,5.4-3.1,7.9-2.7c3.9,0.6,7.2,3.4,8.1,7.3c1.3,5.7,6,7,4.8,11.1&#10;&#9;&#9;s-4.1,3.4-2.9,6.7s-3.4,10.1-8,9.8s-2.1-9.4-4.8-9.8s-6.3-0.1-6.3-2.6s7.4-4.8,6.3-9.1S299,267.2,298.9,267.2z"/>
	<path class="st16_conference-1-39" d="M336.3,258.3c0,0-0.1,0-0.1-0.1c-0.4-0.3-0.5-0.8-0.2-1.1c0.2-0.3,0.7-0.5,1-0.3l0.2,0.1&#10;&#9;&#9;c0-0.5,0.4-0.8,0.8-0.8c0.1,0,0.3,0,0.4,0.1c0.9,0.5,1.9,0.9,2.8,1.4c-0.1-0.1-0.2-0.3-0.4-0.4c-0.5-0.7,0.1-1.8,1-1.3&#10;&#9;&#9;c1.1,0.7,2.2,1.4,3.3,2.2c0.4,0.3,0.5,0.8,0.2,1.2c0,0,0,0,0,0l0.2,0.1c0.3,0.3,0.4,0.7,0.2,1.1c0.1,0.3,0,0.5-0.1,0.8&#10;&#9;&#9;c0.5,0.4,0.2,1.1-0.3,1.3l-0.1,0.1l1,0.3c1,0.4,0.6,1.9-0.4,1.6l-5-1.7c-1.3-0.3-2.5-1-3.5-1.9c-0.2-0.2-0.3-0.6-0.1-0.9&#10;&#9;&#9;c-0.4-0.2-0.7-0.4-1-0.7c-0.3-0.3-0.4-0.7-0.1-1C336.1,258.4,336.2,258.3,336.3,258.3z"/>
	<path class="st15_conference-1-39" d="M356.5,261.4c0,0-8.9-3.6-11.6-4.4c0,0-2.8,1.9-2,7c0,0,8,8.2,13,10.7"/>
	<path class="st14_conference-1-39 targetColor" d="M363.5,243.5c-0.2-0.3-0.2-0.8,0.1-1.1c0.4-0.5,0.8-0.9,1.4-1.1c0.7-0.2,1.4,0.2,1.6,0.8c0,0,0,0,0,0.1&#10;&#9;&#9;c0.1,1.1-0.7,2.2-1.8,2.3c-0.2,0-0.4,0-0.6,0C363.6,244.4,363.4,244,363.5,243.5L363.5,243.5z" style="fill: rgb(176, 176, 176);"/>
	<path class="st11_conference-1-39" d="M219.7,363.8c0.3,3,0.1,7.1-2.8,9c-1.6,1-4.9,0.1-5.3,2.3c-0.4,2,10.3,2.7,10.3,2.7s1.2-4.5,1.6-4.3&#10;&#9;&#9;s0.4,5,0.4,5l2,0.4l2-1.3l-0.8-8.6l-1.2-7.3"/>
	<path class="st11_conference-1-39" d="M229.1,359c0,0.4,0.3,5.5-0.2,6s-2,3.4-3.9,3.6s-3.5-0.2-3.9,1.7s10.4,2.7,10.4,2.7s1.1-4.5,1.6-4.4&#10;&#9;&#9;s0.5,5,0.5,5l2,0.4l2-1.3l-0.8-8.6l-1.3-7.3"/>
	<path class="st19_conference-1-39" d="M238.6,355.1l1.6,8.6c0,0-2.5,2.5-10.8,2.2s0-15.2,0-15.2"/>
	<path class="st19_conference-1-39" d="M243.5,332.8c0,0-9.3-7.5-15.5-8.3s-9.4,5.8-8.9,10.3s15.2,6.9,15.2,6.9"/>
	<path class="st19_conference-1-39" d="M238.5,336.8c-1.2-1.1-17-8.5-22.5-5.1s-5.2,5.9-4.5,9.9s6.1,26.1,6.1,26.1c4,1.5,8.5,1.8,12.6,0.6l-1.6-16.4&#10;&#9;&#9;l21-11.5"/>
	<polygon class="st12_conference-1-39" points="237.1,334.1 232.1,337.9 210.8,326.9 225.1,316.8 245,328.1 &#9;"/>
	<path class="st15_conference-1-39" d="M250,310.5c-0.8,0.6-8,1.5-9.5,4.8s-3.8,20.4-3.8,20.4s4.3,6.4,11.8,4.1c2.2-0.7,13.7-21.7,14-23.9&#10;&#9;&#9;C263.3,310.3,250,310.5,250,310.5z"/>
	<path class="st16_conference-1-39" d="M245.4,301.5c-0.1,0.5-1,8,1.2,9.6s7.1-2.3,7.3-4.2s1.8-6.1-0.3-7.1S246,297.9,245.4,301.5z"/>
	<path class="st16_conference-1-39" d="M222.4,322.5l-0.1-0.1c-0.4-0.3-0.4-0.8-0.2-1.1c0.2-0.3,0.6-0.4,1-0.3l0.2,0.1c0-0.5,0.4-0.8,0.8-0.8&#10;&#9;&#9;c0.1,0,0.3,0,0.4,0.1c0.9,0.5,1.9,0.9,2.8,1.4l-0.4-0.4c-0.5-0.7,0.1-1.8,1-1.3c1.1,0.7,2.2,1.4,3.3,2.2c0.4,0.3,0.5,0.8,0.2,1.2&#10;&#9;&#9;c0,0,0,0,0,0l0.2,0.1c0.4,0.3,0.5,0.7,0.2,1.1c0.1,0.3,0.1,0.5-0.1,0.8c0.5,0.4,0.2,1.1-0.3,1.3l-0.1,0.1l1,0.3&#10;&#9;&#9;c1,0.4,0.6,1.9-0.4,1.6l-5-1.7c-1.3-0.3-2.5-1-3.5-1.9c-0.2-0.2-0.3-0.6-0.1-0.9c-0.4-0.2-0.7-0.4-1-0.7c-0.3-0.3-0.3-0.7-0.1-1&#10;&#9;&#9;C222.3,322.6,222.4,322.6,222.4,322.5z"/>
	<path class="st15_conference-1-39" d="M240.8,338.5c-5.5,0.4-11.1-9.5-11.1-9.5c-0.8-5.1,1.6-6.6,1.6-6.6c2.7,0.8,9.9,5,9.9,5h4.5&#10;&#9;&#9;C245.7,327.4,243.1,338.4,240.8,338.5z"/>
	<path class="st13_conference-1-39" d="M249.4,357.8c0.4,11.7,0.8,23.4,1.2,35.1c0,1.3-2,1.3-2.1,0c-0.4-11.7-0.8-23.4-1.2-35.1&#10;&#9;&#9;C247.3,356.5,249.4,356.5,249.4,357.8z"/>
	<path class="st13_conference-1-39" d="M223.7,376.6c6.3-6.1,12.2-12.5,17.9-19.2c0.9-1,2.3,0.5,1.5,1.5c-5.7,6.7-11.7,13.1-17.9,19.2&#10;&#9;&#9;C224.2,379,222.7,377.5,223.7,376.6z"/>
	<path class="st13_conference-1-39" d="M256.6,354.6c4.9,9.2,9.4,18.5,13.7,27.9c0.5,1.2-1.2,2.2-1.8,1c-4.3-9.4-8.9-18.7-13.7-27.9&#10;&#9;&#9;C254.2,354.5,256,353.4,256.6,354.6z"/>
	<path class="st14_conference-1-39 targetColor" d="M264.2,347.4c0.4-0.9,0.7-1.8,0.9-2.7c1.8-6.9,2.9-32.9-8.8-31.8c-12.8,1.2-8.5,33.2-21.5,32.2&#10;&#9;&#9;s-18.3,2.4-13,7.4C232.5,362.7,257.7,362.9,264.2,347.4z" style="fill: rgb(176, 176, 176);"/>
	<path class="st11_conference-1-39" d="M247.5,295.8c2.8-1.7,7.5-1.2,9.8,1.1c0.6,0.7,1.2,1.4,1.6,2.2c0.2,0.4,0.4,0.7,0.6,1.1&#10;&#9;&#9;c0.7,1.2,1.2,2.5,1.6,3.9c0.7,2.1,1.2,4.2,1.6,6.3c0.1,0.8,3.9,14.5,3.4,14.9c-0.9,0.7-5.8,2.1-6.9,2.3c-0.7,0.1-10,0-10,0&#10;&#9;&#9;c-0.1-4.1,0-8.1,0-12.2c0-2.2,0-4.4-0.1-6.7c0-0.4,0-0.8-0.1-1.2c0.5-0.2,0.9-0.5,1.2-1c0.3-0.6,0.3-1.4,0-2&#10;&#9;&#9;c-0.3-0.7-1.1-1-1.8-0.7c0,0-0.1,0.1-0.1,0.1c-0.3-0.7-0.7-1.3-1.3-1.7l-2.4,0.1C243.9,299.9,245,297.1,247.5,295.8z"/>
	<path class="st11_conference-1-39" d="M176.2,330.6c0,0.4,0.3,5.5-0.2,6s-2,3.4-3.9,3.6s-3.5-0.2-3.9,1.7s10.4,2.6,10.4,2.6s1.1-4.5,1.6-4.4&#10;&#9;&#9;s0.5,4.9,0.5,4.9l2,0.4l2-1.3l-0.8-8.6l-1.3-7.3"/>
	<path class="st15_conference-1-39" d="M185.8,326.7l1.6,8.6c0,0-2.5,2.5-10.8,2.2s0-15.2,0-15.2"/>
	<path class="st15_conference-1-39" d="M190.6,305.9c0,0-9.3-7.5-15.4-8.3s-9.4,5.8-8.9,10.3s15.2,6.9,15.2,6.9"/>
	<path class="st15_conference-1-39" d="M185.7,308.4c-1.2-1.1-17-8.5-22.5-5.1s-5.2,5.8-4.5,9.9s6.1,26.1,6.1,26.1c4,1.5,8.5,1.8,12.6,0.6l-1.6-16.4&#10;&#9;&#9;l21-11.5"/>
	<path class="st17_conference-1-39" d="M197.1,282.1c-0.8,0.6-8,1.5-9.5,4.8s-3.8,20.4-3.8,20.4s4.3,6.4,11.8,4.1c2.2-0.7,13.7-21.7,14-23.9&#10;&#9;&#9;C210.5,281.9,197.1,282.1,197.1,282.1z"/>
	<path class="st16_conference-1-39" d="M192.6,273.1c-0.1,0.5-1,8,1.2,9.6s7.1-2.3,7.3-4.2s1.8-6.1-0.3-7.1S193.1,269.5,192.6,273.1z"/>
	<path class="st13_conference-1-39" d="M195.6,275.2c0.3,0.8-0.3,1.1-0.8,1.6c-0.8,0.8-1.2,1.9-1.2,3.1c0.1,0.8,0.5,1.5,1,2.1c4,2,9.2,2.6,12.2-1.3&#10;&#9;&#9;c1.2-1.6,1.8-3.7,1.7-5.7c4.1-0.5,8-5.3,6-9.3c-1.5-2.9-4.9-2.7-7.3-1.1c-1.3,0.9-2.4,2.1-3.1,3.5c-2.7-2-6.4-2.4-9.4-0.8&#10;&#9;&#9;c-2.5,1.2-3.7,4.1-2.7,6.7l2.4-0.1C194.8,274.3,195.3,274.7,195.6,275.2z"/>
	<polygon class="st12_conference-1-39" points="180.2,309.6 175.3,313.4 154,302.5 168.2,292.3 188.1,303.6 &#9;"/>
	<path class="st17_conference-1-39" d="M184.2,314.1c-5.4-1.1-13-10.7-13-10.7c-0.8-5.1,2-7,2-7c2.6,0.8,11.6,4.4,11.6,4.4l5.4,2.7l-0.6,8&#10;&#9;&#9;C189.5,311.4,186.9,314.6,184.2,314.1z"/>
	<path class="st13_conference-1-39" d="M359.7,295.1c0.4,11.7,0.8,23.4,1.2,35.1c0,1.3-2,1.3-2.1,0c-0.4-11.7-0.8-23.4-1.2-35.1&#10;&#9;&#9;C357.6,293.8,359.7,293.8,359.7,295.1z"/>
	<path class="st13_conference-1-39" d="M334,313.9c6.3-6.1,12.2-12.5,17.9-19.1c0.9-1,2.3,0.5,1.5,1.5c-5.7,6.7-11.6,13-17.9,19.1&#10;&#9;&#9;C334.5,316.3,333,314.8,334,313.9z"/>
	<path class="st13_conference-1-39" d="M366.9,291.9c4.9,9.2,9.4,18.5,13.7,27.9c0.5,1.2-1.2,2.2-1.8,1c-4.3-9.4-8.9-18.7-13.7-27.9&#10;&#9;&#9;C364.5,291.8,366.3,290.7,366.9,291.9z"/>
	<path class="st14_conference-1-39 targetColor" d="M378.4,283.8c0.4-0.9,0.7-1.8,0.9-2.7c1.8-6.9,2.9-32.9-8.8-31.8c-12.8,1.2-8.5,33.2-21.5,32.3&#10;&#9;&#9;s-18.3,2.4-13,7.4C346.7,299,371.9,299.3,378.4,283.8z" style="fill: rgb(176, 176, 176);"/>
	<path class="st13_conference-1-39" d="M194.1,329.4c0.4,11.7,0.8,23.4,1.2,35.1c0,1.3-2,1.3-2.1,0c-0.4-11.7-0.8-23.4-1.2-35.1&#10;&#9;&#9;C192,328.1,194.1,328.1,194.1,329.4z"/>
	<path class="st13_conference-1-39" d="M168.4,348.2c6.3-6.1,12.2-12.5,17.9-19.2c0.9-1,2.3,0.5,1.5,1.5c-5.7,6.7-11.7,13.1-17.9,19.1&#10;&#9;&#9;C168.9,350.6,167.4,349.1,168.4,348.2z"/>
	<path class="st13_conference-1-39" d="M201.3,326.2c4.8,9.2,9.4,18.5,13.7,27.9c0.6,1.2-1.2,2.2-1.8,1c-4.3-9.4-8.9-18.7-13.7-27.9&#10;&#9;&#9;C198.9,326,200.7,325,201.3,326.2z"/>
	<path class="st14_conference-1-39 targetColor" d="M211.4,319c0.4-0.9,0.7-1.8,0.9-2.7c1.8-6.9,2.9-32.9-8.8-31.8c-12.8,1.2-8.5,33.2-21.5,32.2&#10;&#9;&#9;s-18.3,2.4-13,7.4C179.6,334.2,204.8,334.5,211.4,319z" style="fill: rgb(176, 176, 176);"/>
	<path class="st16_conference-1-39" d="M360.3,234.5c0,0-3.3,9.4-0.2,11.7c2.2,1.6,6.1,1.1,7.7-2.5S363.9,232.5,360.3,234.5z"/>
	<path class="st19_conference-1-39" d="M365.3,242.6c-2.5-1.8-4.3-4.5-5-7.4c-1-4.7,9.8-4.2,12,0.3s0.4,11.4-6.8,11.3L365.3,242.6z"/>
	<path class="st19_conference-1-39" d="M369.6,236.5c0,0,6.5-2.7,9.7,1.5s4,17.8,2.2,20.6c-1.8,2.8-8.7,1.4-9.5,0.5c0,0,5.1-14.9,3-18.4&#10;&#9;&#9;s-5.1-1.7-5.1-1.7"/>
	<path class="st12_conference-1-39" d="M392.2,269.9l1.2,5.8c-1.6-0.3-3.3-0.5-5-0.5c-1.3,0.2-2.9,2.5-1.3,4s4.4,1.4,7.1,2s3.2,0.8,4.9,0.3&#10;&#9;&#9;s2-2.9,2-2.9l-1.4-10"/>
	<path class="st12_conference-1-39" d="M403.4,264.7l1.2,5.8c-1.6-0.3-3.3-0.5-5-0.5c-1.3,0.2-2.9,2.5-1.3,4s4.4,1.4,7.1,2s3.2,0.8,4.9,0.3&#10;&#9;&#9;s2-2.9,2-2.9l-1.4-10"/>
	<path class="st13_conference-1-39" d="M412.5,259.1l1.6,8.6c0,0-2.5,2.5-10.8,2.2s0-15.2,0-15.2"/>
	<path class="st13_conference-1-39" d="M417.4,238.3c0,0-9.3-7.5-15.5-8.3s-9.4,5.8-8.9,10.3s15.2,6.9,15.2,6.9"/>
	<path class="st20_conference-1-39" d="M412.5,259.1l1.6,8.6c0,0-2.5,2.5-10.8,2.2s0-15.2,0-15.2"/>
	<path class="st20_conference-1-39" d="M417.4,238.3c0,0-9.3-7.5-15.5-8.3s-9.4,5.8-8.9,10.3s15.2,6.9,15.2,6.9"/>
	<path class="st13_conference-1-39" d="M412.4,240.8c-1.2-1.1-17-8.5-22.5-5.1s-5.2,5.8-4.5,9.9s6.1,26.1,6.1,26.1c4,1.6,8.5,1.8,12.6,0.6l-1.6-16.3&#10;&#9;&#9;l21-11.5"/>
	<path class="st15_conference-1-39" d="M423.9,214.4c-0.8,0.6-8,1.5-9.5,4.8s-3.8,20.4-3.8,20.4s4.3,6.4,11.8,4.1c2.2-0.7,13.7-21.7,14-23.9&#10;&#9;&#9;C437.2,214.2,423.9,214.4,423.9,214.4z"/>
	<polyline class="st16_conference-1-39" points="430.2,213.2 430.2,215.5 424.7,215.1 &#9;"/>
	<path class="st16_conference-1-39" d="M421.2,203.4c-0.1,0.6-1.2,9.4,1.4,11.3s8.4-2.7,8.5-5s2.1-7.1-0.4-8.3S421.9,199.1,421.2,203.4z"/>
	<path class="st12_conference-1-39" d="M421.2,203.4c0,0-2.2-1.7-2.5-3.2s1.5-2.6,3.3-2.6s3.4,0.5,5-0.5c1.7-1,3.8-1,5.5,0c1.5,1,1.7,3.4,2.7,4.7&#10;&#9;&#9;s2.9,1.4,2.9,3.7s-3.5,2.6-3.7,4.1s-1.1,3.8-3.2,4.2s-5,0.4-5.2,0.1s1.3-5.5-0.1-5.9S421.1,207.1,421.2,203.4z"/>
	<path class="st16_conference-1-39" d="M391.5,201.9c0-1,0.4-2,1.1-2.8c0.1-0.1,0.1-0.1,0.2-0.2c0.1-1,0.3-1.9,1.1-2.2c0.1-0.1,0.3-0.1,0.4-0.1&#10;&#9;&#9;c0.3-0.1,0.7,0.2,0.7,0.5c0,0.1,0,0.1,0,0.2v1c0.1-0.2,0.3-0.4,0.5-0.6c0.3-0.2,0.6-0.2,0.9,0c0.3,0.1,0.5,0.3,0.5,0.7l-0.2,4.4&#10;&#9;&#9;c0.2-0.8,0.7-2.4,1.9-1.6c0.9,0.6,0.2,2.4,0.1,3.3c-0.3,1.7-0.7,3.4-1.2,5.1c0,0.1-0.1,0.3-0.2,0.3c0,0.2,0.1,0.4,0.1,0.5&#10;&#9;&#9;c0.3,1.1,0.6,2.7,1.5,3.4c0.7,0.6-0.3,1.6-1,1l-0.1-0.1l0,0c0.2,0.8-0.9,1.3-1.3,0.5l-0.1-0.3c-0.1,0.1-0.1,0.1-0.2,0.2&#10;&#9;&#9;c0.1,0.1,0.1,0.3,0.2,0.4c0.3,0.9-1.1,1.2-1.4,0.4l0,0c-0.2,0.3-0.5,0.5-0.9,0.3c-0.1-0.1-0.3-0.2-0.3-0.3&#10;&#9;&#9;c-0.1-0.3-0.1,0.8-0.2,0.5c-0.4,0.1,0.4-1.1,0.2-1.6c-0.9-1.6-3-3.3-3-8.7C390.7,205.1,389.7,202.5,391.5,201.9z"/>
	<path class="st12_conference-1-39" d="M396.5,198.7c0-0.3,0.5-0.3,0.5,0c-0.1,1.9-0.2,3.7-0.4,5.6c0,0.3-0.5,0.3-0.5,0&#10;&#9;&#9;C396.3,202.4,396.4,200.6,396.5,198.7z"/>
	<path class="st12_conference-1-39" d="M394.6,197.3c0-0.3,0.5-0.3,0.5,0l-0.2,7.5c0,0.3-0.5,0.3-0.5,0L394.6,197.3z"/>
	<path class="st12_conference-1-39" d="M393,199.3c0,1.9,0.1,3.8,0.1,5.7c0,0.3-0.5,0.3-0.5,0c0-1.9-0.1-3.8-0.1-5.7c0-0.1,0.1-0.2,0.2-0.2&#10;&#9;&#9;C392.9,199.1,393,199.2,393,199.3z"/>
	<path class="st12_conference-1-39" d="M391.6,202.1c0.1,1.4,0.2,2.8,0.4,4.2c0,0.3-0.4,0.3-0.5,0c-0.2-1.4-0.3-2.8-0.4-4.2&#10;&#9;&#9;C391.1,201.8,391.6,201.8,391.6,202.1z"/>
	<path class="st15_conference-1-39" d="M417.2,216.7c0,0-7.1,2.6-8.9,2.4s-9.6-10-9.6-10s-5.4,1.5-7.1,6.3c0,0,10,14.3,14.4,15.2s9.7-1.3,9.7-1.3"/>
	<path class="st13_conference-1-39" d="M420.5,261.5c0.4,11.7,0.8,23.4,1.2,35.1c0,1.3-2,1.3-2.1,0c-0.4-11.7-0.8-23.4-1.2-35.1&#10;&#9;&#9;C418.4,260.2,420.5,260.2,420.5,261.5z"/>
	<path class="st13_conference-1-39" d="M394.8,280.3c6.3-6.1,12.2-12.5,17.9-19.2c0.9-1,2.3,0.5,1.5,1.5c-5.7,6.7-11.7,13-17.9,19.1&#10;&#9;&#9;C395.3,282.7,393.8,281.2,394.8,280.3z"/>
	<path class="st13_conference-1-39" d="M427.7,258.3c4.9,9.1,9.4,18.4,13.7,27.9c0.5,1.2-1.2,2.2-1.8,1c-4.3-9.4-8.9-18.7-13.7-27.9&#10;&#9;&#9;C425.3,258.1,427.1,257.1,427.7,258.3z"/>
	<path class="st14_conference-1-39 targetColor" d="M438.1,251.4c0.4-0.9,0.7-1.8,0.9-2.7c1.8-6.9,2.9-32.9-8.8-31.8c-12.8,1.2-8.5,33.2-21.5,32.2&#10;&#9;&#9;s-18.3,2.4-13,7.4C406.4,266.6,431.6,266.8,438.1,251.4z" style="fill: rgb(176, 176, 176);"/>
</g>
<g id="screen_conference-1-39">
	<path class="st19_conference-1-39" d="M205,98.6l0.3,0c1.2,0.1,2.1,1.1,2.1,2.3l-3.6,75.6c-0.1,1.2-1.1,2.1-2.3,2.1l-0.3,0&#10;&#9;&#9;c-1.2-0.1-2.1-1.1-2.1-2.3l3.6-75.6C202.8,99.5,203.8,98.6,205,98.6z"/>
	<path class="st19_conference-1-39" d="M226.9,113.3l0.3-0.1c1.1-0.5,2.4,0,2.9,1.1l31.1,69c0.5,1.1,0,2.4-1.1,2.9l-0.3,0.1c-1.1,0.5-2.4,0-2.9-1.1&#10;&#9;&#9;l-31.1-69C225.3,115,225.8,113.8,226.9,113.3z"/>
	<path class="st19_conference-1-39" d="M189,137.7l0.3,0c1.2,0.1,2.1,1.1,2.1,2.3l-3.6,75.6c-0.1,1.2-1.1,2.1-2.3,2.1l-0.3,0&#10;&#9;&#9;c-1.2-0.1-2.1-1.1-2.1-2.3l3.6-75.6C186.8,138.6,187.8,137.7,189,137.7z"/>
	<path class="st14_conference-1-39 targetColor" d="M260.4,63.6v59.3c0,1.9-1,3.7-2.7,4.6l-96.6,54.6c-2.5,1.4-5.8,0.5-7.2-2c-0.4-0.8-0.7-1.7-0.7-2.6v-56.3&#10;&#9;&#9;c0-1.9,1-3.6,2.6-4.5L252.4,59c2.5-1.5,5.8-0.7,7.2,1.8C260.2,61.7,260.4,62.6,260.4,63.6z" style="fill: rgb(176, 176, 176);"/>
	<path class="st21_conference-1-39" d="M188.6,128.8v0.1c0.1-0.1,0.1-0.2,0.2-0.4L188.6,128.8C188.7,128.8,188.7,128.8,188.6,128.8z"/>
	<path class="st21_conference-1-39" d="M234.7,106.5l-4.5-11.7c-0.3-0.8-1.2-1.2-2-0.9c-0.2,0.1-0.3,0.2-0.5,0.3l-9.7,8.6c-0.6,0.6-0.7,1.5-0.1,2.2&#10;&#9;&#9;c0.2,0.2,0.5,0.4,0.8,0.5l5,1.1c-0.1,0.7-0.2,1.3-0.4,2c-0.3,1.2-0.6,2.4-0.9,3.6c-0.2,0.7-0.4,1.3-0.6,1.9l-0.4,1l-0.2,0.5&#10;&#9;&#9;c0.3-0.8,0-0.1-0.1,0.1c-0.6,1.4-1.3,2.7-2.2,3.9c-0.1,0.1-0.2,0.2-0.2,0.3l-0.1,0.1c-0.2,0.3-0.5,0.6-0.8,0.9s-0.5,0.5-0.7,0.7&#10;&#9;&#9;l-0.4,0.3h-0.1c-0.6,0.4-1.2,0.8-1.8,1.1c0,0-0.1,0-0.1,0l0,0l-0.6,0.2c-0.4,0.1-0.8,0.2-1.1,0.3h-0.2h-0.4c-0.3,0-0.7,0-1.1,0&#10;&#9;&#9;h-0.1l-0.4-0.1c-0.3-0.1-0.7-0.2-1-0.3c-0.3-0.1-0.5-0.2-0.8-0.3h-0.1l-0.5-0.2c-0.6-0.3-1.2-0.7-1.8-1c-1.2-0.7-2.4-1.4-3.7-2.1&#10;&#9;&#9;c-3.2-1.7-7-2.3-10.6-1.4c-5.8,1.4-8.6,7.6-10.1,12.9c-0.7,2.6-1.1,5.2-1.4,7.8c-0.2,1.4-0.3,2.8-0.3,4.2c0,0.1,0,0.1,0,0.2&#10;&#9;&#9;c0.1,1.4,1.3,2.5,2.7,2.4c1.3-0.1,2.3-1.1,2.4-2.4c0-1,0.1-2,0.2-3c0-0.5,0.1-1,0.1-1.5c0-0.2,0.1-0.4,0.1-0.7l0.1-0.4&#10;&#9;&#9;c0.2-1.2,0.4-2.4,0.7-3.6c0.3-1.3,0.7-2.6,1.1-3.9c0.1-0.3,0.2-0.6,0.3-0.9c0-0.1,0.1-0.2,0.1-0.3v0.1c0-0.1,0.1-0.1,0.1-0.2v-0.1&#10;&#9;&#9;c0-0.1,0.1-0.1,0.1-0.2c0.2-0.5,0.5-1,0.8-1.6c0.3-0.5,0.6-1.1,1-1.6l0.2-0.3c0.2-0.2,0.4-0.4,0.6-0.7s0.4-0.3,0.6-0.5l0.4-0.2&#10;&#9;&#9;c0.2-0.2,0.5-0.3,0.8-0.4h0.1l0.2-0.1c0.3-0.1,0.5-0.2,0.8-0.2c0.2-0.1,0.4-0.1,0.6-0.1h0.2c0.4,0,0.8,0,1.2,0c0.2,0,0.4,0,0.6,0&#10;&#9;&#9;s0.9,0.2,0.1,0c0.7,0.2,1.5,0.3,2.2,0.5l0.4,0.2l0.3,0.1l0.2,0.1l0.6,0.3c2.7,1.3,5.1,3.2,7.9,4.1c3.3,1.1,6.9,0.6,9.9-1.2&#10;&#9;&#9;c2.8-1.8,5-4.3,6.4-7.2c1.9-3.8,3.2-7.8,3.8-12l4.3,0.9c0.8,0.2,1.6-0.3,1.8-1.1C234.8,107.2,234.8,106.8,234.7,106.5z&#10;&#9;&#9; M216.7,121.9L216.7,121.9L216.7,121.9z"/>
	<path class="st17_conference-1-39" d="M219.3,119.3c-2.1,3-6,5.9-12.4,2.3c0,0,6.1,5.6,11.6,5.2c0,0,3.8-2.1,6.8-7.9&#10;&#9;&#9;C223.3,119.3,221.3,119.4,219.3,119.3z"/>
	<path class="st17_conference-1-39" d="M243.2,86.5v32.6c0.1,1,1,1.8,2,1.7c0.9-0.1,1.7-0.8,1.7-1.7V86.5c-0.1-1-1-1.8-2-1.7&#10;&#9;&#9;C244,84.9,243.3,85.6,243.2,86.5z"/>
	<path class="st17_conference-1-39" d="M233.1,116.3v7.6c0.1,1,1,1.8,2,1.7c0.9-0.1,1.7-0.8,1.7-1.7v-7.6c-0.1-1-1-1.8-2-1.7&#10;&#9;&#9;C233.9,114.7,233.2,115.4,233.1,116.3z"/>
	<path class="st17_conference-1-39" d="M193.7,130.6v9.9c0.1,1,1,1.8,2,1.7c0.9-0.1,1.7-0.8,1.7-1.7v-9.9c-0.1-1-1-1.8-2-1.7&#10;&#9;&#9;C194.5,128.9,193.7,129.7,193.7,130.6z"/>
	<path class="st17_conference-1-39" d="M169.3,122.8v31.7c0,1,0.8,1.9,1.9,1.9s1.9-0.8,1.9-1.9v-31.7c0-1-0.8-1.9-1.9-1.9S169.3,121.7,169.3,122.8z"/>
</g>
<g id="character_conference-1-39">
	<polyline class="st11_conference-1-39" points="192.8,264.8 192.8,267.2 167.4,281.8 150.3,272.1 150.3,269.8 &#9;"/>
	<polygon class="st18_conference-1-39" points="192.8,264.8 167.7,279.4 150.3,269.8 175.6,255.1 &#9;"/>
	<path class="st11_conference-1-39" d="M144.7,261.1c-0.3,1.7-0.5,3.3-0.5,5c0.1,1.2,2.7,4.5,3.9,5s2.6,0.8,1.9,2.6s-7.7-1.2-8.3-1.7&#10;&#9;&#9;s-1.2-4.9-1.4-4.7s-0.1,5.1-0.8,5s0-12.3,0-12.3"/>
	<path class="st11_conference-1-39" d="M158.8,256.2c0,1.7,0.1,3.3,0.3,5c0.3,1.1,3.4,4,4.6,4.3s2.7,0.4,2.3,2.3s-7.8,0-8.4-0.4s-1.9-4.7-2.1-4.5&#10;&#9;&#9;s0.7,5,0,5s-1.9-12.1-1.9-12.1"/>
	<path class="st16_conference-1-39" d="M176,168.3c0,0,5-6.3,6.2-6.3s0.8,1.3,0.8,1.3s3.2-2.5,5-0.8c0,0,1.6-0.8,2,0c0.2,0.5,0.1,1.1-0.3,1.5&#10;&#9;&#9;c0,0,1,0.8,0.6,1.3c-0.2,0.3-0.5,0.5-0.9,0.5c0,0,0.6,0.3,0.4,0.8s-5.6,4.8-13.4,5"/>
	<path class="st11_conference-1-39" d="M181.1,169.2L181.1,169.2c0.3-0.3,0.4-0.6,0.5-0.9c0.1-0.3,0.2-0.7,0.2-1c0.1-0.7-0.1-1.4-0.4-2&#10;&#9;&#9;c0,0,0-0.1,0-0.1c0.6-0.7,1.1-1.5,1.6-2.4c0.1-0.1,0.3,0,0.2,0.1c-0.3,0.7-0.7,1.3-1.2,1.9c-0.3,0.4-0.4,0.4-0.2,0.8&#10;&#9;&#9;c0.1,0.3,0.2,0.6,0.2,0.9c0.1,0.7,0,1.3-0.2,1.9c-0.1,0.3-0.3,0.9-0.6,1c-0.1,0-0.1,0-0.2-0.1l0,0C181,169.4,181,169.3,181.1,169.2&#10;&#9;&#9;C181.1,169.2,181.1,169.2,181.1,169.2z"/>
	<path class="st11_conference-1-39" d="M183.1,164.4l4.7-2.1c0.1-0.1,0.3,0.2,0.1,0.2l-4.7,2.1C183.1,164.7,183,164.5,183.1,164.4z"/>
	<path class="st11_conference-1-39" d="M184.1,165.6c1.9-0.2,3.8-0.8,5.5-1.7c0.1-0.1,0.3,0.1,0.1,0.2c-1.7,0.9-3.6,1.5-5.6,1.8&#10;&#9;&#9;C183.9,165.9,183.9,165.6,184.1,165.6z"/>
	<path class="st11_conference-1-39" d="M184.5,167c1.8-0.2,3.5-0.7,5.1-1.3c0.1-0.1,0.2,0.2,0.1,0.2c-1.7,0.7-3.4,1.1-5.1,1.3&#10;&#9;&#9;C184.4,167.3,184.4,167,184.5,167z"/>
	<path class="st14_conference-1-39 targetColor" d="M158.1,191.7c0,0,6.9,39.6,6.7,64.5c0,0-8.9,4.3-14.2,1.6c0,0-2-59.3-4.5-63.4" style="fill: rgb(176, 176, 176);"/>
	<path class="st14_conference-1-39 targetColor" d="M151.8,194c0,0-1.8,53.6-2.1,68.2c0,0-12,2.9-13.4-0.4s4.6-68.8,4.6-68.8" style="fill: rgb(176, 176, 176);"/>
	<path class="st14_conference-1-39 targetColor" d="M136.6,262.3c-3.5-7.4-2.7-19.5-1.7-25.5s0.4-12.1,0.2-21.9s4.6-20.3,4.6-20.3l3.5,0.6" style="fill: rgb(176, 176, 176);"/>
	<path class="st15_conference-1-39" d="M149.8,195.7c-3.4,0.9-7.3,1.6-10.5-0.3c-5.3-22.4-1.4-29.3,7.7-31.9c3.6-0.9,7.3,0.7,9.2,3.9&#10;&#9;&#9;c1.1,8.4,1.8,16.8,1.9,25.2c0,0.4-3.1,1.5-3.5,1.7c-1.2,0.5-2.5,0.9-3.8,1.2L149.8,195.7z"/>
	<path class="st15_conference-1-39" d="M155.1,165.9c0,0,6.8,9.7,20.7,0.2c0,0,4.8,5.8,4,6.7s-15.7,12.3-22.8,6.1"/>
	<path class="st18_conference-1-39" d="M149.6,207.7c0-0.2,0.1-0.3,0.3-0.3c0.2,0,0.3,0.1,0.3,0.3c0.5,18.4,0.4,36.8-0.4,55.2c0,0.4-0.6,0.4-0.6,0&#10;&#9;&#9;C150,244.5,150.1,226.1,149.6,207.7z"/>
	<path class="st15_conference-1-39" d="M155.5,180.3c0.4-0.1,6.6-1.8,6.6-1.8l0.7,8.4l-8.2,2.9"/>
	<path class="st16_conference-1-39" d="M162.1,179.4c0,0,2-1.5,2.3-1.6s-0.8-4.1,1.9-4.7l-0.5,2.7c0,0,5.1-0.6,6.1-0.1s0.6,1.8,0.6,1.8&#10;&#9;&#9;s1.5,0,1.3,1.1c-0.1,0.6-0.6,1.1-1.2,1.1c0,0,1.2,0.9,0.5,1.6l-0.7,0.7c0,0.6-0.3,1.1-0.6,1.5c-0.6,0.6-6.8-0.7-6.8-0.7l-2.6,2&#10;&#9;&#9;L162.1,179.4z"/>
	<path class="st11_conference-1-39" d="M167.3,177.3c1.7,0.1,3.5,0.1,5.2-0.1c0.2,0,0.2,0.3,0,0.3c-1.7,0.2-3.5,0.2-5.2,0.1&#10;&#9;&#9;C167.1,177.6,167.1,177.3,167.3,177.3z"/>
	<path class="st11_conference-1-39" d="M167.1,179.2c1.9,0.4,3.8,0.6,5.8,0.6c0.1,0,0.1,0.1,0.1,0.1c0,0.1-0.1,0.1-0.1,0.1c-2,0-3.9-0.2-5.8-0.6&#10;&#9;&#9;C166.8,179.4,166.9,179.2,167.1,179.2z"/>
	<path class="st11_conference-1-39" d="M167.3,181.2c1.7,0.4,3.4,0.7,5.1,0.8c0.2,0,0.2,0.3,0,0.3c-1.7-0.1-3.5-0.4-5.2-0.8&#10;&#9;&#9;C167.1,181.4,167.2,181.1,167.3,181.2z"/>
	<path class="st16_conference-1-39" d="M151.1,164L151.1,164c0,0,0.5,4.8-3.1,3.4c-1.5-0.6-3-1.3-4.4-2.2v-2.9"/>
	<path class="st22_conference-1-39" d="M151.1,164L151.1,164c0,0,0.5,4.8-3.1,3.4c-1.5-0.6-3-1.3-4.4-2.2v-2.9"/>
	<path class="st16_conference-1-39" d="M153.4,153.9c0,0,1.8,9.5-2.2,11.1s-7.7-5.7-7.7-7.9C143.5,152.4,148,152.8,153.4,153.9z"/>
	<path class="st12_conference-1-39" d="M131.1,180.2c1,1,2.3,1.7,3.8,2c2.7,0.8,5.6,0.3,7.8-1.6c0.5-0.4,0.9-1,1.2-1.6c0.3-0.5,0.5-1.1,0.4-1.7&#10;&#9;&#9;c-0.1-1.7-0.4-3.4-0.8-5c0-0.1,0-0.1,0-0.2c0.2-0.9,0.7-1.7,1.5-2.2c0.7-0.5,1.3-1.1,1.9-1.7c1.1-1.4,1.1-3.3,0.2-4.8&#10;&#9;&#9;c-0.5-0.7-1-1.4-1.5-2.1c-0.6-1.4,1.1-1.9,2-2.1c0.5-0.1,0.9-0.3,1.2-0.7c0.3-0.3,0.4-0.8,0.4-1.2c0-0.8-1.9-4.4,0.2-4.1&#10;&#9;&#9;c0.5,0.1,1,0.3,1.3,0.7c0.6,0.5,0.9,1.2,1.5,1.8s0.9,1.1,1.7,1c1.2-0.1,1.5-1.7,1.5-2.7c-0.1-1.4-0.9-2.7-2-3.5&#10;&#9;&#9;c-1.3-0.8-2.9-1.1-4.4-0.9c-1.3,0-2.6,0.4-3.7,1c-3.5,2.2-3.8,6.7-4.8,10.3c-0.2,1.2-0.8,2.3-1.6,3.1c-1.8,1.6-5.8,1.9-5.6,5.1&#10;&#9;&#9;c0.1,1.7,2,3.2,0.9,4.9c-0.7,1.1-2,1.5-2.9,2.4c-0.4,0.5-0.6,1-0.7,1.6C130.4,178.9,130.6,179.7,131.1,180.2z M133.8,168.2&#10;&#9;&#9;c0,0.1-0.1,0.3-0.1,0.5c0,0.2,0,0.4,0,0.6C133.7,168.9,133.7,168.5,133.8,168.2L133.8,168.2z"/>
	<path class="st11_conference-1-39" d="M153.5,160.9c-1,0.1-1.8-0.5-2-1.5c-0.1-1,0.5-1.8,1.5-2c1-0.1,1.8,0.5,2,1.5c0,0.1,0,0.2,0,0.2&#10;&#9;&#9;C155,160.1,154.3,160.8,153.5,160.9z M153.5,157.8c-0.8-0.1-1.5,0.4-1.6,1.2c-0.1,0.8,0.4,1.5,1.2,1.6c0.8,0.1,1.5-0.4,1.6-1.2&#10;&#9;&#9;c0-0.1,0-0.1,0-0.2C154.7,158.5,154.2,157.8,153.5,157.8z"/>
	<path class="st11_conference-1-39" d="M149.5,161.2c-1,0.1-1.8-0.5-2-1.5c-0.1-1,0.5-1.8,1.5-2c1-0.1,1.8,0.5,2,1.5c0,0.1,0,0.2,0,0.2&#10;&#9;&#9;C151.1,160.4,150.4,161.1,149.5,161.2z M149.5,158.1c-0.8-0.1-1.5,0.4-1.6,1.2c-0.1,0.8,0.4,1.5,1.2,1.6c0.8,0.1,1.5-0.4,1.6-1.2&#10;&#9;&#9;c0-0.1,0-0.1,0-0.2C150.8,158.8,150.3,158.1,149.5,158.1z"/>
	<path class="st11_conference-1-39" d="M150.8,159.1c0-0.1,0.2-0.2,0.3-0.2c0.1,0,0.2,0,0.3-0.1c0-0.1-0.1-0.3-0.1-0.4s0.2-0.2,0.2-0.1&#10;&#9;&#9;s0.1,0.3,0.1,0.5l0,0c0.2,0.1,0.7,0.3,0.4,0.6c0,0-0.1,0-0.2,0c0,0,0-0.1,0-0.1c0-0.1-0.1-0.1-0.2-0.2l0.1,0.6&#10;&#9;&#9;c0.1,0.5,0.4,1,0.6,1.4s-0.2,0.5-0.5,0.6c-0.1,0-0.2-0.2-0.1-0.2c0.4-0.1,0.3-0.3,0.2-0.6s-0.2-0.5-0.3-0.7c-0.1-0.3-0.2-0.7-0.3-1&#10;&#9;&#9;c-0.1,0-0.1,0-0.2,0c-0.1,0-0.2,0-0.2,0.1c0,0.1,0,0.1-0.1,0.1c0,0,0,0,0,0l0,0C150.8,159.2,150.8,159.1,150.8,159.1z"/>
	<path class="st11_conference-1-39" d="M149.4,161.9c0.4,0.4,0.9,0.6,1.5,0.6c0.1,0,0.1,0.1,0.1,0.1c0,0.1-0.1,0.1-0.1,0.1c-0.6,0-1.2-0.2-1.7-0.7&#10;&#9;&#9;C149.1,161.9,149.2,161.7,149.4,161.9z"/>
	<path class="st11_conference-1-39" d="M158.1,188.5c0,0-14.2,5-20.5-1.9l1,5.6C145.3,194.6,152.8,193.2,158.1,188.5z"/>
	<path class="st11_conference-1-39" d="M146.6,178.4c1.9,1.5,4.7,1.4,7.1,1.4c2.6-0.1,5.2-0.4,7.7-1c0.5-0.1,0.8,0.7,0.2,0.8c-2.9,0.7-6,1-9,1&#10;&#9;&#9;c-2.3,0-4.7-0.1-6.6-1.6C145.6,178.7,146.2,178.1,146.6,178.4z"/>
	<path class="st11_conference-1-39" d="M157.3,172.9l0.4,6.6c0,0.6-0.8,0.5-0.8,0c-0.1-2.2-0.3-4.4-0.4-6.6C156.4,172.4,157.2,172.4,157.3,172.9z"/>
	<rect x="171" y="191.7" class="st18_conference-1-39" width="2.8" height="76.7"/>
	<polyline class="st11_conference-1-39" points="191.6,183.2 191.6,186.8 166,200.3 147.9,198.5 147,196 &#9;"/>
	<path class="st18_conference-1-39" d="M171.8,183.2c0,0,20.9-0.4,19.8,0s-26.1,14.6-26.1,14.6L147,196L171.8,183.2z"/>
	<path class="st11_conference-1-39" d="M166.9,175.9c0.1,0,0.1,0,0.2,0l4.1,0.1c-0.3-0.4-0.7-0.7-1.1-1v-0.1c0-0.2,0-0.4,0-0.7&#10;&#9;&#9;c-0.1-0.8-0.9-1.4-1.7-1.3c0,0,0,0,0,0C167,173.1,166.3,174.8,166.9,175.9L166.9,175.9z"/>
	<path class="st11_conference-1-39" d="M173.2,179.1c-0.1,0.4-0.2,0.7-0.4,1c0.1,0.1,0.1,0.2,0.1,0.4c0,0.3,0,0.7-0.1,1c0,0,0,0.1,0,0.1&#10;&#9;&#9;c0.5,1.9,0.8,3.8,0.9,5.8c0.1,0.8,1.3,0.8,1.2,0C174.8,184.5,174.2,181.7,173.2,179.1z"/>
</g>
</svg>