<svg version="1.1" id="Layer_1" xmlns="http://www.w3.org/2000/svg" xmlns:xlink="http://www.w3.org/1999/xlink" x="0px" y="0px" viewBox="0 0 500 500" style="width: 188px;" xml:space="preserve" data-imageid="fast-food-6" imageName="Fast Food" class="illustrations_image">
<style type="text/css">
	.st0_fast-food-6{fill:#FFB769;}
	.st1_fast-food-6{fill:#67352A;}
	.st2_fast-food-6{opacity:0.2;enable-background:new    ;}
	.st3_fast-food-6{fill:#FFFFF2;}
	.st4_fast-food-6{opacity:0.33;enable-background:new    ;}
	.st5_fast-food-6{fill:url(#SVGID_1_);}
	.st6_fast-food-6{fill:url(#SVGID_00000100348755090346732580000006452489915031100578_);}
	.st7_fast-food-6{fill:url(#SVGID_00000093881092951357192870000004832498617768060317_);}
	.st8_fast-food-6{fill:url(#SVGID_00000057829323053018268210000008504187284337856441_);}
	.st9_fast-food-6{fill:url(#SVGID_00000132084376912795190650000016487347220706460052_);}
	.st10_fast-food-6{opacity:0.32;fill:url(#SVGID_00000029731588997643398890000018009057252958383036_);enable-background:new    ;}
	.st11_fast-food-6{fill:#68E1FD;}
	.st12_fast-food-6{fill:#88B72C;}
	.st13_fast-food-6{fill:#F48F3B;}
	.st14_fast-food-6{fill:#FBC144;}
	.st15_fast-food-6{opacity:0.1;enable-background:new    ;}
	.st16_fast-food-6{opacity:0.8;fill:#FFFFF2;enable-background:new    ;}
	.st17_fast-food-6{fill:#FF2624;}
	.st18_fast-food-6{fill:#DDD3C3;}
	.st19_fast-food-6{opacity:0.3;fill:#FFFFF2;enable-background:new    ;}
</style>
<g id="background_fast-food-6">
	<path class="st0_fast-food-6" d="M241.3,397L14.2,262.7c-7.2-4.1-13.4-10.7-6.4-15.1l227.9-131.4c3.4-2.1,8.6-3.5,12.1-1.5l238.4,138.4&#10;&#9;&#9;c7.2,4.2,8.5,15.9,1.3,20.1L271.2,396.8C262,402.1,250.6,402.2,241.3,397z"/>
</g>
<g id="tray_fast-food-6">
	<polygon class="st1_fast-food-6" points="460,278.8 306.5,367.6 65.6,228.2 217.4,138.7 &#9;"/>
	<polygon class="st2_fast-food-6" points="460,278.8 306.5,367.6 65.6,228.2 217.4,138.7 &#9;"/>
	<polygon class="st1_fast-food-6" points="218,122.9 65.6,211.8 65.6,228.2 217.4,138.7 &#9;"/>
	<polygon class="st3_fast-food-6" points="419.9,273 307.1,338.3 104.3,221 213.7,153.9 &#9;"/>
	<polygon class="st1_fast-food-6" points="217.4,138.7 218,122.9 463.7,264.8 460,278.8 &#9;"/>
	<polygon class="st4_fast-food-6" points="218,122.9 65.6,211.8 65.6,228.2 217.4,138.7 &#9;"/>
	<polygon class="st4_fast-food-6" points="217.4,138.7 218,122.9 463.7,264.8 460,278.8 &#9;"/>
	
		<linearGradient id="SVGID_1_-fast-food-6" gradientUnits="userSpaceOnUse" x1="142.817" y1="325.9933" x2="128.807" y2="313.0933" gradientTransform="matrix(-1 0 0 -1 378.24 502)">
		<stop offset="0" style="stop-color:#DDD3C3"/>
		<stop offset="1" style="stop-color:#FFFFF2"/>
	</linearGradient>
	<polyline class="st5_fast-food-6" points="218.5,157.7 266,183.9 247.4,194.6 219.3,181.5 &#9;"/>
	
		<linearGradient id="SVGID_00000120526940785143591400000006738810742364791712_-fast-food-6" gradientUnits="userSpaceOnUse" x1="-10.6526" y1="232.3728" x2="-21.4926" y2="222.3828" gradientTransform="matrix(-1 0 0 -1 378.24 502)">
		<stop offset="0" style="stop-color:#DDD3C3"/>
		<stop offset="1" style="stop-color:#FFFFF2"/>
	</linearGradient>
	<polyline style="fill:url(#SVGID_00000120526940785143591400000006738810742364791712_);" points="376.4,254.7 413.2,275 &#10;&#9;&#9;394.6,285.8 378.2,276.8 &#9;"/>
	<polygon class="st1_fast-food-6" points="463.7,264.8 308.1,349.7 306.5,367.6 460,278.8 &#9;"/>
	
		<linearGradient id="SVGID_00000135679130972692497870000005895104849430511027_-fast-food-6" gradientUnits="userSpaceOnUse" x1="77.8195" y1="291.9106" x2="63.8095" y2="279.0105" gradientTransform="matrix(-1 0 0 -1 378.24 502)">
		<stop offset="0" style="stop-color:#DDD3C3"/>
		<stop offset="1" style="stop-color:#FFFFF2"/>
	</linearGradient>
	<polyline style="fill:url(#SVGID_00000135679130972692497870000005895104849430511027_);" points="283.5,191.8 331,218 &#10;&#9;&#9;312.5,228.7 284.3,215.6 &#9;"/>
	
		<linearGradient id="SVGID_00000031924763836948237720000015257332582383891902_-fast-food-6" gradientUnits="userSpaceOnUse" x1="309.1307" y1="218.1706" x2="333.9307" y2="185.9806" gradientTransform="matrix(1 0 0 -1 0 502)">
		<stop offset="0" style="stop-color:#DDD3C3"/>
		<stop offset="1" style="stop-color:#FFFFF2"/>
	</linearGradient>
	<polyline style="fill:url(#SVGID_00000031924763836948237720000015257332582383891902_);" points="309.5,263.4 370.6,297.8 &#10;&#9;&#9;321.5,327.2 271,300.1 &#9;"/>
	
		<linearGradient id="SVGID_00000069361556839400955870000017664110407253776539_-fast-food-6" gradientUnits="userSpaceOnUse" x1="216.9614" y1="271.2113" x2="244.7214" y2="239.7513" gradientTransform="matrix(1 0 0 -1 0 502)">
		<stop offset="0" style="stop-color:#DDD3C3"/>
		<stop offset="1" style="stop-color:#FFFFF2"/>
	</linearGradient>
	<polyline style="fill:url(#SVGID_00000069361556839400955870000017664110407253776539_);" points="224.4,208.4 290.4,241.5 &#10;&#9;&#9;225.9,283.2 175.4,256.1 &#9;"/>
	<polygon class="st1_fast-food-6" points="65.6,211.8 308.1,349.7 306.5,367.6 65.6,228.2 &#9;"/>
</g>
<g id="plant_fast-food-6">
	
		<linearGradient id="SVGID_00000083046718203423459290000009806429294298651560_-fast-food-6" gradientUnits="userSpaceOnUse" x1="88.9063" y1="219.4439" x2="122.5363" y2="251.0739" gradientTransform="matrix(-1 0 0 -1 193.65 502)">
		<stop offset="0" style="stop-color:#000000;stop-opacity:0"/>
		<stop offset="0.99" style="stop-color:#67352A"/>
	</linearGradient>
	<path style="opacity:0.32;fill:url(#SVGID_00000083046718203423459290000009806429294298651560_);enable-background:new    ;" d="&#10;&#9;&#9;M111.5,289.6c-4.8,1.5-9.6,2.8-14.5,3.9c-3,0.5-6,0.9-9.1,1l-5.1-3.5l-35.3-26.2l27-9l63.8,22.2&#10;&#9;&#9;C130.5,283.9,120.7,286.8,111.5,289.6z"/>
	<path class="st11_fast-food-6 targetColor" d="M61.6,237.6c6.4-0.6,13.1-2.5,17.8-6.8v18.9c0,10.8-8.8,19.6-19.6,19.6l0,0c-10.8,0-19.6-8.8-19.6-19.6v-19.2&#10;&#9;&#9;C46.9,233.2,54.5,238.2,61.6,237.6z" style="fill: rgb(176, 176, 176);"/>
	<ellipse class="st12_fast-food-6" cx="59.8" cy="230.7" rx="19.6" ry="10.4"/>
	<path class="st12_fast-food-6" d="M59.8,232.4c0,0,13.3-2,16.9-23.5C76.7,208.9,65.3,215.2,59.8,232.4z"/>
	<path class="st12_fast-food-6" d="M57.8,229.7c0,0,15.3-27.4,0-45.8C53.2,198.8,53.2,214.8,57.8,229.7z"/>
	<path class="st12_fast-food-6" d="M59.8,212.4c0,0,13.3-2,16.9-23.5C76.7,188.9,65.3,195.2,59.8,212.4z"/>
	<path class="st12_fast-food-6" d="M58.2,221.2c0,0,3.3-13.1-15.2-24.6C43,196.6,44.4,209.5,58.2,221.2z"/>
	<ellipse class="st4_fast-food-6" cx="59.8" cy="230.7" rx="19.6" ry="10.4"/>
	<path class="st12_fast-food-6" d="M59.8,232.4c0,0,13.3-2,16.9-23.5C76.7,208.9,65.3,215.2,59.8,232.4z"/>
	<path class="st12_fast-food-6" d="M57.8,229.7c0,0,15.3-27.4,0-45.8C53.2,198.8,53.2,214.8,57.8,229.7z"/>
	<path class="st12_fast-food-6" d="M59.8,212.4c0,0,13.3-2,16.9-23.5C76.7,188.9,65.3,195.2,59.8,212.4z"/>
	<path class="st12_fast-food-6" d="M58.2,221.2c0,0,3.3-13.1-15.2-24.6C43,196.6,44.4,209.5,58.2,221.2z"/>
</g>
<g id="burger_fast-food-6">
	<ellipse class="st13_fast-food-6" cx="296.8" cy="281.2" rx="40.6" ry="23.9"/>
	<path class="st1_fast-food-6" d="M335.4,280.2c-0.3,0.4-7.4,17.5-37.6,17.6c-35.5,0.1-38.5-13.5-39.2-16s-0.2-8,0-7.9s74.9,0.5,75.8,1.6&#10;&#9;&#9;S335.4,280.2,335.4,280.2z"/>
	<path class="st12_fast-food-6" d="M283,254.4l0.8-2.2L279,252c-1.1,3-2.5,5.8-4.2,8.5c-3.1,6.4-6.8,12.4-11.2,18c-0.9,1.3-1.8,2.5-2.8,3.7&#10;&#9;&#9;c-2.4,5.2-9.1,9.3-1.8,9.4c4.8,0.1,7.6-1.9,9.4-2.8c2.3-4.9,4.6-9.8,6.7-14.7C277.5,267.4,280.2,260.9,283,254.4z"/>
	<path class="st12_fast-food-6" d="M288.1,252.4l-2.2-0.1l-1,2.3c-4.4,12.3-8.9,24.5-13.3,36.7c0.5,4.3-1.4,11.4,3.2,8.3&#10;&#9;&#9;c3.9-2.6,4.1-7.7,5.6-8.8c1-3.4,1.9-6.9,2.7-10.4C284.2,271,286.1,261.7,288.1,252.4z"/>
	<path class="st12_fast-food-6" d="M292,254.1c0-0.5,0-1,0.1-1.5l-2-0.1c0.3,0.2,0.4,0.5,0.3,0.8c-2,13.3-3.9,26.7-5.9,40c2.5,3.5,2,7.3,4.1,1.7&#10;&#9;&#9;c1.5-3.9,1.9-6.5,3-7.6l0.1-32.6C291.7,254.5,291.8,254.2,292,254.1z"/>
	<path class="st12_fast-food-6" d="M276.4,251.8h-0.8c0.3,0.3,0.2,0.8-0.1,1.1c0,0-0.1,0.1-0.1,0.1c-6.2,3.7-11.5,8.9-18.1,11.7&#10;&#9;&#9;c-0.2,0.5-0.4,1.1-0.7,1.5c-3.3,5.2-5.9,6.6-2.5,9.6c2.2,2,5.4,0.8,6.8,1.5c5.9-7.4,10.6-15.6,15-24&#10;&#9;&#9;C276,252.9,276.2,252.4,276.4,251.8z"/>
	<path class="st12_fast-food-6" d="M270.8,251.6c0,0-14.9-1.5-16.7,5.3c-0.9,3.3,0.4,4.4,1.6,5.2c6.1-3.4,12.1-6.9,18.1-10.3L270.8,251.6z"/>
	<path class="st12_fast-food-6" d="M295.4,253.2c-0.1-0.2-0.1-0.3-0.2-0.5h-0.4c0.1,0.2,0.2,0.4,0.3,0.7C295.3,253.3,295.3,253.2,295.4,253.2z"/>
	<path class="st12_fast-food-6" d="M293.8,254.7c0,0.7-0.1,1.4-0.1,2.1c0.8,11,3.1,21.9,6.7,32.4c1.2-0.1,1.6-1.1,1.7-3.6&#10;&#9;&#9;c0.1-4.4-4.7-10.5-1.1-11.4c-1.5-3.3-2.3-7-3.5-10.4C296.3,260.6,295.1,257.6,293.8,254.7z"/>
	<path class="st12_fast-food-6" d="M297.1,287.6c0,0.2,0,0.4-0.1,0.6l0.7,0.3c-0.2-0.5-0.5-1-0.7-1.6L297.1,287.6z"/>
	<path class="st12_fast-food-6" d="M275.3,253c0.4-0.2,0.5-0.7,0.3-1.1c0,0-0.1-0.1-0.1-0.1l-1.7-0.1c-6,3.5-12.1,6.9-18.1,10.3&#10;&#9;&#9;c1,0.7,1.9,1.2,1.5,2.7C263.8,261.9,269.1,256.7,275.3,253z"/>
	<path class="st12_fast-food-6" d="M274.7,260.5c1.7-2.7,3.1-5.5,4.2-8.5l-2.5-0.1c-0.2,0.5-0.4,1-0.6,1.6c-4.4,8.4-9.1,16.6-15,24&#10;&#9;&#9;c0.7,0.4,1,1.2,0.5,3.2c-0.1,0.5-0.3,1.1-0.6,1.6c1-1.2,2-2.4,2.8-3.7C267.9,272.9,271.6,266.8,274.7,260.5z"/>
	<path class="st12_fast-food-6" d="M285.9,252.3l-2.1-0.1l-0.8,2.2c-2.8,6.5-5.5,13.1-8,19.7c-2.2,4.9-4.4,9.8-6.7,14.7c1.2-0.6,2.1-0.7,2.8,0.7&#10;&#9;&#9;c0.3,0.6,0.4,1.2,0.5,1.8c4.4-12.2,8.9-24.5,13.3-36.7L285.9,252.3z"/>
	<path class="st12_fast-food-6" d="M290,252.5l-1.9-0.1c-2,9.3-3.9,18.6-5,28c-0.8,3.5-1.7,7-2.7,10.4c0.6-0.4,1.3-0.3,2.5,0.7&#10;&#9;&#9;c0.6,0.5,1.2,1.1,1.6,1.8c2-13.3,3.9-26.7,5.9-40C290.4,253,290.3,252.6,290,252.5z"/>
	<path class="st12_fast-food-6" d="M295.8,252.7h-0.6c0.1,0.2,0.1,0.3,0.2,0.5c-0.1,0-0.2,0.1-0.2,0.2c-0.1-0.2-0.2-0.5-0.3-0.7l-2.8-0.1&#10;&#9;&#9;c0,0.5,0,1-0.1,1.5c-0.2,0.2-0.4,0.5-0.4,0.7l-0.1,32.6c0.8-0.7,1.9-0.7,4,0.2l1.5,0.6c0.1-0.2,0.2-0.4,0.1-0.6l-0.1-0.7&#10;&#9;&#9;c0.2,0.5,0.5,1,0.7,1.6c0.8,0.4,1.7,0.6,2.6,0.6c-3.6-10.4-5.9-21.3-6.7-32.4c0.1-0.7,0.1-1.4,0.1-2.1c1.3,3,2.6,6,3.7,9.1&#10;&#9;&#9;c1.2,3.4,2,7.1,3.5,10.4h0.2C305,273.3,295.8,252.7,295.8,252.7z"/>
	<path class="st14_fast-food-6" d="M331.6,271.5c0,0,2.8,10.2,3.8,15.7c-3.3-2.1-7.1-3.5-11-4.1c-6.4-1-44,2-44,2s-9.4,2.8-11.4,4&#10;&#9;&#9;c-2.6,1.8-5,3.7-7.3,5.7c0,0-1.8-9.8-1.7-13.4c0.1-2.9,0.8-10.2,0.8-10.2"/>
	<path class="st12_fast-food-6" d="M304.1,254.6l-1.3-1.9l4.7-1.4c1.8,2.6,3.8,5.1,6.1,7.2c4.5,5.5,9.6,10.4,15.1,14.8c1.2,1,2.4,2,3.6,2.9&#10;&#9;&#9;c3.6,4.5,11,6.8,4,8.7c-4.6,1.2-7.8-0.1-9.8-0.5c-3.4-4.2-6.8-8.4-10-12.7C312.6,266,308.4,260.3,304.1,254.6z"/>
	<path class="st12_fast-food-6" d="M298.7,253.9l2.1-0.6l1.5,2l21.7,32.5c0.5,4.3,4.1,10.7-1.1,8.8c-4.4-1.6-5.8-6.5-7.6-7.2&#10;&#9;&#9;c-1.8-3.1-3.5-6.3-5.1-9.5C306.9,271,302.8,262.4,298.7,253.9z"/>
	<path class="st12_fast-food-6" d="M295.3,256.5c-0.1-0.5-0.3-1-0.4-1.5l2-0.6c-0.2,0.2-0.3,0.6-0.1,0.9l15.3,37.4c-1.6,4-0.2,7.5-3.6,2.6&#10;&#9;&#9;c-2.4-3.4-3.4-5.9-4.7-6.7l-7.8-31.6C295.8,256.8,295.6,256.6,295.3,256.5z"/>
	<path class="st12_fast-food-6" d="M309.9,250.6l0.8-0.2c-0.2,0.4,0,0.9,0.4,1c0,0,0.1,0,0.2,0.1c6.9,2.1,13.3,5.9,20.4,7.1&#10;&#9;&#9;c0.3,0.5,0.7,0.9,1.1,1.3c4.4,4.3,7.3,5,4.7,8.8c-1.7,2.5-5.1,2-6.3,3.1c-7.5-5.8-14-12.6-20.3-19.7L309.9,250.6z"/>
	<path class="st12_fast-food-6" d="M315.3,249c0,0,14.1-5,17.5,1.1c1.6,3,0.6,4.4-0.4,5.5c-6.7-1.9-13.4-3.8-20.1-5.7L315.3,249z"/>
	<path class="st12_fast-food-6" d="M291.7,256.4c0-0.2,0-0.3,0.1-0.5l0.4-0.1c0,0.2-0.1,0.5-0.1,0.7C291.9,256.5,291.8,256.5,291.7,256.4z"/>
	<path class="st12_fast-food-6" d="M293.7,257.5c0.2,0.7,0.4,1.3,0.6,2c1.8,10.9,2.2,22,1.2,33c-1.2,0.2-1.8-0.7-2.5-3.1&#10;&#9;&#9;c-1.2-4.3,2-11.3-1.7-11.4c0.7-3.6,0.6-7.3,0.9-10.9C292.6,263.9,293.1,260.7,293.7,257.5z"/>
	<path class="st12_fast-food-6" d="M298.3,290.3c0,0.2,0.1,0.4,0.3,0.6l-0.6,0.5c0.1-0.6,0.2-1.1,0.3-1.7L298.3,290.3z"/>
	<path class="st12_fast-food-6" d="M311.2,251.4c-0.4-0.1-0.7-0.5-0.6-0.9c0-0.1,0-0.1,0.1-0.2l1.6-0.5c6.7,1.9,13.4,3.9,20.1,5.7&#10;&#9;&#9;c-0.8,0.9-1.5,1.6-0.8,2.9C324.5,257.3,318.1,253.5,311.2,251.4z"/>
	<path class="st12_fast-food-6" d="M313.6,258.5c-2.3-2.2-4.4-4.6-6.1-7.2l2.4-0.7l1,1.4c6.3,7.1,12.8,13.9,20.3,19.7c-0.6,0.5-0.7,1.4,0.3,3.2&#10;&#9;&#9;c0.3,0.5,0.6,0.9,0.9,1.4c-1.3-0.9-2.5-1.9-3.6-2.9C323.2,269,318.2,264,313.6,258.5z"/>
	<path class="st12_fast-food-6" d="M300.8,253.3l2-0.6l1.3,1.9c4.3,5.7,8.5,11.3,12.4,17.2c3.3,4.3,6.6,8.5,10,12.7c-1.4-0.3-2.2-0.2-2.5,1.4&#10;&#9;&#9;c-0.1,0.6-0.1,1.3,0,1.9l-21.7-32.5L300.8,253.3z"/>
	<path class="st12_fast-food-6" d="M296.8,254.4l1.8-0.5c4.2,8.5,8.2,17.1,11.6,26c1.6,3.2,3.3,6.4,5.1,9.5c-0.6-0.3-1.3,0-2.2,1.3&#10;&#9;&#9;c-0.5,0.7-0.8,1.4-1.1,2.1l-15.2-37.4C296.6,255,296.6,254.7,296.8,254.4z"/>
	<path class="st12_fast-food-6" d="M291.2,256.1l0.6-0.2c0,0.2,0,0.3-0.1,0.5c0.1,0,0.2,0.1,0.3,0.1c0-0.2,0.1-0.5,0.1-0.7l2.7-0.8&#10;&#9;&#9;c0.1,0.5,0.3,1,0.4,1.5c0.3,0.1,0.5,0.3,0.5,0.6l7.8,31.6c-0.9-0.5-2-0.2-3.8,1.1l-1.3,1c-0.2-0.1-0.3-0.3-0.3-0.6l-0.1-0.7&#10;&#9;&#9;c-0.1,0.6-0.2,1.1-0.3,1.7c-0.7,0.6-1.5,1-2.4,1.2c1-11,0.6-22.1-1.2-33c-0.2-0.7-0.4-1.3-0.6-2c-0.6,3.2-1.1,6.4-1.4,9.7&#10;&#9;&#9;c-0.4,3.6-0.2,7.3-0.9,10.9h-0.2C287.3,278.2,291.2,256.1,291.2,256.1z"/>
	<path class="st12_fast-food-6" d="M324.4,278.7v4.3c0,0-4.7,8.7-20.5,2.6l0.4-2"/>
	<path class="st15_fast-food-6" d="M324.4,278.7v4.3c0,0-4.7,8.7-20.5,2.6l0.4-2"/>
	<path class="st16_fast-food-6" d="M324.4,278.7c0,0,0,4.5-7.6,6.6s-12.4-1.6-12.4-1.6L324.4,278.7z"/>
	<path class="st17_fast-food-6" d="M339.3,271.2v3.6c0,0-0.1,6.6-15.5,6.4v-2.3c0,0,7.1-0.6,10.2-2C337.7,275.2,339.2,272.9,339.3,271.2z"/>
	<ellipse class="st17_fast-food-6" cx="326.5" cy="271.4" rx="12.8" ry="7.5"/>
	<path class="st17_fast-food-6" d="M335.5,267.3c1.2,0.8,2.1,2.1,2.2,3.6c0,2.3-1,3.4-2.2,3.4s-4.3-4.1-5.4-3.1s3.5,4.1,2.6,5.2s-9,2.1-10.5,1&#10;&#9;&#9;s-3.2-6.5,1.1-8S335.5,267.3,335.5,267.3z"/>
	<path class="st17_fast-food-6" d="M256.1,272.2v3.6c0,0,1.2,7.5,19.3,5l-1-1.6c0,0-9.9,0.1-13-1.4C257.8,276.2,256.3,273.9,256.1,272.2z"/>
	<ellipse class="st17_fast-food-6" cx="269" cy="272.4" rx="12.8" ry="7.5"/>
	<path class="st17_fast-food-6" d="M260,268.4c-1.2,0.8-2.1,2.1-2.2,3.6c0,2.3,1,3.4,2.2,3.4s4.3-4.1,5.4-3.1s-3.5,4.1-2.6,5.2s9,2.1,10.5,1&#10;&#9;&#9;s3.2-6.5-1.1-8S260,268.4,260,268.4z"/>
	<path class="st15_fast-food-6" d="M256.1,272.2v3.6c0,0,1.2,7.5,19.3,5l-1-1.6c0,0-9.9,0.1-13-1.4C257.8,276.2,256.3,273.9,256.1,272.2z"/>
	<path class="st12_fast-food-6" d="M267.2,278.7v4.3c0,0,4.8,8.7,20.5,2.6l-0.4-2"/>
	<path class="st15_fast-food-6" d="M267.2,278.7v4.3c0,0,4.8,8.7,20.5,2.6l-0.4-2"/>
	<path class="st16_fast-food-6" d="M267.2,278.7c0,0,0,4.5,7.6,6.6s12.4-1.6,12.4-1.6L267.2,278.7z"/>
	<path class="st17_fast-food-6" d="M311.6,284.6v4c0,0-2.9,4.9-14.6,4.9s-14.3-5.1-14.3-5.2v-3.6"/>
	<path class="st15_fast-food-6" d="M311.6,284.6v4c0,0-2.9,4.9-14.6,4.9s-14.3-5.1-14.3-5.2v-3.6"/>
	<ellipse class="st17_fast-food-6" cx="297.1" cy="285" rx="14.5" ry="6.8"/>
	<path class="st17_fast-food-6" d="M309.9,284.6c0,0-2.9,4.3-6.5,4.4s-4.4-4.3-5.8-3.2s-0.9,4.2-3.9,3.9s-9.1-2.8-9.2-4.7"/>
	<path class="st15_fast-food-6" d="M339.3,271.2v3.6c0,0-0.1,6.6-15.5,6.4v-2.3c0,0,7.1-0.6,10.2-2C337.7,275.2,339.2,272.9,339.3,271.2z"/>
	<path class="st15_fast-food-6" d="M335.5,267.3c1.2,0.8,2.1,2.1,2.2,3.6c0,2.3-1,3.4-2.2,3.4s-4.3-4.1-5.4-3.1s3.5,4.1,2.6,5.2s-9,2.1-10.5,1&#10;&#9;&#9;s-3.2-6.5,1.1-8S335.5,267.3,335.5,267.3z"/>
	<path class="st15_fast-food-6" d="M260,268.4c-1.2,0.8-2.1,2.1-2.2,3.6c0,2.3,1,3.4,2.2,3.4s4.3-4.1,5.4-3.1s-3.5,4.1-2.6,5.2s9,2.1,10.5,1&#10;&#9;&#9;s3.2-6.5-1.1-8S260,268.4,260,268.4z"/>
	<path class="st15_fast-food-6" d="M309.9,284.6c0,0-2.9,4.3-6.5,4.4s-4.4-4.3-5.8-3.2s-0.9,4.2-3.9,3.9s-9.1-2.8-9.2-4.7"/>
	<ellipse class="st13_fast-food-6" cx="296.1" cy="260.4" rx="41.3" ry="26.7"/>
	<path class="st15_fast-food-6" d="M267.8,279.5c14.2,6.2,33.7,6,47.6-1c7.3-3.7,14.2-9.5,17.3-17.1c1.8-4.3,1.8-9.1,0-13.4&#10;&#9;&#9;c3,3.4,4.6,7.8,4.7,12.4c0,14.7-18.5,26.7-41.3,26.7c-11.5,0-22-3.1-29.5-8C267.1,279.2,267.4,279.4,267.8,279.5z"/>
	<ellipse class="st3_fast-food-6" cx="300" cy="245.9" rx="2.1" ry="0.7"/>
	<ellipse class="st3_fast-food-6" cx="291.6" cy="252.7" rx="2.1" ry="0.7"/>
	<ellipse class="st3_fast-food-6" cx="314.2" cy="247.1" rx="2.1" ry="0.7"/>
	<ellipse class="st3_fast-food-6" cx="306" cy="254.7" rx="2.1" ry="0.7"/>
	<ellipse class="st3_fast-food-6" cx="278.9" cy="244.1" rx="2.1" ry="0.7"/>
	<ellipse class="st3_fast-food-6" cx="273.8" cy="256.7" rx="2.1" ry="0.7"/>
	<ellipse class="st3_fast-food-6" cx="288.1" cy="264.7" rx="2.1" ry="0.7"/>
	<ellipse class="st3_fast-food-6" cx="307.5" cy="263.4" rx="2.1" ry="0.7"/>
	<ellipse class="st13_fast-food-6" cx="200.8" cy="234.3" rx="47" ry="27.7"/>
	<path class="st1_fast-food-6" d="M245.4,233.2c-0.4,0.5-8.6,20.3-43.5,20.4c-41.1,0.1-44.6-15.7-45.4-18.6s-0.2-9.2,0-9.1s86.6,0.6,87.8,1.9&#10;&#9;&#9;S245.4,233.2,245.4,233.2z"/>
	<path class="st12_fast-food-6" d="M184.7,203.3c0.3-0.8,0.6-1.7,0.9-2.5l-5.6-0.3c-1.3,3.4-2.9,6.7-4.9,9.8c-3.6,7.4-7.9,14.4-12.9,20.8&#10;&#9;&#9;c-1,1.5-2.1,2.9-3.3,4.2c-2.8,6.1-10.5,10.7-2.1,10.9c5.5,0.1,8.7-2.2,10.9-3.2c2.7-5.6,5.3-11.3,7.8-17&#10;&#9;&#9;C178.4,218.4,181.5,210.8,184.7,203.3z"/>
	<path class="st12_fast-food-6" d="M190.7,201l-2.6-0.1c-0.4,0.9-0.8,1.8-1.1,2.7c-5.1,14.2-10.3,28.3-15.4,42.5c0.6,5-1.6,13.2,3.7,9.6&#10;&#9;&#9;c4.5-3,4.8-8.9,6.5-10.2c1.1-4,2.2-8,3.1-12C186.1,222.5,188.4,211.7,190.7,201z"/>
	<path class="st12_fast-food-6" d="M195.2,202.9c0-0.6,0.1-1.2,0.1-1.8l-2.4-0.1c0.3,0.2,0.5,0.6,0.4,1c-2.3,15.4-4.5,30.9-6.8,46.3&#10;&#9;&#9;c2.9,4.1,2.3,8.4,4.8,1.9c1.7-4.5,2.1-7.6,3.4-8.8c0-12.6,0-25.1,0.1-37.7C194.8,203.5,194.9,203.1,195.2,202.9z"/>
	<path class="st12_fast-food-6" d="M177.1,200.3l-1-0.1c0.3,0.4,0.3,0.9-0.1,1.3c-0.1,0-0.1,0.1-0.2,0.1c-7.2,4.2-13.3,10.3-21,13.6&#10;&#9;&#9;c-0.2,0.6-0.5,1.2-0.9,1.8c-3.8,6.1-6.8,7.6-2.9,11.1c2.6,2.3,6.3,0.9,7.9,1.7c6.9-8.5,12.2-18.1,17.4-27.7&#10;&#9;&#9;C176.7,201.5,176.9,200.9,177.1,200.3z"/>
	<path class="st12_fast-food-6" d="M170.6,200c0,0-17.2-1.8-19.3,6.1c-1,3.8,0.5,5.1,1.9,6c7-3.9,14-7.9,21-12L170.6,200z"/>
	<path class="st12_fast-food-6" d="M199.2,201.9c-0.1-0.2-0.1-0.4-0.2-0.6h-0.4c0.1,0.3,0.2,0.5,0.4,0.8C199,202,199.1,202,199.2,201.9z"/>
	<path class="st12_fast-food-6" d="M197.2,203.6c-0.1,0.8-0.1,1.6-0.2,2.4c1,12.8,3.6,25.3,7.8,37.4c1.4-0.1,1.9-1.3,1.9-4.1&#10;&#9;&#9;c0.1-5.1-5.4-12.1-1.3-13.2c-1.8-3.8-2.6-8-4-12C200.2,210.5,198.8,207,197.2,203.6z"/>
	<path class="st12_fast-food-6" d="M201.1,241.7c0,0.2,0,0.5-0.1,0.7c0.3,0.1,0.6,0.2,0.8,0.3c-0.3-0.6-0.5-1.2-0.8-1.8L201.1,241.7z"/>
	<path class="st12_fast-food-6" d="M175.9,201.7c0.4-0.2,0.6-0.8,0.4-1.2c0-0.1-0.1-0.1-0.1-0.2l-2-0.1c-7,4-14,8-21,12c1.1,0.8,2.2,1.4,1.7,3.1&#10;&#9;&#9;C162.6,211.9,168.7,205.9,175.9,201.7z"/>
	<path class="st12_fast-food-6" d="M175.1,210.3c2-3.1,3.6-6.4,4.9-9.8l-2.9-0.1c-0.2,0.6-0.5,1.2-0.7,1.8c-5.1,9.7-10.5,19.2-17.4,27.7&#10;&#9;&#9;c0.8,0.4,1.1,1.4,0.6,3.7c-0.2,0.6-0.4,1.2-0.6,1.8c1.2-1.3,2.3-2.8,3.3-4.2C167.2,224.7,171.6,217.7,175.1,210.3z"/>
	<path class="st12_fast-food-6" d="M188.1,200.8l-2.4-0.1c-0.3,0.8-0.6,1.7-0.9,2.5c-3.2,7.5-6.4,15.1-9.2,22.8c-2.5,5.7-5.1,11.4-7.8,17&#10;&#9;&#9;c1.4-0.7,2.4-0.8,3.2,0.9c0.3,0.7,0.5,1.4,0.6,2.1c5.2-14.2,10.3-28.3,15.4-42.5C187.3,202.6,187.7,201.7,188.1,200.8z"/>
	<path class="st12_fast-food-6" d="M192.9,201.1l-2.2-0.1c-2.3,10.8-4.5,21.5-5.8,32.4c-0.9,4-2,8-3.1,12c0.6-0.5,1.5-0.3,2.9,0.8&#10;&#9;&#9;c0.7,0.6,1.3,1.3,1.9,2.1c2.3-15.4,4.5-30.9,6.8-46.3C193.3,201.6,193.2,201.3,192.9,201.1z"/>
	<path class="st12_fast-food-6" d="M199.6,201.4H199c0.1,0.2,0.1,0.4,0.2,0.6c-0.1,0.1-0.2,0.1-0.3,0.2c-0.1-0.3-0.2-0.5-0.4-0.8l-3.3-0.1&#10;&#9;&#9;c0,0.6,0,1.2-0.1,1.8c-0.3,0.2-0.4,0.5-0.4,0.9c0,12.6,0,25.1-0.1,37.7c0.9-0.8,2.2-0.8,4.6,0.2c0.6,0.3,1.2,0.5,1.7,0.7&#10;&#9;&#9;c0.1-0.2,0.2-0.4,0.1-0.7l-0.1-0.8c0.2,0.6,0.5,1.2,0.8,1.8c0.9,0.4,2,0.7,3,0.7c-4.2-12.1-6.8-24.7-7.7-37.5&#10;&#9;&#9;c0.1-0.8,0.1-1.6,0.2-2.4c1.6,3.4,3,6.9,4.2,10.5c1.4,4,2.3,8.2,4,12l0.2-0.1C210.2,225.2,199.6,201.4,199.6,201.4z"/>
	<path class="st14_fast-food-6" d="M241.1,223.1c0,0,3.2,11.8,4.4,18.2c-3.9-2.4-8.2-4.1-12.7-4.8c-7.4-1.1-51,2.3-51,2.3s-10.9,3.3-13.2,4.7&#10;&#9;&#9;c-3,2-5.8,4.2-8.5,6.6c0,0-2.1-11.3-2-15.5c0.1-3.3,0.9-11.8,0.9-11.8"/>
	<path class="st12_fast-food-6" d="M209.2,203.5c-0.5-0.7-1-1.5-1.5-2.2l5.4-1.6c2.1,3,4.4,5.9,7.1,8.4c5.2,6.3,11.1,12.1,17.5,17.1&#10;&#9;&#9;c1.3,1.2,2.7,2.3,4.2,3.3c4.1,5.2,12.8,7.9,4.6,10.1c-5.3,1.4-9-0.1-11.4-0.6c-4-4.8-7.9-9.7-11.6-14.7&#10;&#9;&#9;C219,216.7,214.2,210.1,209.2,203.5z"/>
	<path class="st12_fast-food-6" d="M202.9,202.7l2.5-0.7l1.8,2.3l25.1,37.6c0.6,5,4.7,12.4-1.3,10.2c-5.1-1.9-6.8-7.5-8.8-8.4&#10;&#9;&#9;c-2.1-3.6-4-7.2-5.9-10.9C212.5,222.5,207.7,212.6,202.9,202.7z"/>
	<path class="st12_fast-food-6" d="M199,205.7c-0.2-0.6-0.3-1.1-0.5-1.7l2.3-0.7c-0.2,0.3-0.3,0.7-0.1,1l17.6,43.4c-1.8,4.7-0.2,8.7-4.2,3&#10;&#9;&#9;c-2.8-4-3.9-6.8-5.4-7.7l-9.1-36.6C199.5,206.1,199.3,205.8,199,205.7z"/>
	<path class="st12_fast-food-6" d="M215.9,198.9l0.9-0.3c-0.2,0.4,0,1,0.4,1.2c0.1,0,0.1,0.1,0.2,0.1c8,2.4,15.4,6.8,23.6,8.2&#10;&#9;&#9;c0.3,0.6,0.8,1.1,1.2,1.5c5.1,5,8.4,5.8,5.5,10.1c-2,2.9-5.9,2.4-7.3,3.6c-8.7-6.6-16.2-14.6-23.5-22.8L215.9,198.9z"/>
	<path class="st12_fast-food-6" d="M222.2,197.1c0,0,16.3-5.8,20.2,1.3c1.9,3.5,0.7,5-0.4,6.3c-7.8-2.1-15.5-4.4-23.2-6.6L222.2,197.1z"/>
	<path class="st12_fast-food-6" d="M194.9,205.6c0-0.2,0-0.4,0.1-0.6l0.4-0.1c0,0.3-0.1,0.6-0.2,0.9C195.1,205.7,195,205.7,194.9,205.6z"/>
	<path class="st12_fast-food-6" d="M197.2,206.9c0.2,0.8,0.5,1.6,0.7,2.3c2.1,12.6,2.6,25.5,1.4,38.2c-1.4,0.2-2.1-0.8-2.9-3.6&#10;&#9;&#9;c-1.3-4.9,2.4-13.1-1.9-13.1c0.8-4.1,0.7-8.4,1.1-12.6C195.9,214.3,196.5,210.6,197.2,206.9z"/>
	<path class="st12_fast-food-6" d="M202.5,244.8c0,0.2,0.1,0.5,0.3,0.6l-0.7,0.5c0.1-0.6,0.2-1.3,0.3-1.9L202.5,244.8z"/>
	<path class="st12_fast-food-6" d="M217.5,199.9c-0.5-0.1-0.8-0.6-0.7-1.1c0-0.1,0-0.1,0.1-0.2l1.9-0.6c7.7,2.2,15.5,4.5,23.2,6.6&#10;&#9;&#9;c-0.9,1-1.8,1.9-0.9,3.4C232.9,206.7,225.5,202.3,217.5,199.9z"/>
	<path class="st12_fast-food-6" d="M220.2,208.1c-2.7-2.5-5.1-5.3-7.1-8.4l2.8-0.8l1.1,1.6c7.3,8.2,14.8,16.1,23.5,22.8&#10;&#9;&#9;c-0.7,0.6-0.8,1.6,0.4,3.7c0.3,0.6,0.7,1.1,1.1,1.6c-1.5-1-2.9-2.1-4.2-3.3C231.3,220.2,225.5,214.4,220.2,208.1z"/>
	<path class="st12_fast-food-6" d="M205.4,202l2.3-0.7c0.5,0.7,1,1.5,1.5,2.2c4.9,6.6,9.8,13.1,14.4,19.9c3.8,5,7.7,9.9,11.6,14.7&#10;&#9;&#9;c-1.6-0.3-2.5-0.2-2.9,1.6c-0.1,0.7-0.1,1.5,0,2.2l-25.2-37.6L205.4,202z"/>
	<path class="st12_fast-food-6" d="M200.8,203.4l2.1-0.6c4.8,9.9,9.5,19.8,13.4,30.1c1.9,3.7,3.8,7.4,5.9,10.9c-0.8-0.3-1.6,0-2.6,1.5&#10;&#9;&#9;c-0.5,0.8-1,1.6-1.3,2.5l-17.6-43.4C200.5,204,200.6,203.6,200.8,203.4z"/>
	<path class="st12_fast-food-6" d="M194.3,205.2l0.6-0.2c0,0.2,0,0.4-0.1,0.6c0.1,0,0.2,0.1,0.3,0.1c0.1-0.3,0.1-0.6,0.2-0.9l3.1-0.9&#10;&#9;&#9;c0.2,0.6,0.3,1.1,0.5,1.7c0.3,0.1,0.5,0.4,0.6,0.7l9.1,36.6c-1.1-0.6-2.3-0.3-4.4,1.3l-1.5,1.1c-0.2-0.2-0.3-0.4-0.3-0.6l-0.1-0.8&#10;&#9;&#9;c-0.1,0.6-0.2,1.3-0.3,1.9c-0.8,0.6-1.8,1.1-2.8,1.4c1.2-12.7,0.7-25.6-1.4-38.2c-0.2-0.8-0.5-1.5-0.7-2.3&#10;&#9;&#9;c-0.7,3.7-1.2,7.4-1.6,11.2c-0.4,4.2-0.2,8.5-1.1,12.6h-0.2C189.7,230.9,194.3,205.2,194.3,205.2z"/>
	<path class="st12_fast-food-6" d="M232.7,231.4v5.1c0,0-5.5,10.1-23.7,3l0.5-2.3"/>
	<path class="st12_fast-food-6" d="M232.7,231.4c0,0,0,5.2-8.9,7.6s-14.3-1.9-14.3-1.9L232.7,231.4z"/>
	<path class="st17_fast-food-6" d="M250,222.7v4.2c0,0-0.1,7.6-17.9,7.4v-2.6c0,0,8.2-0.7,11.8-2.4C248.1,227.4,249.8,224.7,250,222.7z"/>
	<path class="st15_fast-food-6" d="M250,222.7v4.2c0,0-0.1,7.6-17.9,7.4v-2.6c0,0,8.2-0.7,11.8-2.4C248.1,227.4,249.8,224.7,250,222.7z"/>
	<ellipse class="st17_fast-food-6" cx="235.2" cy="223" rx="14.8" ry="8.7"/>
	<path class="st15_fast-food-6" d="M245.6,218.3c1.4,0.9,2.4,2.5,2.5,4.2c0,2.7-1.2,3.9-2.5,3.9s-5-4.7-6.2-3.6s4.1,4.7,3,6.1&#10;&#9;&#9;s-10.4,2.4-12.2,1.1s-3.7-7.5,1.3-9.2S245.6,218.3,245.6,218.3z"/>
	<path class="st17_fast-food-6" d="M153.7,223.9v4.2c0,0,1.4,8.7,22.3,5.8l-1.1-1.9c0,0-11.5,0.1-15.1-1.6C155.6,228.5,153.9,225.9,153.7,223.9z&#10;&#9;&#9;"/>
	<path class="st15_fast-food-6" d="M153.7,223.9v4.2c0,0,1.4,8.7,22.3,5.8l-1.1-1.9c0,0-11.5,0.1-15.1-1.6C155.6,228.5,153.9,225.9,153.7,223.9z&#10;&#9;&#9;"/>
	<ellipse class="st17_fast-food-6" cx="168.5" cy="224.2" rx="14.8" ry="8.7"/>
	<path class="st15_fast-food-6" d="M158.1,219.4c-1.4,0.9-2.4,2.5-2.5,4.2c0,2.7,1.2,3.9,2.5,3.9s5-4.7,6.2-3.6s-4.1,4.7-3,6.1&#10;&#9;&#9;s10.4,2.4,12.2,1.1s3.7-7.5-1.3-9.2S158.1,219.4,158.1,219.4z"/>
	<path class="st12_fast-food-6" d="M166.5,231.4v5.1c0,0,5.5,10.1,23.7,3l-0.5-2.3"/>
	<path class="st15_fast-food-6" d="M232.7,231.4v5.1c0,0-5.5,10.1-23.7,3l0.5-2.3"/>
	<path class="st15_fast-food-6" d="M166.5,231.4v5.1c0,0,5.5,10.1,23.7,3l-0.5-2.3"/>
	<path class="st12_fast-food-6" d="M166.5,231.4c0,0,0,5.2,8.9,7.6s14.3-1.9,14.3-1.9L166.5,231.4z"/>
	<path class="st16_fast-food-6" d="M232.7,231.4c0,0,0,5.2-8.9,7.6s-14.3-1.9-14.3-1.9L232.7,231.4z"/>
	<path class="st16_fast-food-6" d="M166.5,231.4c0,0,0,5.2,8.9,7.6s14.3-1.9,14.3-1.9L166.5,231.4z"/>
	<path class="st17_fast-food-6" d="M217.9,238.2v4.6c0,0-3.4,5.7-16.9,5.7s-16.6-5.9-16.6-6.1v-4.2"/>
	<path class="st15_fast-food-6" d="M217.9,238.2v4.6c0,0-3.4,5.7-16.9,5.7s-16.6-5.9-16.6-6.1v-4.2"/>
	<ellipse class="st17_fast-food-6" cx="201.1" cy="238.7" rx="16.7" ry="7.8"/>
	<path class="st17_fast-food-6" d="M215.9,238.2c0,0-3.4,5-7.5,5.1s-5.1-5-6.7-3.7s-1.1,4.9-4.4,4.5s-10.5-3.2-10.6-5.5"/>
	<path class="st15_fast-food-6" d="M215.9,238.2c0,0-3.4,5-7.5,5.1s-5.1-5-6.7-3.7s-1.1,4.9-4.4,4.5s-10.5-3.2-10.6-5.5"/>
	<ellipse class="st13_fast-food-6" cx="200" cy="210.2" rx="47.8" ry="30.9"/>
	<path class="st15_fast-food-6" d="M167.2,232.4c16.4,7.2,39,6.9,55-1.2c8.4-4.3,16.4-11,20-19.7c2.1-5,2.1-10.6,0.1-15.5c3.4,4,5.3,9,5.4,14.3&#10;&#9;&#9;c0,17.1-21.4,30.9-47.8,30.9c-13.4,0-25.4-3.6-34.1-9.3C166.3,232,166.8,232.2,167.2,232.4z"/>
	<ellipse class="st3_fast-food-6" cx="204.4" cy="193.5" rx="2.4" ry="0.9"/>
	<ellipse class="st3_fast-food-6" cx="194.7" cy="201.3" rx="2.4" ry="0.9"/>
	<ellipse class="st3_fast-food-6" cx="220.9" cy="194.8" rx="2.4" ry="0.9"/>
	<ellipse class="st3_fast-food-6" cx="211.4" cy="203.6" rx="2.4" ry="0.9"/>
	<ellipse class="st3_fast-food-6" cx="180.1" cy="191.4" rx="2.4" ry="0.9"/>
	<ellipse class="st3_fast-food-6" cx="174.2" cy="206" rx="2.4" ry="0.9"/>
	<ellipse class="st3_fast-food-6" cx="190.7" cy="215.2" rx="2.4" ry="0.9"/>
	<ellipse class="st3_fast-food-6" cx="213.1" cy="213.7" rx="2.4" ry="0.9"/>
</g>
<g id="drinks_fast-food-6">
	<path class="st18_fast-food-6" d="M193.9,74.9c0,0-1.2,0.5-0.7,2.7s1.7,2.1,2.5,1.9S195.9,74.8,193.9,74.9z"/>
	<path class="st11_fast-food-6 targetColor" d="M256.5,118.8l-8.3,58.3c-4.5,4.7-10.7,7.4-17.2,7.5c-10.8,0-15.8-6.1-16.1-8.6s-7.2-57.2-7.2-57.2&#10;&#9;&#9;L256.5,118.8z" style="fill: rgb(176, 176, 176);"/>
	<path class="st4_fast-food-6" d="M245.2,118.8h11.3l-8.3,58.3c-3,3.1-6.7,5.4-10.8,6.6C241,162.2,244.3,140.6,245.2,118.8z"/>
	<polyline class="st18_fast-food-6" points="257.6,111.8 257.6,116.1 206.5,116.8 206.5,111.8 &#9;"/>
	<ellipse class="st18_fast-food-6" cx="232" cy="116" rx="25.6" ry="17"/>
	<ellipse class="st3_fast-food-6" cx="232" cy="111.8" rx="25.6" ry="17"/>
	<ellipse class="st18_fast-food-6" cx="232" cy="110.9" rx="19.9" ry="11.8"/>
	<ellipse class="st3_fast-food-6" cx="232" cy="110.9" rx="15.8" ry="9.4"/>
	<path class="st4_fast-food-6" d="M227.5,111.5c1.1-0.4,2.1-0.8,3.2-1.3l-2.5-1.3c-0.4-0.2-0.1-0.8,0.3-0.6c1,0.5,2.1,1,3.1,1.6&#10;&#9;&#9;c1.3-0.5,2.6-1.1,3.9-1.6c0.2-0.1,0.4,0,0.4,0.2c0.1,0.2,0,0.4-0.2,0.4l0,0c-1.1,0.5-2.2,0.9-3.3,1.4c1.3,0.7,2.5,1.3,3.8,2&#10;&#9;&#9;c0.4,0.2,0.1,0.8-0.3,0.6c-1.4-0.8-2.9-1.6-4.3-2.3c-1.2,0.5-2.5,1-3.7,1.5C227.4,112.3,227.1,111.7,227.5,111.5z"/>
	<path class="st18_fast-food-6" d="M193.9,74.9L218,70c6.6,0.2,8.5,6.8,8.5,6.8l7,32.2c0.8,0.4-4.5,1.8-4.5,1.8s-5.5-29.6-7.1-32.6&#10;&#9;&#9;c-0.9-1.7-2.6-3-4.5-3.3c0,0-15.8,3.2-21.8,4.6C195.9,77.7,195.2,76,193.9,74.9z"/>
	<path class="st18_fast-food-6" d="M258.9,109c0,0-1.2,0.5-0.7,2.7s1.7,2.1,2.5,1.9S260.9,108.8,258.9,109z"/>
	<path class="st4_fast-food-6" d="M193.9,74.9c0,0-1.2,0.5-0.7,2.7s1.7,2.1,2.5,1.9S195.9,74.8,193.9,74.9z"/>
	<path class="st4_fast-food-6" d="M258.9,109c0,0-1.2,0.5-0.7,2.7s1.7,2.1,2.5,1.9S260.9,108.8,258.9,109z"/>
	<path class="st11_fast-food-6 targetColor" d="M321.5,152.8l-8.3,58.3c-4.5,4.7-10.7,7.4-17.2,7.5c-10.8,0-15.8-6.1-16.1-8.6s-7.2-57.2-7.2-57.2H321.5z" style="fill: rgb(176, 176, 176);"/>
	<path class="st4_fast-food-6" d="M310.2,152.9h11.3l-8.3,58.3c-3,3.1-6.7,5.4-10.8,6.6C306,196.2,309.3,174.7,310.2,152.9z"/>
	<polyline class="st18_fast-food-6" points="322.6,145.9 322.6,150.1 271.5,150.9 271.5,145.9 &#9;"/>
	<ellipse class="st18_fast-food-6" cx="297" cy="150.1" rx="25.5" ry="17"/>
	<ellipse class="st3_fast-food-6" cx="297" cy="145.9" rx="25.5" ry="17"/>
	<ellipse class="st18_fast-food-6" cx="297" cy="145" rx="19.9" ry="11.8"/>
	<ellipse class="st3_fast-food-6" cx="297" cy="145" rx="15.8" ry="9.4"/>
	<path class="st4_fast-food-6" d="M292.5,145.6c1.1-0.4,2.1-0.8,3.2-1.2c-0.8-0.4-1.7-0.9-2.5-1.3c-0.4-0.2-0.1-0.8,0.3-0.6c1,0.5,2,1.1,3.1,1.6&#10;&#9;&#9;c1.3-0.5,2.6-1.1,3.9-1.6c0.2-0.1,0.4,0,0.4,0.2s0,0.4-0.2,0.4l0,0c-1.1,0.5-2.2,0.9-3.3,1.4c1.3,0.7,2.5,1.3,3.8,2&#10;&#9;&#9;c0.4,0.2,0.1,0.8-0.3,0.6c-1.4-0.8-2.9-1.6-4.3-2.3c-1.2,0.5-2.5,1-3.7,1.5c-0.2,0-0.3-0.1-0.4-0.3&#10;&#9;&#9;C292.4,145.7,292.5,145.6,292.5,145.6z"/>
	<path class="st18_fast-food-6" d="M258.9,109l24.1-4.9c6.6,0.3,8.5,6.8,8.5,6.8l7,32.2c0.8,0.4-4.5,1.8-4.5,1.8s-5.5-29.6-7.1-32.6&#10;&#9;&#9;c-0.9-1.7-2.5-3-4.5-3.4c0,0-15.9,3.2-21.8,4.6C260.9,111.9,260.2,110.1,258.9,109z"/>
	<path class="st19_fast-food-6" d="M193.9,74.9L218,70c6.6,0.2,8.5,6.8,8.5,6.8l7,32.2c0.8,0.4-4.5,1.8-4.5,1.8s-5.5-29.6-7.1-32.6&#10;&#9;&#9;c-0.9-1.7-2.6-3-4.5-3.3c0,0-15.8,3.2-21.8,4.6C195.9,77.7,195.2,76,193.9,74.9z"/>
	<path class="st19_fast-food-6" d="M258.9,109l24.1-4.9c6.6,0.3,8.5,6.8,8.5,6.8l7,32.2c0.8,0.4-4.5,1.8-4.5,1.8s-5.5-29.6-7.1-32.6&#10;&#9;&#9;c-0.9-1.7-2.5-3-4.5-3.4c0,0-15.9,3.2-21.8,4.6C260.9,111.9,260.2,110.1,258.9,109z"/>
</g>
<g id="french_fries_fast-food-6">
	<path class="st14_fast-food-6" d="M344.7,244.1c0,0-13.8-45-13.2-45.2l4.2-1.5l12.7,46.2L344.7,244.1z"/>
	<path class="st14_fast-food-6" d="M349.9,241.8c0,0-12-34.1-11.8-34.6s3.7-2.5,3.7-2.5l11.4,36.4"/>
	<path class="st14_fast-food-6" d="M346.4,245.3c0,0-13.8-45-13.2-45.2l4.2-1.5l12.7,46.2L346.4,245.3z"/>
	<path class="st14_fast-food-6" d="M353.2,242.5c0,0-12-34-11.8-34.6s3.8-2.5,3.8-2.5l11.4,36.4"/>
	<path class="st14_fast-food-6" d="M379.3,235.1c0,0,2.3-47,2.9-47h4.4l-3.7,47.8L379.3,235.1z"/>
	<path class="st14_fast-food-6" d="M385,234.7c0,0,0.2-36.1,0.6-36.5s4.4-1.1,4.4-1.1l-1.6,38.1"/>
	<path class="st14_fast-food-6" d="M380.5,236.9c0,0,2.3-47,2.9-47h4.4l-3.7,47.8L380.5,236.9z"/>
	<path class="st14_fast-food-6" d="M387.9,236.5c0,0,0.2-36.1,0.6-36.5s4.4-1.1,4.4-1.1l-1.6,38.1"/>
	<path class="st14_fast-food-6" d="M391,236.3c0.7-3.7,8.8-44.2,8.8-44.2l5,0.4l-10.4,44.9L391,236.3z"/>
	<path class="st14_fast-food-6" d="M394,230.7c0,0,10.5-34.6,11-34.8s4.5,0.2,4.5,0.2l-12.3,36.1"/>
	<path class="st14_fast-food-6" d="M389.6,234.5c0.7-3.7,8.7-44.2,8.7-44.2l5,0.4L393,235.5L389.6,234.5z"/>
	<path class="st14_fast-food-6" d="M396.2,233.2c0,0,10.5-34.6,11-34.8s4.5,0.2,4.5,0.2l-12.3,36.1"/>
	<path class="st14_fast-food-6" d="M359.4,245.5c-0.4-3.8-4.2-44.9-4.2-44.9l4.9-1.1l2.8,46L359.4,245.5z"/>
	<path class="st14_fast-food-6" d="M371.2,242.3c0,0,2.3-47,2.9-47h4.4l-3.7,47.8L371.2,242.3z"/>
	<polyline class="st14_fast-food-6" points="391,242.6 391.9,200.8 396.5,198.8 394.3,242.6 &#9;"/>
	<path class="st14_fast-food-6" d="M350.3,244.6c0,0-4.6-35.8-4.2-36.3s4.2-1.7,4.2-1.7l3.5,38"/>
	<path class="st14_fast-food-6" d="M360.6,240.9c0,0,0.2-36.1,0.6-36.5s4.4-1.1,4.4-1.1l-1.6,38.1"/>
	<path class="st14_fast-food-6" d="M376.9,241.9c0,0,0.2-36.1,0.6-36.5s4.4-1.1,4.4-1.1l-1.6,38.1"/>
	<path class="st14_fast-food-6" d="M356.5,244.9c-0.4-3.8-4.2-44.9-4.2-44.9l4.9-1.1l2.8,46L356.5,244.9z"/>
	<path class="st14_fast-food-6" d="M372.5,244.1c0,0,2.3-47,2.9-47h4.5l-3.7,47.8L372.5,244.1z"/>
	<polyline class="st14_fast-food-6" points="387.3,238.9 388.2,197.1 392.9,195.1 390.7,238.9 &#9;"/>
	<path class="st14_fast-food-6" d="M352.1,241.5c-0.5-0.9-9-36.3-9-36.3L340,208l8.4,33.5"/>
	<path class="st14_fast-food-6" d="M353.1,246.4c0,0-4.6-35.8-4.2-36.3s4.2-1.7,4.2-1.7l3.5,38"/>
	<path class="st14_fast-food-6" d="M363.5,242.7c0,0,0.2-36.1,0.6-36.5s4.4-1.1,4.4-1.1l-1.5,38.1"/>
	<path class="st14_fast-food-6" d="M379.8,243.8c0,0,0.2-36.1,0.6-36.5s4.4-1.1,4.4-1.1l-1.6,38.1"/>
	<path class="st14_fast-food-6" d="M365.6,240.2c0,0,2.3-47,2.9-47h4.4l-3.7,47.8L365.6,240.2z"/>
	<path class="st14_fast-food-6" d="M371.4,239.8c0,0,0.2-36.1,0.6-36.5s4.4-1.1,4.4-1.1l-1.6,38.1"/>
	<path class="st2_fast-food-6" d="M344.7,244.1c0,0-13.8-45-13.2-45.2l4.2-1.5l12.7,46.2L344.7,244.1z"/>
	<path class="st2_fast-food-6" d="M349.9,241.8c0,0-12-34.1-11.8-34.6s3.7-2.5,3.7-2.5l11.4,36.4"/>
	<path class="st2_fast-food-6" d="M379.3,235.1c0,0,2.3-47,2.9-47h4.4l-3.7,47.8L379.3,235.1z"/>
	<path class="st2_fast-food-6" d="M385,234.7c0,0,0.2-36.1,0.6-36.5s4.4-1.1,4.4-1.1l-1.6,38.1"/>
	<path class="st2_fast-food-6" d="M391,236.3c0.7-3.7,8.8-44.2,8.8-44.2l5,0.4l-10.4,44.9L391,236.3z"/>
	<path class="st2_fast-food-6" d="M394,230.7c0,0,10.5-34.6,11-34.8s4.5,0.2,4.5,0.2l-12.3,36.1"/>
	<path class="st2_fast-food-6" d="M359.4,245.5c-0.4-3.8-4.2-44.9-4.2-44.9l4.9-1.1l2.8,46L359.4,245.5z"/>
	<path class="st2_fast-food-6" d="M371.2,242.3c0,0,2.3-47,2.9-47h4.4l-3.7,47.8L371.2,242.3z"/>
	<polyline class="st2_fast-food-6" points="391,242.6 391.9,200.8 396.5,198.8 394.3,242.6 &#9;"/>
	<path class="st2_fast-food-6" d="M350.3,244.6c0,0-4.6-35.8-4.2-36.3s4.2-1.7,4.2-1.7l3.5,38"/>
	<path class="st2_fast-food-6" d="M360.6,240.9c0,0,0.2-36.1,0.6-36.5s4.4-1.1,4.4-1.1l-1.6,38.1"/>
	<path class="st2_fast-food-6" d="M376.9,241.9c0,0,0.2-36.1,0.6-36.5s4.4-1.1,4.4-1.1l-1.6,38.1"/>
	<path class="st2_fast-food-6" d="M365.6,240.2c0,0,2.3-47,2.9-47h4.4l-3.7,47.8L365.6,240.2z"/>
	<path class="st2_fast-food-6" d="M371.4,239.8c0,0,0.2-36.1,0.6-36.5s4.4-1.1,4.4-1.1l-1.6,38.1"/>
	<path class="st14_fast-food-6" d="M366.9,242c0,0,2.3-47,2.9-47h4.4l-3.7,47.8L366.9,242z"/>
	<path class="st14_fast-food-6" d="M374.2,241.6c0,0,0.2-36.1,0.6-36.5s4.4-1.1,4.4-1.1l-1.6,38.1"/>
	<path class="st11_fast-food-6 targetColor" d="M333.8,211.3c1.3,0.6,2.6,1.3,3.8,2.1c0,0,8.5,26.6,21,27s20.3-12.4,20.9-12.4s6.5,1.6,6.5,1.6l18.5-8.8&#10;&#9;&#9;l-9.5,51l-13.7,6.6c0,0-32.7-13.5-34.5-14.9S333.8,211.3,333.8,211.3z" style="fill: rgb(176, 176, 176);"/>
	<polygon class="st4_fast-food-6" points="385.9,229.6 381.2,278.5 394.9,271.8 404.4,220.8 &#9;"/>
</g>
</svg>