<svg width="91" height="38" viewBox="0 0 91 38" fill="none" xmlns="http://www.w3.org/2000/svg">
<path d="M0.7 38V0.499997H9.5V30.25H25.95V38H0.7ZM27.9375 21.25C27.9375 13.55 32.9375 8.75 40.8375 8.75C48.7375 8.75 53.7375 13.55 53.7375 21.25V38H45.6375V21.35C45.6375 17.75 43.6875 15.75 40.8375 15.75C38.0375 15.75 36.0375 17.75 36.0375 21.35V38H27.9375V21.25ZM57.9539 38V0.499997H73.0039C83.6539 0.499997 90.3539 7.65 90.3539 19.2C90.3539 30.7 83.6539 38 73.0039 38H57.9539ZM73.0039 30.8C78.2039 30.8 81.3539 26.6 81.3539 19.2C81.3539 11.85 78.2039 7.7 73.0039 7.7H66.6539V30.8H73.0039Z" fill="black"/>
</svg>
