<svg width="133" height="153" viewBox="0 0 133 153" fill="none" xmlns="http://www.w3.org/2000/svg">
<path d="M103.792 0C88.5578 0 76.2089 11.8104 76.2089 26.3802C76.2089 40.95 88.5578 52.7604 103.792 52.7604C119.026 52.7604 131.375 40.95 131.375 26.3802C131.375 11.8104 119.026 0 103.792 0ZM103.792 37.6387C97.3289 37.6387 92.0778 32.6165 92.0778 26.4354C92.0778 20.2542 97.3289 15.2321 103.792 15.2321C110.255 15.2321 115.506 20.2542 115.506 26.4354C115.506 32.6165 110.255 37.6387 103.792 37.6387ZM68.2455 19.8127V52.8156H52.3766V19.6472C52.3766 17.1637 50.2992 15.1769 47.7025 15.1769C45.1058 15.1769 43.0284 17.1637 43.0284 19.6472V52.8156H27.1595V19.6472C27.1595 17.1637 25.0821 15.1769 22.4853 15.1769C19.8886 15.1769 17.8112 17.1637 17.8112 19.6472V52.8156H2V19.8127C2 8.88538 11.2905 0 22.7162 0C27.3903 0 31.6605 1.49009 35.1228 3.97358C38.5851 1.49009 42.913 0 47.5294 0C58.955 0 68.2455 8.88538 68.2455 19.8127ZM103.792 64.1844C88.5578 64.1844 76.2089 75.9948 76.2089 90.5646C76.2089 105.134 88.5578 116.945 103.792 116.945C119.026 116.945 131.375 105.134 131.375 90.5646C131.375 75.9948 119.026 64.1844 103.792 64.1844ZM103.792 101.823C97.3289 101.823 92.0778 96.8009 92.0778 90.6198C92.0778 84.4387 97.3289 79.4165 103.792 79.4165C110.255 79.4165 115.506 84.4387 115.506 90.6198C115.506 96.8009 110.255 101.823 103.792 101.823ZM68.2455 83.9972V117H52.3766V83.8316C52.3766 81.3481 50.2992 79.3613 47.7025 79.3613C45.1058 79.3613 43.0284 81.3481 43.0284 83.8316V117H27.1595V83.8316C27.1595 81.3481 25.0821 79.3613 22.4853 79.3613C19.8886 79.3613 17.8112 81.3481 17.8112 83.8316V117H2V83.9972C2 73.0698 11.2905 64.1844 22.7162 64.1844C27.3903 64.1844 31.6605 65.6745 35.1228 68.158C38.5851 65.6745 42.8553 64.1844 47.5294 64.1844C58.955 64.1844 68.2455 73.0698 68.2455 83.9972Z" fill="#EB2F96"/>
<path d="M2.39545 146V126.218H9.07955C10.6314 126.218 11.9 126.498 12.8852 127.059C13.8769 127.612 14.611 128.362 15.0875 129.309C15.564 130.256 15.8023 131.312 15.8023 132.477C15.8023 133.643 15.564 134.702 15.0875 135.655C14.6174 136.608 13.8898 137.368 12.9045 137.935C11.9193 138.495 10.6572 138.775 9.11818 138.775H4.32727V136.65H9.04091C10.1034 136.65 10.9566 136.466 11.6006 136.099C12.2445 135.732 12.7114 135.237 13.0011 134.612C13.2973 133.981 13.4455 133.269 13.4455 132.477C13.4455 131.685 13.2973 130.977 13.0011 130.352C12.7114 129.728 12.2413 129.238 11.5909 128.884C10.9405 128.523 10.0777 128.343 9.00227 128.343H4.79091V146H2.39545ZM19.6611 146V126.218H26.3452C27.8906 126.218 29.1592 126.482 30.1509 127.01C31.1425 127.532 31.8766 128.25 32.3531 129.164C32.8296 130.079 33.0679 131.119 33.0679 132.284C33.0679 133.45 32.8296 134.483 32.3531 135.385C31.8766 136.286 31.1457 136.995 30.1605 137.51C29.1753 138.018 27.9164 138.273 26.3838 138.273H20.9747V136.109H26.3065C27.3626 136.109 28.2126 135.955 28.8565 135.645C29.5069 135.336 29.977 134.898 30.2668 134.332C30.563 133.759 30.7111 133.076 30.7111 132.284C30.7111 131.492 30.563 130.8 30.2668 130.207C29.9706 129.615 29.4973 129.158 28.8469 128.836C28.1965 128.507 27.3368 128.343 26.2679 128.343H22.0565V146H19.6611ZM28.9724 137.114L33.8406 146H31.0588L26.2679 137.114H28.9724ZM53.7504 136.109C53.7504 138.195 53.3737 139.998 52.6203 141.518C51.8669 143.038 50.8334 144.21 49.5197 145.034C48.2061 145.858 46.7057 146.27 45.0186 146.27C43.3315 146.27 41.8311 145.858 40.5175 145.034C39.2038 144.21 38.1703 143.038 37.4169 141.518C36.6635 139.998 36.2868 138.195 36.2868 136.109C36.2868 134.023 36.6635 132.22 37.4169 130.7C38.1703 129.18 39.2038 128.008 40.5175 127.184C41.8311 126.36 43.3315 125.948 45.0186 125.948C46.7057 125.948 48.2061 126.36 49.5197 127.184C50.8334 128.008 51.8669 129.18 52.6203 130.7C53.3737 132.22 53.7504 134.023 53.7504 136.109ZM51.4322 136.109C51.4322 134.396 51.1457 132.951 50.5726 131.772C50.0059 130.594 49.2364 129.702 48.2641 129.097C47.2982 128.491 46.2163 128.189 45.0186 128.189C43.8209 128.189 42.7358 128.491 41.7635 129.097C40.7976 129.702 40.0281 130.594 39.455 131.772C38.8883 132.951 38.605 134.396 38.605 136.109C38.605 137.822 38.8883 139.268 39.455 140.446C40.0281 141.624 40.7976 142.516 41.7635 143.122C42.7358 143.727 43.8209 144.03 45.0186 144.03C46.2163 144.03 47.2982 143.727 48.2641 143.122C49.2364 142.516 50.0059 141.624 50.5726 140.446C51.1457 139.268 51.4322 137.822 51.4322 136.109ZM63.8828 146H57.7783V126.218H64.1533C66.0722 126.218 67.7143 126.614 69.0794 127.406C70.4446 128.192 71.491 129.322 72.2186 130.797C72.9463 132.265 73.3101 134.023 73.3101 136.07C73.3101 138.131 72.943 139.905 72.209 141.393C71.4749 142.874 70.4059 144.013 69.0021 144.812C67.5983 145.604 65.8919 146 63.8828 146ZM60.1737 143.875H63.7283C65.3639 143.875 66.7194 143.559 67.7947 142.928C68.8701 142.297 69.6718 141.399 70.1999 140.234C70.7279 139.068 70.9919 137.68 70.9919 136.07C70.9919 134.473 70.7311 133.099 70.2095 131.946C69.6879 130.787 68.9088 129.898 67.872 129.28C66.8353 128.655 65.5442 128.343 63.9987 128.343H60.1737V143.875ZM90.3101 126.218H92.7055V139.316C92.7055 140.668 92.3868 141.876 91.7493 142.938C91.1182 143.994 90.2264 144.828 89.0737 145.44C87.9211 146.045 86.5688 146.348 85.0169 146.348C83.465 146.348 82.1127 146.045 80.9601 145.44C79.8074 144.828 78.9124 143.994 78.2749 142.938C77.6438 141.876 77.3283 140.668 77.3283 139.316V126.218H79.7237V139.123C79.7237 140.089 79.9362 140.948 80.3612 141.702C80.7862 142.449 81.3915 143.038 82.1771 143.469C82.9692 143.894 83.9158 144.107 85.0169 144.107C86.118 144.107 87.0646 143.894 87.8567 143.469C88.6487 143.038 89.254 142.449 89.6726 141.702C90.0976 140.948 90.3101 140.089 90.3101 139.123V126.218ZM113.407 132.4H111.012C110.87 131.711 110.622 131.106 110.268 130.584C109.92 130.062 109.495 129.625 108.993 129.27C108.497 128.91 107.947 128.639 107.341 128.459C106.736 128.279 106.105 128.189 105.448 128.189C104.251 128.189 103.166 128.491 102.193 129.097C101.227 129.702 100.458 130.594 99.8847 131.772C99.318 132.951 99.0347 134.396 99.0347 136.109C99.0347 137.822 99.318 139.268 99.8847 140.446C100.458 141.624 101.227 142.516 102.193 143.122C103.166 143.727 104.251 144.03 105.448 144.03C106.105 144.03 106.736 143.939 107.341 143.759C107.947 143.579 108.497 143.312 108.993 142.957C109.495 142.597 109.92 142.156 110.268 141.634C110.622 141.106 110.87 140.501 111.012 139.818H113.407C113.227 140.829 112.899 141.734 112.422 142.532C111.946 143.331 111.353 144.01 110.645 144.57C109.937 145.124 109.141 145.546 108.259 145.836C107.383 146.126 106.446 146.27 105.448 146.27C103.761 146.27 102.261 145.858 100.947 145.034C99.6335 144.21 98.6 143.038 97.8466 141.518C97.0932 139.998 96.7165 138.195 96.7165 136.109C96.7165 134.023 97.0932 132.22 97.8466 130.7C98.6 129.18 99.6335 128.008 100.947 127.184C102.261 126.36 103.761 125.948 105.448 125.948C106.446 125.948 107.383 126.093 108.259 126.382C109.141 126.672 109.937 127.097 110.645 127.657C111.353 128.211 111.946 128.887 112.422 129.686C112.899 130.478 113.227 131.383 113.407 132.4ZM116.196 128.343V126.218H131.033V128.343H124.812V146H122.417V128.343H116.196Z" fill="#EB2F96"/>
</svg>
