<svg version="1.1" id="Layer_1" xmlns="http://www.w3.org/2000/svg" xmlns:xlink="http://www.w3.org/1999/xlink" x="0px" y="0px" viewBox="0 0 500 500" style="width: 188px;" xml:space="preserve" data-imageid="team-meeting-1-42" imageName="Team Meeting 1" class="illustrations_image">
<style type="text/css">
	.st0_team-meeting-1-42{fill:#EFEFEF;}
	.st1_team-meeting-1-42{fill:url(#SVGID_1_);}
	.st2_team-meeting-1-42{fill:url(#SVGID_00000142153497087449694380000004344171100885939590_);}
	.st3_team-meeting-1-42{fill:url(#SVGID_00000109025163022187955300000002474926806307140798_);}
	.st4_team-meeting-1-42{fill:url(#SVGID_00000113320106448809814150000015086104620310456492_);}
	.st5_team-meeting-1-42{fill:#68E1FD;}
	.st6_team-meeting-1-42{opacity:0.3;fill:#311E69;enable-background:new    ;}
	.st7_team-meeting-1-42{fill:#311E69;}
	.st8_team-meeting-1-42{opacity:0.67;fill:#311E69;enable-background:new    ;}
	.st9_team-meeting-1-42{fill:#F7931E;}
	.st10_team-meeting-1-42{fill:#E5572C;}
	.st11_team-meeting-1-42{fill:#FBB5AD;}
	.st12_team-meeting-1-42{fill:#56403D;}
	.st13_team-meeting-1-42{fill:#723100;}
	.st14_team-meeting-1-42{fill:#42210B;}
</style>
<polygon id="Base_team-meeting-1-42" class="st0_team-meeting-1-42" points="63,318.2 276.3,441.3 478.3,324.7 263.6,202.6 "/>
<g id="Shadow_team-meeting-1-42">
	
		<linearGradient id="SVGID_1_-team-meeting-1-42" gradientUnits="userSpaceOnUse" x1="431.2968" y1="181.078" x2="384.5168" y2="154.738" gradientTransform="matrix(1 0 0 -1 0 502)">
		<stop offset="0" style="stop-color:#808080"/>
		<stop offset="1" style="stop-color:#EFEFEF"/>
	</linearGradient>
	<path class="st1_team-meeting-1-42" d="M406.3,311.6c-17.3,10.1-29.7,16.9-56.4,32.1c20.1,12.2,35.8,23.5,38.1,24.9l59.9-35.2&#10;&#9;&#9;C443.2,331,427.9,322.3,406.3,311.6z"/>
	
		<linearGradient id="SVGID_00000150072656495449058340000004259558446058966151_-team-meeting-1-42" gradientUnits="userSpaceOnUse" x1="170.0677" y1="171.7639" x2="128.2176" y2="146.3339" gradientTransform="matrix(1 0 0 -1 0 502)">
		<stop offset="0" style="stop-color:#808080"/>
		<stop offset="1" style="stop-color:#EFEFEF"/>
	</linearGradient>
	<path style="fill:url(#SVGID_00000150072656495449058340000004259558446058966151_);" d="M142.3,363.1l51-29.8&#10;&#9;&#9;c-3.9-2-11.5-9.1-25.8-16.6c-0.1,0.2-0.2,0.4-0.4,0.5c-13.8,7.6-27.6,15.2-41.3,22.8c-3.2,1.8-8.1,5.2-11.3,7.1&#10;&#9;&#9;C123.7,352.2,130.6,357.2,142.3,363.1z"/>
	
		<linearGradient id="SVGID_00000015314456077088946610000003900958344226028960_-team-meeting-1-42" gradientUnits="userSpaceOnUse" x1="239.0856" y1="109.824" x2="224.8856" y2="94.064" gradientTransform="matrix(1 0 0 -1 0 502)">
		<stop offset="0" style="stop-color:#808080"/>
		<stop offset="1" style="stop-color:#EFEFEF"/>
	</linearGradient>
	<path style="fill:url(#SVGID_00000015314456077088946610000003900958344226028960_);" d="M223,410.3c4,2.7,9.1,5.1,13.1,7.8&#10;&#9;&#9;l26.3-15.4c-4.1-2.1-17.6-9.8-36.5-19.1c-8.4,4.9-15.5,8.9-24.1,13.8C208.9,401.4,216.1,405.6,223,410.3z"/>
	
		<linearGradient id="SVGID_00000003819645838761433980000008577523828376369333_-team-meeting-1-42" gradientUnits="userSpaceOnUse" x1="337.1978" y1="216.4624" x2="296.2377" y2="178.5625" gradientTransform="matrix(1 0 0 -1 0 502)">
		<stop offset="0" style="stop-color:#808080"/>
		<stop offset="1" style="stop-color:#EFEFEF"/>
	</linearGradient>
	<path style="fill:url(#SVGID_00000003819645838761433980000008577523828376369333_);" d="M360.7,301.5c-9.1-4.9-31-8.4-49.1-17.4&#10;&#9;&#9;c-21,12.2-36,20.5-68.3,38.9c24.4,14.9,43.4,28.5,46.1,30.1l63.7-32.8C353,317.1,360.6,304.7,360.7,301.5z"/>
</g>
<g id="Wall_Photo_team-meeting-1-42">
	<path class="st5_team-meeting-1-42 targetColor" d="M52.6,144.6l1.1,59.7c0,2.1,1.7,3.7,3.8,3.7c0.6,0,1.1-0.1,1.6-0.4l50.8-25.3c1.7-0.9,2.8-2.6,2.8-4.5&#10;&#9;&#9;l-1.1-59.8c0-2.2-1.9-4-4.1-4c-0.6,0-1.2,0.2-1.8,0.4l-50.3,25.6C53.6,140.9,52.6,142.7,52.6,144.6z" style="fill: rgb(176, 176, 176);"/>
	<path class="st5_team-meeting-1-42 targetColor" d="M103.8,153.6c-9.7,2.7-6.3,13.4-13.3,19.1c-8.4,6.9-11.6-12.8-22-11.5c-12.5,1.5-14.8,43-14.8,43&#10;&#9;&#9;c2,4.7,5.4,3.3,5.4,3.3l53.6-26.7l-0.4-23C110,155.3,107.2,153.3,103.8,153.6z" style="fill: rgb(176, 176, 176);"/>
	<path class="st6_team-meeting-1-42" d="M103.8,153.6c-9.7,2.7-6.3,13.4-13.3,19.1c-8.4,6.9-11.6-12.8-22-11.5c-12.5,1.5-14.8,43-14.8,43&#10;&#9;&#9;c2,4.7,5.4,3.3,5.4,3.3l53.6-26.7l-0.4-23C110,155.3,107.2,153.3,103.8,153.6z"/>
</g>
<g id="Character_Male_2_team-meeting-1-42">
	<path class="st7_team-meeting-1-42" d="M359.9,285.2L359.9,285.2c-1.6,0-3.9,1.7-5.4,2.4l-4,2c0,0-2.7,10-4.2,13.7s-7.1,11.7-5.1,14.7&#10;&#9;&#9;s6.9,5.2,11.9,2.4s4.9-12.1,6.8-15.7c1.5-3,0.8-9.3,0.8-10.7C360.8,291,360.6,288.1,359.9,285.2z"/>
	<path class="st7_team-meeting-1-42" d="M318.1,267L318.1,267c-1.6,0-3.9,1.7-5.3,2.4l-4,2c0,0-1.4,10.9-4.2,13.7s-13.6,8.6-11.7,11.6&#10;&#9;&#9;c2.5,3.9,7.7,5.1,11.7,2.7c5.1-2.8,8.4-8.5,12-10c3.1-1.2,1.8-9.3,1.9-12C318.7,272.7,318.9,271.7,318.1,267z"/>
	<path class="st5_team-meeting-1-42 targetColor" d="M310.9,164.9c0,0-6.9,36.9-6.3,57.1s1,45,2.5,56c0,0,13.4,1.9,18-2.1c0,0,1.4-70.9,1.4-70.5&#10;&#9;&#9;c2.1,9.3,11.7,57.1,12.7,60.3s6,28.3,6,28.3s9.1,3,19.1-3.2c0,0-1.7-36.3-4.8-46.5s-13.9-74.3-19.2-79.3" style="fill: rgb(176, 176, 176);"/>
	<path class="st8_team-meeting-1-42" d="M310.9,164.9c0,0-6.9,36.9-6.3,57.1s1,45,2.5,56c0,0,13.4,1.9,18-2.1c0,0,1.4-70.9,1.4-70.5&#10;&#9;&#9;c2.1,9.3,11.7,57.1,12.7,60.3s6,28.3,6,28.3s9.1,3,19.1-3.2c0,0-1.7-36.3-4.8-46.5s-13.9-74.3-19.2-79.3"/>
	<path class="st9_team-meeting-1-42" d="M339.9,167.8c0,0,11.9-34.5,7.1-42.4s-24-14.1-33.2-13.3s-3.3,55.3-1.8,55.7S327,177.6,339.9,167.8z"/>
	<path class="st9_team-meeting-1-42" d="M343.9,121.9l-14.4-6c-2.6,12.7-5.3,25.3-8.1,37.9l20.1,3.5c0,0,12-6.6,13.8-17S344.4,122.4,343.9,121.9z"/>
	<path class="st9_team-meeting-1-42" d="M314.8,132.9c0,0-1.9-18.8-1.9-20.5c-5.6,1.6-10.8,4.3-15.4,7.9c-2.3,1.8-4.5,3.8-6.5,6&#10;&#9;&#9;c-1.4,1.3-2.5,2.8-3.4,4.5c-0.8,1.9-0.5,4.1-0.2,6.1c0.9,4.7,2.5,9.2,4.7,13.4c2.3,4.9,5.2,9.5,8.6,13.8c1,1.3,4.5,6.1,6.7,5.3&#10;&#9;&#9;c4.4-1.6,6.3-6.7,6.3-6.7s-2-4-4.3-9c-1.3-3-7.2-9.7-8-14.3c0.6-0.8,1.2-1.5,1.9-2.2C306.3,134.3,311.2,134.8,314.8,132.9z"/>
	<path class="st10_team-meeting-1-42" d="M316.5,113.5l2.9,14.8l4.1-4.8l3.1,6l8.3-11.3C334.9,118.2,322.1,112.2,316.5,113.5z"/>
	<path class="st11_team-meeting-1-42" d="M314.8,98.3c0,0,0,20.2,7.4,21.5c8.1,1.4,12.7-7.8,12.7-7.8s1-17.8-7-19.4S315,95.8,314.8,98.3z"/>
	<path class="st11_team-meeting-1-42" d="M329.2,110c0,0,2-7.7,4.1-5.2s-3.5,8.1-3.5,8.1"/>
	<path class="st12_team-meeting-1-42" d="M331.1,90.1c0,0,7.2,0.8,9.3,6.5s-3.3,17.2-7.2,19l4.7-10l-0.2-6.8L331.1,90.1z"/>
	<path class="st12_team-meeting-1-42" d="M340.3,99.2c-0.6-4-3.2-6-6.7-8c-0.3-0.2-0.6-0.3-0.9-0.5c0.7-0.5,1.2-1.2,1.6-2c0.1-0.3,0.1-0.6-0.2-0.7&#10;&#9;&#9;c-0.1,0-0.2-0.1-0.3-0.1c-0.9,0-1.8,0.5-2.4,1.2c-0.4-0.8-1-1.6-1.6-2.2c-0.2-0.2-0.6-0.2-0.8,0C329,87,329,87,329,87.1&#10;&#9;&#9;c-0.3,0.8-0.3,1.7,0.1,2.4c-3.6-0.8-7.4-0.2-10.6,1.6c-1.2,0.7-2.2,1.7-2.9,2.8c-1-0.1-2,0.1-2.9,0.5c-2,0.9-3.1,3-2.7,5.2&#10;&#9;&#9;c0.5,2.4,3.1,3.2,5.3,2.8c1.1-0.2,2.1-0.7,3-1.4c-0.7,1.1-1,2.5,1.1,3c3.7,0.8,5.5-1.4,5.7,0.5c0.2,1.5,2.3,2.3,3.8,2.4&#10;&#9;&#9;c0.1,0.2,0.4,0.8,0.7,1.7c0.7-0.2,1.5-0.3,2.3-0.1c0.2-0.2,0.6-0.2,0.8,0c0,0,0.1,0.1,0.1,0.1c1.3,2.2,1,4.6,0.5,7.1&#10;&#9;&#9;c2-1.7,3.6-3.8,4.8-6.1C339.7,106.2,340.8,102.6,340.3,99.2z M329.8,88.4l0.1,0.2c0,0.1,0,0.1,0,0.2c0.1,0.2,0.1,0.3,0.2,0.5&#10;&#9;&#9;C330,89.1,329.9,88.8,329.8,88.4z"/>
	<polygon class="st13_team-meeting-1-42" points="320.5,127 322.7,131.3 325.7,127.8 323.5,123.5 &#9;"/>
	<path class="st13_team-meeting-1-42" d="M322.7,131.3c0,0,3.1,21.4,5.8,35.3l-3.9,7.4l-5.1-6.3C319.4,167.7,317.3,153.1,322.7,131.3z"/>
	<polygon class="st5_team-meeting-1-42 targetColor" points="323.1,167.8 320.2,136.6 298.8,137.1 301.8,167.8 &#9;" style="fill: rgb(176, 176, 176);"/>
	<path class="st11_team-meeting-1-42" d="M330.4,155.5l-9.3-7v2.6c0,0-8.4-3.8-8.9-2.1c-0.5,1.9,1.1,7.1,2.5,7.6s7.4,2.4,7.4,2.4l4.7,1.5L330.4,155.5z&#10;&#9;&#9;"/>
	<path class="st9_team-meeting-1-42" d="M355.3,136.6c0,0,6.1,23.4,1.9,28.2s-31.2-0.4-31.5-2.8s3.5-10.3,3.5-10.3l15.1,1.6"/>
	<path class="st11_team-meeting-1-42" d="M309.2,167.8c0,0,5.6-1,6.8,2.2c0.6,1.7-3.8,0-3.8,0l-3.1,9.2c-0.9-1.2-1.5-2.6-1.5-4.1&#10;&#9;&#9;c0-2.1,0.2-4.2,0.6-6.3L309.2,167.8z"/>
</g>
<g id="Character_Male_1_team-meeting-1-42">
	<path class="st14_team-meeting-1-42" d="M141.4,320.6c3.1,2.1,5.5,3.3,5.5,3.3c2.5,0,7.1,0.5,5.7-2.7c1.6,2.7,3.7,5.1,6.1,7.2&#10;&#9;&#9;c2.7,2.3,17.8,4.5,12.6,13.5c-2.7,4.6-28.9-8.6-29.6-11.8S141.4,320.6,141.4,320.6z"/>
	<path class="st11_team-meeting-1-42" d="M152.7,305.4c-0.5,4.5-1.1,9.1-0.4,13.6c0.1,1,0.3,2,0.5,3.1l-11.5-1.9v-14.7H152.7z"/>
	<path class="st12_team-meeting-1-42" d="M141.4,317.5c3.1,2.1,5.5,3.3,5.5,3.3c2.5,0,7.1,0.5,5.7-2.7c1.6,2.7,3.7,5.1,6.1,7.2&#10;&#9;&#9;c2.7,2.3,17.9,9.8,11.5,13.7c-4.7,2.9-27.8-8.9-28.5-12.1S141.4,317.5,141.4,317.5z"/>
	<path class="st12_team-meeting-1-42" d="M146.3,320.9c-0.1-0.8-1.8-5-0.4-6s7.2-2.4,7.7-0.8s0,7.4,0,7.4"/>
	<path class="st14_team-meeting-1-42" d="M163.3,312c3.1,2.1,5.5,3.3,5.5,3.3c2.5,0,7.1,0.5,5.7-2.7c1.6,2.7,3.7,5.1,6.1,7.2&#10;&#9;&#9;c2.7,2.3,17.8,4.5,12.6,13.5c-2.7,4.6-28.9-8.6-29.6-11.8S163.3,312,163.3,312z"/>
	<path class="st11_team-meeting-1-42" d="M174.7,296.8c-0.5,4.5-1.1,9.1-0.4,13.6c0.1,1,0.3,2,0.5,3.1l-11.5-1.9v-14.8H174.7z"/>
	<path class="st12_team-meeting-1-42" d="M163.3,308.9c3.1,2.1,5.5,3.3,5.5,3.3c2.5,0,7.1,0.5,5.7-2.7c1.6,2.7,3.7,5.1,6.1,7.2&#10;&#9;&#9;c2.7,2.3,17.9,9.8,11.5,13.7c-4.7,2.9-27.8-8.9-28.5-12.1S163.3,308.9,163.3,308.9z"/>
	<path class="st12_team-meeting-1-42" d="M168.2,312.4c-0.1-0.8-1.8-5-0.4-6s7.2-2.4,7.7-0.8s0,7.4,0,7.4"/>
	<path class="st7_team-meeting-1-42" d="M182.4,178.4c0,0,3.6,87-3.5,123.6c0,0-1.4,4.1-18.4,1.7l-1.1,7.6c0,0-11.9,3.2-23.2-1.4&#10;&#9;&#9;c0,0-4.7-84.5,9.4-133.6"/>
	<path class="st5_team-meeting-1-42 targetColor" d="M181.1,148.6c2.9-1-2.8-16.5-3.4-18.4c-0.3-1.2-0.7-2.4-1.4-3.4c-2-2.8-6-1.4-8.8-1.4c-3.8,0-7.5,0.4-11.2,1&#10;&#9;&#9;c-2.1,0.4-4.1,1.1-5.9,2.1c-5.8,8.2-7.8,18.3-8.4,28.2c-0.3,5.4-0.3,10.9-0.3,16.4c0,3.5,0.2,6.9,0.6,10.4c0.1,0.8,0.6,1.6,1.3,2&#10;&#9;&#9;c2.1,1.2,4.4,2,6.8,2.1c10.2,0.4,22.7,0,30.7-6.7c0.5-0.7,1-1.4,1.4-2.2L181.1,148.6L181.1,148.6z" style="fill: rgb(176, 176, 176);"/>
	<polyline class="st14_team-meeting-1-42" points="171.4,162.4 171.4,150.9 194.8,141 201.4,143.6 201.4,176.2 176.1,187.8 170.8,184.4 &#9;"/>
	<path class="st5_team-meeting-1-42 targetColor" d="M141.6,173.1c-6-5-9.6-9.4-4.2-28.7c4.7-16.5,18.8-18,18.8-18" style="fill: rgb(176, 176, 176);"/>
	<path class="st11_team-meeting-1-42" d="M173.4,109.5c0,0,4.5,16.5-2.9,20.1s-12.7-1.8-14.9-6.7s-1.4-16.4,8.2-17.6&#10;&#9;&#9;C172.1,104.2,173.4,109.5,173.4,109.5z"/>
	<path class="st12_team-meeting-1-42" d="M174.9,106.3c0.8-2,1.1-5.6-1.2-6.7c-1.8-0.7-3.9-0.3-5.3,1c-0.8-0.7-1.8-1.1-2.9-1.4&#10;&#9;&#9;c-3.8-1.1-7.9-0.2-10.9,2.4c-0.1,0.1-0.3,0.2-0.4,0.3c-0.2,0.1-0.5,0.1-0.7,0.1c-5.8,0.1-7.1,6.7-6.1,11.2c1,4.7,3.5,8.9,7.1,12.1&#10;&#9;&#9;c1.6,1.3,3.4,2.2,5.3,2.7c0.2,0.1,0.5-0.1,0.5-0.3c0-0.1,0-0.1,0-0.2c0.3-0.2,0.3-0.5,0.2-0.8c0,0,0,0,0,0c-0.5-1-0.7-2.1-0.5-3.2&#10;&#9;&#9;c0-0.2,0-0.3-0.1-0.4c0.2-0.2,0.2-0.5,0-0.7c-0.1-0.1-0.3-0.1-0.4-0.1c-1.3,0.2-2.5-0.3-3.4-1.2c-0.6-0.6-1-1.7,0.1-1.9&#10;&#9;&#9;c0.4-0.1,0.8,0,1.2,0.3c0.2,0.3,0.3,0.5,0.6,0.8c0.1,0.1,0.2,0.1,0.3,0.2c0.4,0.1,0.9-0.2,0.6-0.6c-0.2-0.3-0.4-0.6-0.6-0.9&#10;&#9;&#9;c-0.7-1.2-0.5-2.8,0.6-3.8c1.4-1.2,2.6-0.6,4.2-0.5c1,0.1,1.9-0.5,2.2-1.4c0-0.7-0.1-1.3-0.2-2c0-1,0.5-1.9,1.5-2.3&#10;&#9;&#9;c1.7-0.7,2.8,0.8,4,1.6c1,0.8,2.3,1,3.6,0.7c1.6-0.4,2.5-2.1,2.1-3.7c-0.1-0.4-0.3-0.7-0.5-1C175.3,106.3,175.1,106.3,174.9,106.3z&#10;&#9;&#9; M164.7,108.7c0.2-0.3,0.5-0.5,0.8-0.7c0.1,0,0.2-0.1,0.3-0.2h0.1l0.2,0.1C165.6,108.1,165.1,108.3,164.7,108.7L164.7,108.7z&#10;&#9;&#9; M174.2,105.2L174.2,105.2c0-0.2,0.1-0.4,0.1-0.5C174.2,104.8,174.2,105,174.2,105.2L174.2,105.2z"/>
	<path class="st0_team-meeting-1-42" d="M162.1,303.7c1.8-23.5,3.2-47,4.1-70.6c0.4-8.5,0.6-17,0.9-25.6c0-0.3-0.3-0.6-0.6-0.6c-0.3,0-0.6,0.3-0.6,0.6&#10;&#9;&#9;c-0.8,30.3-2.4,60.6-4.6,90.9c-0.1,1.7-0.3,3.4-0.4,5.1L162.1,303.7z"/>
	<path class="st11_team-meeting-1-42" d="M183.7,168.2c0,0,1.1-2.6-0.7-3.6s-10.2,0-10.2,0l1.6-2.9c0.2-0.6-0.1-0.8-0.8-0.9c-1.9-0.3-3.5,2-4.3,3.4&#10;&#9;&#9;c-0.3,0.5-0.5,1.1-0.6,1.7c-0.1,0.5,0,1.2-0.4,1.4c-0.4,0-0.9-0.1-1.3-0.2c-0.6,3.1-1.3,6.1-2,9.1l3.6,1c0,0,11.6,3.7,12.8,2.6&#10;&#9;&#9;c0.7-0.8,1.2-1.7,1.4-2.8l1.4-1.3c1.4-1.3-0.6-3.2-0.6-3.2c1.2-0.1,2.1-0.9,2.4-2C186.6,168.5,183.7,168.2,183.7,168.2z"/>
	<path class="st14_team-meeting-1-42" d="M173.9,167c3.3,0.5,6.7,0.8,10,0.8c0.3,0,0.3,0.5-0.1,0.5c-3.3,0-6.7-0.2-10-0.8&#10;&#9;&#9;C173.5,167.5,173.6,166.9,173.9,167z"/>
	<path class="st14_team-meeting-1-42" d="M173.1,170.5c3.5,1.2,7.2,1.9,10.9,2.2c0.1,0,0.2,0.2,0.2,0.3c0,0.1-0.1,0.2-0.2,0.2c-3.7-0.3-7.4-1.1-11-2.2&#10;&#9;&#9;C172.6,170.9,172.8,170.4,173.1,170.5z"/>
	<path class="st14_team-meeting-1-42" d="M173.3,174.3c3.1,0.9,6.3,2.2,9.6,2.5c0.1,0,0.2,0.2,0.2,0.3c0,0.1-0.1,0.2-0.2,0.2c-3.3-0.3-6.6-1.6-9.7-2.6&#10;&#9;&#9;C172.8,174.7,172.9,174.2,173.3,174.3z"/>
	<path class="st7_team-meeting-1-42" d="M168.1,162.3c-5-0.9-9.9-2.5-14.4-4.9c0.2-0.1,0.4-0.4,0.4-0.6c0-2.6,0.3-5.2,0.9-7.8c0.2-1-1.3-1.4-1.5-0.4&#10;&#9;&#9;c-0.6,2.7-0.9,5.4-1,8.2l0,0c-0.3-0.1-0.6-0.3-0.8-0.4c-0.9-0.5-1.6,0.8-0.8,1.3c5,2.8,10.4,4.8,16.1,5.9&#10;&#9;&#9;c-0.7,4.7-1.5,9.4-2.4,14.1c0,0.2,0,0.4,0.1,0.6c-2.8-0.2-14-1.1-23.2-5.3l0.6,10.4c0,0,13.6,1.2,22.9-4.9c0.3,0.2,0.7,0.1,0.9-0.2&#10;&#9;&#9;c0-0.1,0.1-0.1,0.1-0.2c1-4.9,1.8-9.9,2.5-14.9C168.7,162.9,168.5,162.5,168.1,162.3z"/>
</g>
<g id="Character_Female_team-meeting-1-42">
	<path class="st11_team-meeting-1-42" d="M316,197.6c0-0.7-0.5-1.4-1.2-1.6c-0.5-0.2-1.1-0.2-1.6-0.3c0.8-0.6,1.1-1.2,0.5-1.9c-3-3.6-20.3,4.2-22,1&#10;&#9;&#9;c-0.2-0.4-0.4-0.8-0.7-1.1c-0.2-0.4-0.3-0.8-0.5-1.2c-0.6-1.3-1.1-2.6-2.4-3.2c-0.8-0.4-1.8-0.1-2.3,0.7c-0.2,0.4-0.3,0.8-0.2,1.2&#10;&#9;&#9;c0.6,2.6,1.5,5.2,2.8,7.6c-0.5,3.8-1.3,7.5-2.4,11.1c-0.6,2,2.5,2.9,3.2,0.9l0,0c0.2,0.2,0.4,0.3,0.7,0.4c0.5,0.5,1.2,0.6,1.8,0.4&#10;&#9;&#9;c-0.1,0.9,0.5,1.7,1.4,1.8c0.9,0.1,1.7-0.5,1.8-1.4c1.1-3.4,2.5-7.1,5.7-8.9h1.5c3.4,0,6.8-0.1,10.2-0.3c1-0.1,1.7-0.9,1.6-1.9&#10;&#9;&#9;c0-0.3-0.1-0.6-0.3-0.8C314.9,199.9,316,199.2,316,197.6z"/>
	<path class="st7_team-meeting-1-42" d="M244.6,389.9c-0.1-4.8-5.6-5.1-7-8.4c-0.4-1.3-0.6-2.7-0.4-4c-1.2,0-2.1-0.9-2.1-2.1c0,0,0-0.1,0-0.1&#10;&#9;&#9;c0.2-2.4,0.6-4.8,1.4-7.1l-7.5-6.9c0,0-6,9.6-6.6,11.7s-1,18-0.5,19.6s3.2,1.2,4.5,0.8s0-12.5,1.3-11.9s2.1,11.1,3.8,13.5&#10;&#9;&#9;s12.2,1.3,12.2,1.3S244.7,394.7,244.6,389.9z"/>
	<path class="st11_team-meeting-1-42" d="M236.9,375.7c-1.3-9,1.8-25.2,1.8-25.2l-12.4,1l-2,18.1c0.2,0.3,0.4,0.6,0.4,1c0,0.1,0,0.2,0.1,0.2&#10;&#9;&#9;c0.1,0.1,0.1,0.2,0.2,0.4c0.8,0.9,3,1,4,1.6c2.2,1.2,2.6,3.1,2.8,5.4c0.5,4,0.5,10.1,11.4,8.5C243.3,386.6,238.2,384.7,236.9,375.7&#10;&#9;&#9;z"/>
	<path class="st7_team-meeting-1-42" d="M262.4,397.3c-0.4-4.8-5.8-4.8-7.4-8c-0.5-1.3-0.7-2.6-0.6-4c-1.1,0.1-2.1-0.8-2.2-2c0-0.1,0-0.1,0-0.2&#10;&#9;&#9;c0-2.4,0.4-4.8,1.1-7.1l-7.8-6.5c0,0-5.5,9.9-6,12s-0.1,18.1,0.4,19.6s3.2,1,4.6,0.6s-0.6-12.5,0.7-12s2.6,11,4.4,13.2&#10;&#9;&#9;s12.3,0.7,12.3,0.7S262.8,402.1,262.4,397.3z"/>
	<path class="st11_team-meeting-1-42" d="M254.1,383.5c-1.8-9,0.6-25.3,0.6-25.3l-12.3,1.5l-1.1,18.2c0.2,0.3,0.4,0.6,0.5,1c0,0.1,0,0.2,0.1,0.2&#10;&#9;&#9;l0.2,0.4c0.8,0.9,3,0.9,4,1.4c2.2,1.1,2.8,3,3.1,5.2c0.7,4,1,10.1,11.8,7.9C260.9,394,255.8,392.4,254.1,383.5z"/>
	<path class="st9_team-meeting-1-42" d="M226.6,193.6c0,0-7.1,2.1-10.4,19.6s-5.2,27.3-1.5,32.6s16.5,13.8,16.5,13.8l15.1-20.2"/>
	<path class="st9_team-meeting-1-42" d="M230,235.5c0,0-17.1-35.8-3.4-41.9s30.8,2.9,33.6,11.9s-1.3,36.2-1.3,36.2S240.8,242.2,230,235.5z"/>
	<path class="st9_team-meeting-1-42" d="M257.9,201.3c0,0,11.9,19.9,21,17.2l7.8-17.6c0,0,15.7,4.9,14.3,14.4c0,0-14,24-24.1,25.4&#10;&#9;&#9;s-22.4-11.4-22.4-11.4"/>
	<path class="st5_team-meeting-1-42 targetColor" d="M225.4,362.4c13.4,6.9,21,13.6,35.9,10.2c4.2-1,7.9-60.9,7.9-64c0.1-19.7,2.8-32.3-2.2-51.4&#10;&#9;&#9;c-0.7-2.7-4.6-17.5-7.7-17.9l-29.3-3.8c0,0-5.7,10-6,31.5c-0.2,14.3,1.8,28.6,2.1,42.9c0.2,8.3-1,16.6-2.5,24.8&#10;&#9;&#9;c-0.8,4.2-2.2,8.8-3.2,13.4c-0.6,3.5-1,7.1-1.1,10.6C221.3,360.1,223.3,361.3,225.4,362.4z" style="fill: rgb(176, 176, 176);"/>
	<path class="st10_team-meeting-1-42" d="M231.1,196.3c-0.6-0.3-3.4-5.7,0.4-7.1s16.5-0.1,16.4,2.3s0,5.8,0,5.8C242.4,199.3,236.3,199,231.1,196.3z"/>
	<path class="st7_team-meeting-1-42" d="M230.4,234.1c-3.9-9.1-6.1-18.8-6.5-28.7c0-1.1-1.7-1.1-1.6,0c0.4,10.2,2.7,20.2,6.8,29.5&#10;&#9;&#9;C229.4,235.9,230.8,235,230.4,234.1z"/>
	<path class="st12_team-meeting-1-42" d="M216.4,181.6c-3.4,5.9,4.6,17.8-3.4,21.2c-1.8,0.6-3.7,0.9-5.6,0.9c-4.2,0.2-8,1.4-10.7,4.7&#10;&#9;&#9;c-4.3,5.1-4,13.5-0.1,18.8c4.4,6,11.9,6.8,18.3,4c15.2-6.8,5.5-35.6,16.9-43.4l0.6-13C232.3,174.8,220.8,174,216.4,181.6z"/>
	<path class="st11_team-meeting-1-42" d="M252,171.4c0,0-0.3,18.7-3.9,21s-13.8-1.1-14.2-6.3S252,171.4,252,171.4z"/>
	<path class="st12_team-meeting-1-42" d="M241.7,162.4c0,0-6.4-2.5-15.9,2.8s-6.3,22.8,4.6,26.4s13.8-7.1,15.8-11.5s5.6-5.8,5.6-7.8&#10;&#9;&#9;S251.7,162.1,241.7,162.4z"/>
</g>
<g id="Clock_team-meeting-1-42">
	
		<ellipse transform="matrix(0.9939 -0.1106 0.1106 0.9939 -14.4209 48.1963)" class="st10_team-meeting-1-42" cx="427.2" cy="154.1" rx="17.6" ry="27.4"/>
	<path class="st12_team-meeting-1-42" d="M421.8,150.1l3.7,3.7v-16.1c0-2.7,4.2-2.7,4.2,0v21.2l0,0v0.1c-0.1,1.2-1.1,2-2.3,2c-0.5,0-0.9-0.2-1.2-0.5h0&#10;&#9;&#9;l0,0l-7.3-7.3C416.9,151.2,419.9,148.2,421.8,150.1z"/>
</g>
<g id="Stationery_team-meeting-1-42">
	<path class="st5_team-meeting-1-42 targetColor" d="M398.9,273.8v54c0,0,51.9,2.9,51.9,0v-54" style="fill: rgb(176, 176, 176);"/>
	<ellipse class="st5_team-meeting-1-42 targetColor" cx="424.8" cy="327.4" rx="26" ry="11.9" style="fill: rgb(176, 176, 176);"/>
	<ellipse class="st7_team-meeting-1-42" cx="424.8" cy="273.8" rx="26" ry="11.9"/>
	<path class="st11_team-meeting-1-42" d="M408.6,283l0.2,0.1c1,0.4,2,0.7,3,0.9l-7.1-59.1c0,0-1.5-0.8-3.6,0.7l7.2,57.3C408.5,283,408.6,283,408.6,283&#10;&#9;&#9;z"/>
	<path class="st11_team-meeting-1-42" d="M416.7,284.9l2.2-55.5c0,0-1.3-1-3.7,0.1l-1.8,55C414.5,284.7,415.6,284.8,416.7,284.9z"/>
	<path class="st9_team-meeting-1-42" d="M424.8,285.7l7.2-57.9l14.4,7.6l-5.8,48.6C435.5,285.5,430.1,286.1,424.8,285.7z"/>
</g>
</svg>